{
.appVersion = "3039";
DisplayStrings = (
"/ggo-ethiopic.etcp",
"/za.base/zee-ethiopic",
"/r.001 r",
"/xa-ethiopic.001",
"/nna.base.001",
"/xe-ethiopic.001",
"/nya-ethiopic.001",
"/nyu-ethiopic.001",
"/nee-ethiopic.001",
"/ni-ethiopic.001",
"/xaa-ethiopic.001",
"",
"/r.001",
"ø"
);
classes = (
{

glyphs = (
{
glyphname = AE;
lastChange = "2020-12-20 22:35:59 +0000";
layers = (
{
components = (
{
name = E;
transform = "{1, 0, 0, 1, 919, -11}";
}
);
layerId = "1691882E-B915-4755-A5B2-757873D945FF";
paths = (
{
closed = 1;
nodes = (
"1112 334 LINE SMOOTH",
"1126 334 OFFCURVE",
"1188 352 OFFCURVE",
"1199 362 CURVE SMOOTH",
"1223 384 OFFCURVE",
"1187 377 OFFCURVE",
"1109 366 CURVE",
"1000 370 OFFCURVE",
"955.911 372 OFFCURVE",
"919 372 CURVE",
"971.5 512.5 LINE SMOOTH",
"1005 601 OFFCURVE",
"1030 663.333 OFFCURVE",
"1048 698 CURVE",
"1096 698 OFFCURVE",
"1166 729.5 OFFCURVE",
"1166 771.5 CURVE SMOOTH",
"1166 792.5 OFFCURVE",
"1153.667 803 OFFCURVE",
"1129 803 CURVE SMOOTH",
"1111.31 803 OFFCURVE",
"1090.925 797.575 OFFCURVE",
"1065.5 766.5 CURVE SMOOTH",
"1050.5 748.167 OFFCURVE",
"1039.333 732.667 OFFCURVE",
"1032 720 CURVE",
"980.097 714.631 OFFCURVE",
"906.631 713.224 OFFCURVE",
"840.5 707 CURVE SMOOTH",
"812.167 704.333 OFFCURVE",
"778.833 700.333 OFFCURVE",
"740.5 695 CURVE SMOOTH",
"663.833 684.333 OFFCURVE",
"613 663.167 OFFCURVE",
"557 630.5 CURVE SMOOTH",
"501 597.833 OFFCURVE",
"462.167 538.833 OFFCURVE",
"449.5 487.5 CURVE SMOOTH",
"436.692 435.593 OFFCURVE",
"435.193 398.915 OFFCURVE",
"456 356 CURVE SMOOTH",
"472.667 319.333 OFFCURVE",
"498.667 293.333 OFFCURVE",
"534 278 CURVE SMOOTH",
"552.667 270 OFFCURVE",
"571.333 266 OFFCURVE",
"590 266 CURVE SMOOTH",
"608.667 266 OFFCURVE",
"627.333 269.333 OFFCURVE",
"646 276 CURVE SMOOTH",
"684.667 290 OFFCURVE",
"715.333 317.667 OFFCURVE",
"738 359 CURVE SMOOTH",
"751.333 382.333 OFFCURVE",
"758 404 OFFCURVE",
"758 424 CURVE SMOOTH",
"758 444 OFFCURVE",
"754 462.667 OFFCURVE",
"746 480 CURVE SMOOTH",
"742.667 486 OFFCURVE",
"738.667 488.667 OFFCURVE",
"734 488 CURVE SMOOTH",
"719.86 485.172 OFFCURVE",
"737 471.839 OFFCURVE",
"737 448.5 CURVE SMOOTH",
"737 436.167 OFFCURVE",
"731.333 414.667 OFFCURVE",
"720 384 CURVE SMOOTH",
"696 318.667 OFFCURVE",
"655.667 286 OFFCURVE",
"599 286 CURVE SMOOTH",
"541.667 286 OFFCURVE",
"504 342 OFFCURVE",
"504 390 CURVE SMOOTH",
"504 414 OFFCURVE",
"507.333 436.667 OFFCURVE",
"514 458 CURVE SMOOTH",
"530 510 OFFCURVE",
"557 554 OFFCURVE",
"595 590 CURVE SMOOTH",
"627 619.333 OFFCURVE",
"680.333 642.833 OFFCURVE",
"719 655.5 CURVE SMOOTH",
"738.333 661.833 OFFCURVE",
"762.667 667.333 OFFCURVE",
"792 672 CURVE SMOOTH",
"850.667 681.333 OFFCURVE",
"880 683.667 OFFCURVE",
"944 689 CURVE SMOOTH",
"976 691.667 OFFCURVE",
"1000.667 694 OFFCURVE",
"1018 696 CURVE",
"963.333 586.667 OFFCURVE",
"914.667 478.667 OFFCURVE",
"872 372 CURVE",
"833 372 LINE SMOOTH",
"809 372 OFFCURVE",
"767 344.667 OFFCURVE",
"767 322 CURVE",
"770.365 301.81 OFFCURVE",
"810.43 339 OFFCURVE",
"858 339 CURVE",
"766 97 OFFCURVE",
"607 -49.333 OFFCURVE",
"381 -100 CURVE SMOOTH",
"357 -105.333 OFFCURVE",
"331.333 -108 OFFCURVE",
"304 -108 CURVE SMOOTH",
"241.333 -108 OFFCURVE",
"186.667 -96.333 OFFCURVE",
"140 -73 CURVE SMOOTH",
"62.667 -33.667 OFFCURVE",
"24 26 OFFCURVE",
"24 106 CURVE SMOOTH",
"24 157.333 OFFCURVE",
"38 202.333 OFFCURVE",
"66 241 CURVE SMOOTH",
"87.333 270.333 OFFCURVE",
"108 289.333 OFFCURVE",
"128 298 CURVE SMOOTH",
"144.388 304.414 OFFCURVE",
"139.18 317.752 OFFCURVE",
"126 312 CURVE",
"90 310.667 OFFCURVE",
"20 246.333 OFFCURVE",
"4 185 CURVE SMOOTH",
"-26.667 65 OFFCURVE",
"10.667 -38.5 OFFCURVE",
"88 -96.5 CURVE SMOOTH",
"165.333 -154.5 OFFCURVE",
"258.333 -171 OFFCURVE",
"329 -171 CURVE SMOOTH",
"413 -171 OFFCURVE",
"493 -150 OFFCURVE",
"569 -108 CURVE SMOOTH",
"625.667 -76 OFFCURVE",
"675.333 -36.333 OFFCURVE",
"718 11 CURVE SMOOTH",
"805.333 107 OFFCURVE",
"869.333 215.667 OFFCURVE",
"910 337 CURVE",
"1047 332 LINE"
);
},
{
closed = 1;
nodes = (
"1091.333 755.667 OFFCURVE",
"1108 772 OFFCURVE",
"1116 772 CURVE SMOOTH",
"1117.333 772 OFFCURVE",
"1118.333 771.667 OFFCURVE",
"1119 771 CURVE",
"1125.667 769.667 OFFCURVE",
"1129.333 765.333 OFFCURVE",
"1130 758 CURVE SMOOTH",
"1130.667 741.333 OFFCURVE",
"1109.333 729.667 OFFCURVE",
"1066 723 CURVE"
);
},
{
closed = 1;
nodes = (
"1114 349 LINE",
"1114 689 LINE",
"1071 689 LINE",
"1071 349 LINE"
);
}
);
width = 1734;
}
);
note = AE;
rightMetricsKey = E;
unicode = 00C6;
},
{
glyphname = B;
lastChange = "2020-12-20 20:29:43 +0000";
layers = (
{
layerId = "1691882E-B915-4755-A5B2-757873D945FF";
paths = (
{
closed = 1;
nodes = (
"251.333 -39 OFFCURVE",
"321 -14.667 OFFCURVE",
"387 34 CURVE",
"459.667 1.333 OFFCURVE",
"548.333 -21.667 OFFCURVE",
"653 -35 CURVE SMOOTH",
"669 -37 OFFCURVE",
"685.333 -38 OFFCURVE",
"702 -38 CURVE SMOOTH",
"747.333 -38 OFFCURVE",
"794 -30.333 OFFCURVE",
"842 -15 CURVE SMOOTH",
"906.667 5.667 OFFCURVE",
"958.333 39.333 OFFCURVE",
"997 86 CURVE SMOOTH",
"1024.333 118.667 OFFCURVE",
"1038 154 OFFCURVE",
"1038 192 CURVE SMOOTH",
"1038 248.667 OFFCURVE",
"1012 294 OFFCURVE",
"960 328 CURVE SMOOTH",
"923.333 352 OFFCURVE",
"883.667 370.667 OFFCURVE",
"841 384 CURVE",
"929 388 OFFCURVE",
"1027.333 421.333 OFFCURVE",
"1066 488 CURVE SMOOTH",
"1080.667 513.333 OFFCURVE",
"1088 538.5 OFFCURVE",
"1088 563.5 CURVE SMOOTH",
"1088 588.5 OFFCURVE",
"1077.333 613 OFFCURVE",
"1056 637 CURVE SMOOTH",
"1016 680.333 OFFCURVE",
"950.667 713.667 OFFCURVE",
"860 737 CURVE",
"872.257 767.642 OFFCURVE",
"923.034 784 OFFCURVE",
"902 784 CURVE",
"896.065 789.935 OFFCURVE",
"860.105 775.947 OFFCURVE",
"824 745 CURVE",
"755.333 759.667 OFFCURVE",
"687.833 767 OFFCURVE",
"621.5 767 CURVE SMOOTH",
"555.167 767 OFFCURVE",
"491.333 762.667 OFFCURVE",
"430 754 CURVE SMOOTH",
"303.333 736 OFFCURVE",
"207.333 690.333 OFFCURVE",
"142 617 CURVE SMOOTH",
"101.333 572.333 OFFCURVE",
"81 527 OFFCURVE",
"81 481 CURVE SMOOTH",
"81 413.667 OFFCURVE",
"116.333 367.667 OFFCURVE",
"187 343 CURVE",
"239 334 LINE",
"266.333 334 OFFCURVE",
"293.667 341.333 OFFCURVE",
"321 356 CURVE SMOOTH",
"365.667 381.333 OFFCURVE",
"391.667 418.333 OFFCURVE",
"399 467 CURVE SMOOTH",
"399 468 LINE SMOOTH",
"398.333 476.667 OFFCURVE",
"394.667 481.333 OFFCURVE",
"388 482 CURVE SMOOTH",
"374.159 482 OFFCURVE",
"380.186 465.372 OFFCURVE",
"367.5 440 CURVE SMOOTH",
"360.5 426 OFFCURVE",
"349.167 411.5 OFFCURVE",
"333.5 396.5 CURVE SMOOTH",
"292.14 356.9 OFFCURVE",
"242.111 354.369 OFFCURVE",
"197 367 CURVE SMOOTH",
"149.667 381.667 OFFCURVE",
"126 413.333 OFFCURVE",
"126 462 CURVE SMOOTH",
"126 498.667 OFFCURVE",
"143 537.333 OFFCURVE",
"177 578 CURVE SMOOTH",
"233 645.333 OFFCURVE",
"313 690 OFFCURVE",
"417 712 CURVE SMOOTH",
"493 728.667 OFFCURVE",
"562.667 737 OFFCURVE",
"626 737 CURVE SMOOTH",
"689.333 737 OFFCURVE",
"747.333 732.333 OFFCURVE",
"800 723 CURVE",
"743 658 LINE SMOOTH",
"667 574 OFFCURVE",
"587.833 439.5 OFFCURVE",
"540.5 341.5 CURVE SMOOTH",
"493.167 243.5 OFFCURVE",
"425.667 129.333 OFFCURVE",
"367 72 CURVE",
"322.855 94.073 OFFCURVE",
"264.387 130.452 OFFCURVE",
"209 150 CURVE SMOOTH",
"186.333 158 OFFCURVE",
"161 162 OFFCURVE",
"133 162 CURVE SMOOTH",
"90.333 162 OFFCURVE",
"57 148.667 OFFCURVE",
"33 122 CURVE SMOOTH",
"17.667 104.667 OFFCURVE",
"10 88.333 OFFCURVE",
"10 73 CURVE SMOOTH",
"10 57.667 OFFCURVE",
"12.333 44.333 OFFCURVE",
"17 33 CURVE SMOOTH",
"37.667 -15 OFFCURVE",
"91.333 -39 OFFCURVE",
"178 -39 CURVE SMOOTH"
);
},
{
closed = 1;
nodes = (
"122.333 -8 OFFCURVE",
"91.667 7 OFFCURVE",
"77 37 CURVE SMOOTH",
"58.07 74.859 OFFCURVE",
"79.703 131 OFFCURVE",
"135.5 131 CURVE SMOOTH",
"155.833 131 OFFCURVE",
"176.333 127.333 OFFCURVE",
"197 120 CURVE SMOOTH",
"217.667 112.667 OFFCURVE",
"267 90.333 OFFCURVE",
"345 53 CURVE",
"291 12.333 OFFCURVE",
"232.333 -8 OFFCURVE",
"169 -8 CURVE SMOOTH"
);
},
{
closed = 1;
nodes = (
"676.667 -10 OFFCURVE",
"664.667 -9.333 OFFCURVE",
"652 -8 CURVE SMOOTH",
"565.333 0.667 OFFCURVE",
"484.333 20.667 OFFCURVE",
"409 52 CURVE",
"447 88 LINE",
"496.333 141.333 OFFCURVE",
"566.667 246.5 OFFCURVE",
"658 403.5 CURVE SMOOTH",
"749.333 560.5 OFFCURVE",
"812.667 663.333 OFFCURVE",
"848 712 CURVE",
"965.333 684.667 OFFCURVE",
"1024 639.667 OFFCURVE",
"1024 577 CURVE SMOOTH",
"1024 547.667 OFFCURVE",
"1009 516.333 OFFCURVE",
"979 483 CURVE SMOOTH",
"941.667 441.667 OFFCURVE",
"881.333 413.167 OFFCURVE",
"844 412.5 CURVE SMOOTH",
"800.601 411.725 OFFCURVE",
"752.963 418 OFFCURVE",
"719 418 CURVE SMOOTH",
"699.667 417.333 OFFCURVE",
"690 410.667 OFFCURVE",
"690 398 CURVE",
"701.101 373.022 OFFCURVE",
"797.624 361.859 OFFCURVE",
"876 325 CURVE SMOOTH",
"934 297 OFFCURVE",
"963 255.667 OFFCURVE",
"963 201 CURVE SMOOTH",
"963 148.333 OFFCURVE",
"934.667 99.333 OFFCURVE",
"878 54 CURVE SMOOTH",
"826 11.333 OFFCURVE",
"762.667 -10 OFFCURVE",
"688 -10 CURVE SMOOTH"
);
}
);
width = 1041;
}
);
note = B;
unicode = 0042;
},
{
glyphname = C;
lastChange = "2020-12-23 21:55:21 +0000";
layers = (
{
layerId = "1691882E-B915-4755-A5B2-757873D945FF";
paths = (
{
closed = 1;
nodes = (
"233 488 CURVE SMOOTH",
"302 635 OFFCURVE",
"474 803 OFFCURVE",
"661 783 CURVE SMOOTH",
"735 775 OFFCURVE",
"809 712 OFFCURVE",
"813 651 CURVE SMOOTH",
"816 603 OFFCURVE",
"811 573 OFFCURVE",
"786 542 CURVE SMOOTH",
"737 484 OFFCURVE",
"638 447 OFFCURVE",
"552 427 CURVE SMOOTH",
"542 425 OFFCURVE",
"544 407 OFFCURVE",
"550 408 CURVE SMOOTH",
"642 424 OFFCURVE",
"739 454 OFFCURVE",
"798 509 CURVE SMOOTH",
"834 541 OFFCURVE",
"857 583 OFFCURVE",
"857 635 CURVE SMOOTH",
"857 733 OFFCURVE",
"778 797 OFFCURVE",
"665 814 CURVE SMOOTH",
"468 843 OFFCURVE",
"277 722 OFFCURVE",
"174 529 CURVE",
"101 375 OFFCURVE",
"94 256 OFFCURVE",
"125 139 CURVE SMOOTH",
"162 -4 OFFCURVE",
"269.072 -101 OFFCURVE",
"451 -101 CURVE SMOOTH",
"642 -101 OFFCURVE",
"767 12 OFFCURVE",
"852 183 CURVE SMOOTH",
"861 203 OFFCURVE",
"848 210 OFFCURVE",
"840 193 CURVE SMOOTH",
"749 7 OFFCURVE",
"636 -67 OFFCURVE",
"439 -67 CURVE SMOOTH",
"355 -67 OFFCURVE",
"224 0 OFFCURVE",
"183 141 CURVE SMOOTH",
"157 231 OFFCURVE",
"169 352 OFFCURVE"
);
}
);
width = 710;
}
);
note = C;
unicode = 0043;
},
{
glyphname = D;
lastChange = "2020-12-23 21:42:57 +0000";
layers = (
{
layerId = "1691882E-B915-4755-A5B2-757873D945FF";
paths = (
{
closed = 1;
nodes = (
"244.333 -39 OFFCURVE",
"313 -14 OFFCURVE",
"375 36 CURVE",
"455.667 -10.667 OFFCURVE",
"553.333 -34 OFFCURVE",
"668 -34 CURVE SMOOTH",
"725 -34 OFFCURVE",
"782 -24 OFFCURVE",
"840 -3 CURVE SMOOTH",
"967 42 OFFCURVE",
"1026 154 OFFCURVE",
"1026 293 CURVE SMOOTH",
"1026 363 OFFCURVE",
"1011 427.667 OFFCURVE",
"981 487 CURVE SMOOTH",
"943.667 561 OFFCURVE",
"889.333 621.667 OFFCURVE",
"818 669 CURVE",
"840.667 710.333 OFFCURVE",
"883.333 772 OFFCURVE",
"906 772 CURVE SMOOTH",
"918.98 772 OFFCURVE",
"915 786 OFFCURVE",
"900 786 CURVE SMOOTH",
"873.333 786 OFFCURVE",
"827 754 OFFCURVE",
"775 694 CURVE",
"691 738 OFFCURVE",
"602.667 760 OFFCURVE",
"510 760 CURVE SMOOTH",
"400 760 OFFCURVE",
"203 726 OFFCURVE",
"111 603 CURVE SMOOTH",
"30 496 OFFCURVE",
"82 367 OFFCURVE",
"180 343 CURVE SMOOTH",
"257 324 OFFCURVE",
"309 344 OFFCURVE",
"343 375 CURVE SMOOTH",
"372 403 OFFCURVE",
"387 439 OFFCURVE",
"391 467 CURVE SMOOTH",
"393 477 OFFCURVE",
"390 483 OFFCURVE",
"385 485 CURVE SMOOTH",
"381 486 OFFCURVE",
"375 484 OFFCURVE",
"371 476 CURVE SMOOTH",
"361 458 OFFCURVE",
"353.333 423.333 OFFCURVE",
"324 394 CURVE SMOOTH",
"284.373 356.096 OFFCURVE",
"235.502 354.749 OFFCURVE",
"190 367 CURVE SMOOTH",
"96 397 OFFCURVE",
"98 498 OFFCURVE",
"167 584 CURVE SMOOTH",
"254 693 OFFCURVE",
"398 730 OFFCURVE",
"509 730 CURVE SMOOTH",
"593 730 OFFCURVE",
"672.333 707.667 OFFCURVE",
"747 663 CURVE",
"677.667 585.667 OFFCURVE",
"611 453 OFFCURVE",
"556 355 CURVE SMOOTH",
"500 255 OFFCURVE",
"433.667 136 OFFCURVE",
"367 72 CURVE",
"196 183 OFFCURVE",
"5 199 OFFCURVE",
"3 72.5 CURVE SMOOTH",
"2 -2 OFFCURVE",
"67 -39 OFFCURVE",
"169 -39 CURVE SMOOTH"
);
},
{
closed = 1;
nodes = (
"118.667 -8 OFFCURVE",
"63 11 OFFCURVE",
"63 66 CURVE SMOOTH",
"63 145 OFFCURVE",
"172 141 OFFCURVE",
"341 52 CURVE",
"285.667 12 OFFCURVE",
"226 -8 OFFCURVE",
"162 -8 CURVE SMOOTH"
);
},
{
closed = 1;
nodes = (
"545.333 -6 OFFCURVE",
"466.333 14 OFFCURVE",
"399 54 CURVE",
"453 100 OFFCURVE",
"499 162 OFFCURVE",
"543 228 CURVE SMOOTH",
"636.76 367.818 OFFCURVE",
"729.707 531.235 OFFCURVE",
"794 631 CURVE",
"852.667 585 OFFCURVE",
"897 527.667 OFFCURVE",
"927 459 CURVE SMOOTH",
"951 405 OFFCURVE",
"963 347.333 OFFCURVE",
"963 286 CURVE SMOOTH",
"963 163 OFFCURVE",
"907 79 OFFCURVE",
"819 34 CURVE SMOOTH",
"767 7 OFFCURVE",
"705 -6 OFFCURVE",
"636 -6 CURVE SMOOTH"
);
}
);
width = 1014;
}
);
note = D;
unicode = 0044;
},
{
glyphname = Eth;
lastChange = "2020-12-20 20:29:43 +0000";
layers = (
{
layerId = "1691882E-B915-4755-A5B2-757873D945FF";
paths = (
{
closed = 1;
nodes = (
"244.333 -39 OFFCURVE",
"313 -14 OFFCURVE",
"375 36 CURVE",
"453 1.333 OFFCURVE",
"543.333 -22.333 OFFCURVE",
"646 -35 CURVE SMOOTH",
"662 -37 OFFCURVE",
"678 -38 OFFCURVE",
"694 -38 CURVE SMOOTH",
"736.667 -38 OFFCURVE",
"778.333 -30.667 OFFCURVE",
"819 -16 CURVE SMOOTH",
"874.333 4 OFFCURVE",
"920.667 36.667 OFFCURVE",
"958 82 CURVE SMOOTH",
"1003.333 136 OFFCURVE",
"1026 206.333 OFFCURVE",
"1026 293 CURVE SMOOTH",
"1026 363 OFFCURVE",
"1011 427.667 OFFCURVE",
"981 487 CURVE SMOOTH",
"943.667 561 OFFCURVE",
"889.333 621.667 OFFCURVE",
"818 669 CURVE",
"865 737 LINE",
"892.95 762.692 OFFCURVE",
"929.026 791.198 OFFCURVE",
"905 785 CURVE",
"892.333 785 OFFCURVE",
"871.667 775 OFFCURVE",
"843 755 CURVE SMOOTH",
"823.667 741.667 OFFCURVE",
"809.333 731 OFFCURVE",
"800 723 CURVE",
"775 694 LINE",
"691 738 OFFCURVE",
"602.667 760 OFFCURVE",
"510 760 CURVE SMOOTH",
"481.333 760 OFFCURVE",
"452.333 758 OFFCURVE",
"423 754 CURVE SMOOTH",
"273.667 732 OFFCURVE",
"169.667 681.667 OFFCURVE",
"111 603 CURVE SMOOTH",
"83.667 567 OFFCURVE",
"70 530.667 OFFCURVE",
"70 494 CURVE SMOOTH",
"70 476 OFFCURVE",
"73.333 458 OFFCURVE",
"80 440 CURVE SMOOTH",
"96 392.667 OFFCURVE",
"129.333 360.333 OFFCURVE",
"180 343 CURVE",
"232 334 LINE",
"259.333 334 OFFCURVE",
"286.667 341.333 OFFCURVE",
"314 356 CURVE SMOOTH",
"358.667 381.333 OFFCURVE",
"384.333 418.333 OFFCURVE",
"391 467 CURVE SMOOTH",
"393.667 484.333 OFFCURVE",
"372.333 488 OFFCURVE",
"371 476 CURVE SMOOTH",
"369 450.667 OFFCURVE",
"353.333 423.333 OFFCURVE",
"324 394 CURVE SMOOTH",
"284.373 356.096 OFFCURVE",
"235.502 354.749 OFFCURVE",
"190 367 CURVE SMOOTH",
"141.333 382.333 OFFCURVE",
"117 415.333 OFFCURVE",
"117 466 CURVE SMOOTH",
"117 503.333 OFFCURVE",
"133.667 542.667 OFFCURVE",
"167 584 CURVE SMOOTH",
"221 652 OFFCURVE",
"299.667 697 OFFCURVE",
"403 719 CURVE SMOOTH",
"439 726.333 OFFCURVE",
"474.333 730 OFFCURVE",
"509 730 CURVE SMOOTH",
"593 730 OFFCURVE",
"672.333 707.667 OFFCURVE",
"747 663 CURVE",
"721 633 OFFCURVE",
"694.667 598 OFFCURVE",
"668 558 CURVE SMOOTH",
"648 530 OFFCURVE",
"576.667 402 OFFCURVE",
"534 318 CURVE",
"503.333 318.667 OFFCURVE",
"469 319 OFFCURVE",
"431 319 CURVE SMOOTH",
"406.711 319 OFFCURVE",
"412.507 268.358 OFFCURVE",
"431 271 CURVE SMOOTH",
"513 280 LINE",
"460.333 184.667 OFFCURVE",
"411.667 115.333 OFFCURVE",
"367 72 CURVE",
"293 111.333 OFFCURVE",
"241.5 136.167 OFFCURVE",
"212.5 146.5 CURVE SMOOTH",
"183.5 156.833 OFFCURVE",
"154.667 162 OFFCURVE",
"126 162 CURVE SMOOTH",
"83.333 162 OFFCURVE",
"50 148.333 OFFCURVE",
"26 121 CURVE SMOOTH",
"10.667 103.667 OFFCURVE",
"3 87.5 OFFCURVE",
"3 72.5 CURVE SMOOTH",
"3 57.5 OFFCURVE",
"5.333 44.333 OFFCURVE",
"10 33 CURVE SMOOTH",
"30 -15 OFFCURVE",
"83 -39 OFFCURVE",
"169 -39 CURVE SMOOTH"
);
},
{
closed = 1;
nodes = (
"118.667 -8 OFFCURVE",
"90 6.333 OFFCURVE",
"76 35 CURVE SMOOTH",
"58.043 70.914 OFFCURVE",
"78.181 130 OFFCURVE",
"132.5 130 CURVE SMOOTH",
"152.167 130 OFFCURVE",
"172.333 126.333 OFFCURVE",
"193 119 CURVE SMOOTH",
"213.667 111.667 OFFCURVE",
"263 89.333 OFFCURVE",
"341 52 CURVE",
"285.667 12 OFFCURVE",
"226 -8 OFFCURVE",
"162 -8 CURVE SMOOTH"
);
},
{
closed = 1;
nodes = (
"667.667 -10 OFFCURVE",
"656.333 -9.333 OFFCURVE",
"645 -8 CURVE SMOOTH",
"553.667 0.667 OFFCURVE",
"471.667 21.333 OFFCURVE",
"399 54 CURVE",
"449 96.667 OFFCURVE",
"509.667 174 OFFCURVE",
"581 286 CURVE",
"611.667 287.333 OFFCURVE",
"636.333 288 OFFCURVE",
"655 288 CURVE",
"665 289.333 OFFCURVE",
"670.667 294 OFFCURVE",
"672 302 CURVE",
"669.333 310 OFFCURVE",
"662.333 314.333 OFFCURVE",
"651 315 CURVE SMOOTH",
"601 316 LINE",
"616.333 340.667 OFFCURVE",
"646.333 390.167 OFFCURVE",
"691 464.5 CURVE SMOOTH",
"735.667 538.833 OFFCURVE",
"770 594.333 OFFCURVE",
"794 631 CURVE",
"852.667 585 OFFCURVE",
"897 527.667 OFFCURVE",
"927 459 CURVE SMOOTH",
"951 405 OFFCURVE",
"963 347.333 OFFCURVE",
"963 286 CURVE SMOOTH",
"963 270 OFFCURVE",
"962 253.667 OFFCURVE",
"960 237 CURVE SMOOTH",
"952 165 OFFCURVE",
"918.333 104 OFFCURVE",
"859 54 CURVE SMOOTH",
"807.667 11.333 OFFCURVE",
"747.667 -10 OFFCURVE",
"679 -10 CURVE SMOOTH"
);
}
);
width = 1027;
}
);
note = Eth;
unicode = 00D0;
},
{
glyphname = E;
lastChange = "2020-12-23 21:29:48 +0000";
layers = (
{
layerId = "1691882E-B915-4755-A5B2-757873D945FF";
paths = (
{
closed = 1;
nodes = (
"268.869 -63.709 OFFCURVE",
"413.542 -65.208 OFFCURVE",
"565 -19 CURVE SMOOTH",
"722.333 29 OFFCURVE",
"838 120.333 OFFCURVE",
"838 195 CURVE SMOOTH",
"838 220.333 OFFCURVE",
"823 241 OFFCURVE",
"793 257 CURVE SMOOTH",
"778.333 265 OFFCURVE",
"747.333 268 OFFCURVE",
"750 256 CURVE SMOOTH",
"753 236 OFFCURVE",
"801 243 OFFCURVE",
"799 215 CURVE SMOOTH",
"797 183 OFFCURVE",
"771.667 145.667 OFFCURVE",
"717 103 CURVE SMOOTH",
"621 28.333 OFFCURVE",
"452 -33 OFFCURVE",
"340.5 -33 CURVE SMOOTH",
"196 -33 OFFCURVE",
"92 12 OFFCURVE",
"92 140 CURVE SMOOTH",
"92 205.333 OFFCURVE",
"121 262.667 OFFCURVE",
"179 312 CURVE SMOOTH",
"228.333 354.667 OFFCURVE",
"297 377 OFFCURVE",
"385 376 CURVE SMOOTH",
"492 375 LINE SMOOTH",
"521 375 OFFCURVE",
"535 382.667 OFFCURVE",
"535 398 CURVE SMOOTH",
"535 415.333 OFFCURVE",
"509.333 429.333 OFFCURVE",
"458 440 CURVE SMOOTH",
"394 455 OFFCURVE",
"322 478 OFFCURVE",
"322 548 CURVE SMOOTH",
"322 596.667 OFFCURVE",
"347.333 641.667 OFFCURVE",
"398 683 CURVE SMOOTH",
"463 736 OFFCURVE",
"608 785 OFFCURVE",
"682 783 CURVE SMOOTH",
"755 781 OFFCURVE",
"810 739 OFFCURVE",
"810 700 CURVE SMOOTH",
"810 636 OFFCURVE",
"740 586 OFFCURVE",
"688 571 CURVE SMOOTH",
"668 565 OFFCURVE",
"657 570 OFFCURVE",
"654 555 CURVE SMOOTH",
"653 551 OFFCURVE",
"657 549 OFFCURVE",
"665 549 CURVE SMOOTH",
"672 549 OFFCURVE",
"682 550 OFFCURVE",
"694 553 CURVE SMOOTH",
"791 574 OFFCURVE",
"870 637 OFFCURVE",
"870 697 CURVE SMOOTH",
"870 783 OFFCURVE",
"763 804 OFFCURVE",
"674 804 CURVE SMOOTH",
"584.667 804 OFFCURVE",
"451 776.5 OFFCURVE",
"339 690.5 CURVE SMOOTH",
"283 647.5 OFFCURVE",
"248 599 OFFCURVE",
"248 539 CURVE SMOOTH",
"248 489.667 OFFCURVE",
"301.333 444 OFFCURVE",
"368 420 CURVE",
"304 417.333 OFFCURVE",
"216.667 395 OFFCURVE",
"146 347 CURVE SMOOTH",
"78 301 OFFCURVE",
"19 220 OFFCURVE",
"21 142 CURVE SMOOTH",
"23 70 OFFCURVE",
"77 -4 OFFCURVE",
"177 -35 CURVE SMOOTH"
);
}
);
width = 815;
}
);
note = E;
unicode = 0045;
},
{
glyphname = G;
lastChange = "2020-12-23 21:49:24 +0000";
layers = (
{
layerId = "1691882E-B915-4755-A5B2-757873D945FF";
paths = (
{
closed = 1;
nodes = (
"141 -374 OFFCURVE",
"211 -355 OFFCURVE",
"281 -321 CURVE SMOOTH",
"378 -275 OFFCURVE",
"477 -201 OFFCURVE",
"538 -112 CURVE",
"650.667 -112 OFFCURVE",
"717 -118 OFFCURVE",
"763 -130 CURVE SMOOTH",
"782.333 -134.667 OFFCURVE",
"792 -133.333 OFFCURVE",
"792 -126 CURVE SMOOTH",
"792 -120 OFFCURVE",
"785 -115.333 OFFCURVE",
"771 -112 CURVE SMOOTH",
"705 -95.333 OFFCURVE",
"632 -86.667 OFFCURVE",
"552 -86 CURVE",
"632 46 OFFCURVE",
"675 140 OFFCURVE",
"688 244 CURVE SMOOTH",
"692 266 OFFCURVE",
"679 292 OFFCURVE",
"655 292 CURVE SMOOTH",
"624.333 292 OFFCURVE",
"610 252 OFFCURVE",
"569 199 CURVE SMOOTH",
"516 130 OFFCURVE",
"379 60 OFFCURVE",
"296.5 60 CURVE SMOOTH",
"174 60 OFFCURVE",
"111 130 OFFCURVE",
"111 276 CURVE SMOOTH",
"111 330.667 OFFCURVE",
"127 392.667 OFFCURVE",
"159 462 CURVE",
"228 416 OFFCURVE",
"316 393 OFFCURVE",
"424 393 CURVE SMOOTH",
"577 393 OFFCURVE",
"796 473 OFFCURVE",
"796 634.5 CURVE SMOOTH",
"796 733 OFFCURVE",
"717 797 OFFCURVE",
"604 814 CURVE SMOOTH",
"407 843 OFFCURVE",
"225 717 OFFCURVE",
"113 529 CURVE",
"55 597 OFFCURVE",
"36 687 OFFCURVE",
"106 781 CURVE SMOOTH",
"119.333 799.667 OFFCURVE",
"109 806.333 OFFCURVE",
"93 789 CURVE SMOOTH",
"13 700 OFFCURVE",
"5 593 OFFCURVE",
"97 499 CURVE",
"63 425 OFFCURVE",
"46 355.667 OFFCURVE",
"46 291 CURVE SMOOTH",
"46 149 OFFCURVE",
"119 23 OFFCURVE",
"274.5 23 CURVE SMOOTH",
"376 23 OFFCURVE",
"518 91 OFFCURVE",
"607 177 CURVE",
"584 80 OFFCURVE",
"551.333 -2.667 OFFCURVE",
"502 -86 CURVE",
"342 -88.667 OFFCURVE",
"218 -103 OFFCURVE",
"102 -155 CURVE SMOOTH",
"44 -181 OFFCURVE",
"-47 -234 OFFCURVE",
"-47 -294 CURVE SMOOTH",
"-47 -348 OFFCURVE",
"34 -374 OFFCURVE",
"88 -374 CURVE SMOOTH"
);
},
{
closed = 1;
nodes = (
"58 -343 OFFCURVE",
"4 -334 OFFCURVE",
"4 -301 CURVE SMOOTH",
"4 -276.333 OFFCURVE",
"31 -246.667 OFFCURVE",
"85 -212 CURVE SMOOTH",
"153.667 -168 OFFCURVE",
"226 -140.333 OFFCURVE",
"302 -129 CURVE SMOOTH",
"354.667 -120.333 OFFCURVE",
"416 -115 OFFCURVE",
"486 -113 CURVE",
"432 -190.333 OFFCURVE",
"359 -250 OFFCURVE",
"267 -292 CURVE SMOOTH",
"194.333 -326 OFFCURVE",
"134.333 -343 OFFCURVE",
"87 -343 CURVE SMOOTH"
);
},
{
closed = 1;
nodes = (
"359 419 OFFCURVE",
"234.667 440 OFFCURVE",
"172 488 CURVE",
"246 636 OFFCURVE",
"413 803 OFFCURVE",
"600 783 CURVE SMOOTH",
"674 775 OFFCURVE",
"752 712 OFFCURVE",
"752 651 CURVE SMOOTH",
"752 503 OFFCURVE",
"571 429 OFFCURVE",
"424 422 CURVE SMOOTH"
);
}
);
width = 699;
}
);
note = G;
unicode = 0047;
},
{
glyphname = I;
lastChange = "2020-12-24 07:45:37 +0000";
layers = (
{
anchors = (
{
name = top;
position = "{390, 715}";
}
);
layerId = "1691882E-B915-4755-A5B2-757873D945FF";
paths = (
{
closed = 1;
nodes = (
"326 47 OFFCURVE",
"326 -41 OFFCURVE",
"403 -41 CURVE SMOOTH",
"430 -41 OFFCURVE",
"458 -28 OFFCURVE",
"485 -2 CURVE SMOOTH",
"526 39 OFFCURVE",
"553 77 OFFCURVE",
"602 182 CURVE SMOOTH",
"613 206 OFFCURVE",
"598 212 OFFCURVE",
"587 189 CURVE SMOOTH",
"542 96 OFFCURVE",
"501 36 OFFCURVE",
"463 8 CURVE SMOOTH",
"444 -6 OFFCURVE",
"426 -7 OFFCURVE",
"410 -1 CURVE SMOOTH",
"384 9 OFFCURVE",
"381 39 OFFCURVE",
"389 96 CURVE SMOOTH",
"399 164 OFFCURVE",
"437 263 OFFCURVE",
"478 372 CURVE SMOOTH",
"529 508 OFFCURVE",
"591 639 OFFCURVE",
"634 702 CURVE",
"695 707 OFFCURVE",
"713 714 OFFCURVE",
"729 721 CURVE SMOOTH",
"767 741 OFFCURVE",
"774 788 OFFCURVE",
"730 796 CURVE SMOOTH",
"696 800 OFFCURVE",
"637 778 OFFCURVE",
"597 725 CURVE",
"510 722 OFFCURVE",
"412 710 OFFCURVE",
"320 686 CURVE SMOOTH",
"162 643 OFFCURVE",
"24 562 OFFCURVE",
"-3 426 CURVE SMOOTH",
"-19 348 OFFCURVE",
"51 292 OFFCURVE",
"99 285 CURVE SMOOTH",
"185 271 OFFCURVE",
"293 334 OFFCURVE",
"306 422 CURVE SMOOTH",
"308 441 OFFCURVE",
"307 459 OFFCURVE",
"300 477 CURVE SMOOTH",
"296 488 OFFCURVE",
"289 489 OFFCURVE",
"281 481 CURVE SMOOTH",
"279 479 OFFCURVE",
"277 474 OFFCURVE",
"278 472 CURVE SMOOTH",
"283 459 OFFCURVE",
"287 447 OFFCURVE",
"283 429 CURVE SMOOTH",
"270 373 OFFCURVE",
"206 296 OFFCURVE",
"120 308 CURVE SMOOTH",
"84 313 OFFCURVE",
"44 356 OFFCURVE",
"54 411 CURVE SMOOTH",
"83 572 OFFCURVE",
"226 632 OFFCURVE",
"338 664 CURVE SMOOTH",
"399 682 OFFCURVE",
"479 692 OFFCURVE",
"577 700 CURVE",
"520 617 OFFCURVE",
"453 455 OFFCURVE",
"421 372 CURVE SMOOTH",
"367 233 OFFCURVE",
"339 140 OFFCURVE",
"334 105 CURVE SMOOTH"
);
},
{
closed = 1;
nodes = (
"670 751 OFFCURVE",
"701 767 OFFCURVE",
"709 766 CURVE SMOOTH",
"716 765 OFFCURVE",
"721 761 OFFCURVE",
"721 753 CURVE SMOOTH",
"720 737 OFFCURVE",
"689 726 OFFCURVE",
"645 724 CURVE"
);
}
);
width = 600;
}
);
leftMetricsKey = L;
note = I;
unicode = 0049;
},
{
glyphname = K;
lastChange = "2020-12-23 22:13:18 +0000";
layers = (
{
components = (
{
name = _part.curvy.left;
transform = "{1, 0, 0, 1, -1401, 0}";
}
);
layerId = "1691882E-B915-4755-A5B2-757873D945FF";
paths = (
{
closed = 1;
nodes = (
"1364.5 -113.167 OFFCURVE",
"1396 -80.667 OFFCURVE",
"1414 -44 CURVE SMOOTH",
"1421.333 -29.333 OFFCURVE",
"1422 -22 OFFCURVE",
"1416 -22 CURVE SMOOTH",
"1410 -22 OFFCURVE",
"1405 -26.667 OFFCURVE",
"1401 -36 CURVE SMOOTH",
"1366.333 -104 OFFCURVE",
"1279.333 -141 OFFCURVE",
"1194 -141 CURVE SMOOTH",
"1120 -141 OFFCURVE",
"1060.333 -89 OFFCURVE",
"1015 15 CURVE SMOOTH",
"984.333 85.667 OFFCURVE",
"957.667 185.667 OFFCURVE",
"955 215 CURVE SMOOTH",
"953.748 226.836 OFFCURVE",
"953.479 239.146 OFFCURVE",
"953.426 246.644 CURVE",
"1141.497 310.217 OFFCURVE",
"1470.115 564.19 OFFCURVE",
"1622 816 CURVE SMOOTH",
"1634.942 838.103 OFFCURVE",
"1623.993 852.77 OFFCURVE",
"1619 848 CURVE",
"1613 848 OFFCURVE",
"1605.667 841.667 OFFCURVE",
"1597 829 CURVE SMOOTH",
"1499.667 681 OFFCURVE",
"1333.5 524.167 OFFCURVE",
"1195.5 431.5 CURVE SMOOTH",
"1068.645 346.317 OFFCURVE",
"953.04 280 OFFCURVE",
"900 280 CURVE SMOOTH",
"897 280 LINE",
"875.264 271.849 OFFCURVE",
"889.279 207.087 OFFCURVE",
"899 152 CURVE SMOOTH",
"924.333 22.667 OFFCURVE",
"973.667 -72 OFFCURVE",
"1047 -132 CURVE SMOOTH",
"1127.672 -198.587 OFFCURVE",
"1213.736 -201.615 OFFCURVE",
"1319.5 -141.5 CURVE SMOOTH"
);
}
);
width = 1144;
}
);
note = K;
unicode = 004B;
},
{
glyphname = L;
lastChange = "2020-12-23 22:20:46 +0000";
layers = (
{
layerId = "1691882E-B915-4755-A5B2-757873D945FF";
paths = (
{
closed = 1;
nodes = (
"805 -316 OFFCURVE",
"844 -283 OFFCURVE",
"861 -221 CURVE SMOOTH",
"866 -203 OFFCURVE",
"861 -182 OFFCURVE",
"854 -156 CURVE SMOOTH",
"841 -108 OFFCURVE",
"804 -66 OFFCURVE",
"760 -31 CURVE SMOOTH",
"673 38 OFFCURVE",
"564 85.333 OFFCURVE",
"432 118 CURVE",
"453 152 LINE SMOOTH",
"473 184 OFFCURVE",
"500.333 242 OFFCURVE",
"541 324 CURVE",
"682.333 348 OFFCURVE",
"827.167 451.333 OFFCURVE",
"902.5 578 CURVE SMOOTH",
"940 642 OFFCURVE",
"964 711 OFFCURVE",
"958 783 CURVE SMOOTH",
"953.783 842.044 OFFCURVE",
"873.97 863.8 OFFCURVE",
"808 837 CURVE SMOOTH",
"726.667 802.333 OFFCURVE",
"658 710 OFFCURVE",
"598 559 CURVE SMOOTH",
"513 345 LINE",
"461.046 338.765 OFFCURVE",
"378 343 OFFCURVE",
"327 391.5 CURVE SMOOTH",
"291 425 OFFCURVE",
"286 472 OFFCURVE",
"292 513 CURVE SMOOTH",
"301 571 OFFCURVE",
"340 625 OFFCURVE",
"385 654 CURVE SMOOTH",
"409.667 670 OFFCURVE",
"436.333 679.667 OFFCURVE",
"465 683 CURVE",
"488.612 646.601 OFFCURVE",
"536.653 713.519 OFFCURVE",
"463 700 CURVE SMOOTH",
"350 674 OFFCURVE",
"243 610 OFFCURVE",
"243 504 CURVE SMOOTH",
"243 464.667 OFFCURVE",
"257 429.333 OFFCURVE",
"285 398 CURVE SMOOTH",
"327.667 350 OFFCURVE",
"404 320 OFFCURVE",
"488 320 CURVE SMOOTH",
"499 320 LINE",
"459 238 OFFCURVE",
"424 173.667 OFFCURVE",
"394 127 CURVE",
"317 142 OFFCURVE",
"166 142 OFFCURVE",
"70 85 CURVE SMOOTH",
"20 56.333 OFFCURVE",
"-5 23 OFFCURVE",
"-5 -15 CURVE SMOOTH",
"-5 -86 OFFCURVE",
"66 -117 OFFCURVE",
"127.5 -117 CURVE SMOOTH",
"227 -117 OFFCURVE",
"334 -24 OFFCURVE",
"403 73 CURVE",
"490 58 OFFCURVE",
"657 -4 OFFCURVE",
"742 -73 CURVE SMOOTH",
"804 -123 OFFCURVE",
"826 -137 OFFCURVE",
"826 -185 CURVE SMOOTH",
"826 -212 OFFCURVE",
"796 -274 OFFCURVE",
"800 -294 CURVE SMOOTH"
);
},
{
closed = 1;
nodes = (
"61.667 -88 OFFCURVE",
"16 -63.667 OFFCURVE",
"16 -29 CURVE SMOOTH",
"16 26 OFFCURVE",
"100 61 OFFCURVE",
"155 75 CURVE SMOOTH",
"230 96 OFFCURVE",
"301 90 OFFCURVE",
"363 79 CURVE",
"296 -16 OFFCURVE",
"203 -88 OFFCURVE",
"107 -88 CURVE SMOOTH"
);
},
{
closed = 1;
nodes = (
"609.667 464.333 OFFCURVE",
"682 613.333 OFFCURVE",
"758 708 CURVE SMOOTH",
"806.667 767.333 OFFCURVE",
"848 797 OFFCURVE",
"882 797 CURVE SMOOTH",
"905.333 797 OFFCURVE",
"917 784.333 OFFCURVE",
"917 759 CURVE SMOOTH",
"917 580.333 OFFCURVE",
"740.333 392.333 OFFCURVE",
"555 351 CURVE"
);
}
);
width = 712;
}
);
note = L;
unicode = 004C;
},
{
glyphname = M;
lastChange = "2020-12-23 22:27:20 +0000";
layers = (
{
layerId = "1691882E-B915-4755-A5B2-757873D945FF";
paths = (
{
closed = 1;
nodes = (
"1383 -114 OFFCURVE",
"1396 -110 OFFCURVE",
"1396 -102 CURVE SMOOTH",
"1396 -99 OFFCURVE",
"1390 -98 OFFCURVE",
"1365 -98 CURVE SMOOTH",
"1276 -98 OFFCURVE",
"1261 -38 OFFCURVE",
"1261 42 CURVE SMOOTH",
"1261 73 OFFCURVE",
"1275 132 OFFCURVE",
"1302 217 CURVE SMOOTH",
"1353 383 OFFCURVE",
"1454 517 OFFCURVE",
"1454 609 CURVE SMOOTH",
"1454 641 OFFCURVE",
"1443 677 OFFCURVE",
"1401 677 CURVE SMOOTH",
"1262 677 OFFCURVE",
"1026 331 OFFCURVE",
"950 212 CURVE",
"1054 420 OFFCURVE",
"1049 542 OFFCURVE",
"1049 609 CURVE SMOOTH",
"1049 668 OFFCURVE",
"1022 696 OFFCURVE",
"985 702 CURVE SMOOTH",
"935 710 OFFCURVE",
"884 700 OFFCURVE",
"822 623 CURVE SMOOTH",
"763 550 OFFCURVE",
"708 471 OFFCURVE",
"659 381 CURVE SMOOTH",
"651 366 OFFCURVE",
"645 359 OFFCURVE",
"642 360 CURVE",
"637 362 OFFCURVE",
"637 371 OFFCURVE",
"646 392 CURVE SMOOTH",
"676 461 OFFCURVE",
"700 556 OFFCURVE",
"700 628 CURVE SMOOTH",
"700 665 OFFCURVE",
"694 696 OFFCURVE",
"683 722 CURVE SMOOTH",
"658 782 OFFCURVE",
"608 812 OFFCURVE",
"533 812 CURVE SMOOTH",
"310 812 OFFCURVE",
"18 556 OFFCURVE",
"18 333 CURVE SMOOTH",
"18 201 OFFCURVE",
"106 116 OFFCURVE",
"210 116 CURVE SMOOTH",
"345 116 OFFCURVE",
"464 247 OFFCURVE",
"464 346 CURVE SMOOTH",
"464 402 OFFCURVE",
"440 449 OFFCURVE",
"376 449 CURVE SMOOTH",
"362 449 OFFCURVE",
"316 446 OFFCURVE",
"326 432 CURVE SMOOTH",
"332 422 OFFCURVE",
"358 427 OFFCURVE",
"366 427 CURVE SMOOTH",
"409 427 OFFCURVE",
"431 404 OFFCURVE",
"431 358 CURVE SMOOTH",
"431 265 OFFCURVE",
"328 138 OFFCURVE",
"219 138 CURVE SMOOTH",
"133 138 OFFCURVE",
"72 211 OFFCURVE",
"72 323 CURVE SMOOTH",
"72 508 OFFCURVE",
"341 787 OFFCURVE",
"522 791 CURVE SMOOTH",
"621 793 OFFCURVE",
"644 744 OFFCURVE",
"644 649 CURVE SMOOTH",
"644 569 OFFCURVE",
"610 442 OFFCURVE",
"542 267 CURVE SMOOTH",
"489 129 OFFCURVE",
"440 26 OFFCURVE",
"396 -42 CURVE",
"395 -49 LINE",
"396 -60 OFFCURVE",
"405 -65 OFFCURVE",
"422 -65 CURVE SMOOTH",
"451 -65 OFFCURVE",
"469 -55 OFFCURVE",
"478 -36 CURVE SMOOTH",
"482 -25 OFFCURVE",
"487 -18 OFFCURVE",
"493 -4 CURVE SMOOTH",
"536.5 93.5 LINE SMOOTH",
"593 221 OFFCURVE",
"621 283 OFFCURVE",
"700 411 CURVE SMOOTH",
"739 474 OFFCURVE",
"786 539 OFFCURVE",
"839 605 CURVE SMOOTH",
"886 663 OFFCURVE",
"927 680 OFFCURVE",
"966 673 CURVE SMOOTH",
"985 669 OFFCURVE",
"994 642 OFFCURVE",
"993 596 CURVE SMOOTH",
"991 527 OFFCURVE",
"967 418 OFFCURVE",
"922 291 CURVE SMOOTH",
"869 139 OFFCURVE",
"809 37 OFFCURVE",
"805 31 CURVE SMOOTH",
"784 -6 OFFCURVE",
"784 -10 OFFCURVE",
"786 -15 CURVE SMOOTH",
"790 -28 OFFCURVE",
"800 -34 OFFCURVE",
"818 -34 CURVE SMOOTH",
"843 -34 OFFCURVE",
"864 -16 OFFCURVE",
"879 20 CURVE SMOOTH",
"914 103 OFFCURVE",
"1080 366 OFFCURVE",
"1146 446 CURVE SMOOTH",
"1183 491 OFFCURVE",
"1209 520 OFFCURVE",
"1237 548 CURVE SMOOTH",
"1292 601 OFFCURVE",
"1332 628 OFFCURVE",
"1358 628 CURVE SMOOTH",
"1377 628 OFFCURVE",
"1386 617 OFFCURVE",
"1386 595 CURVE SMOOTH",
"1386 537 OFFCURVE",
"1279 322 OFFCURVE",
"1258 272 CURVE SMOOTH",
"1238 224 OFFCURVE",
"1200 119 OFFCURVE",
"1200 48 CURVE SMOOTH",
"1200 -49 OFFCURVE",
"1252 -114 OFFCURVE",
"1358 -114 CURVE SMOOTH"
);
}
);
width = 1329;
}
);
note = M;
unicode = 004D;
},
{
glyphname = N;
lastChange = "2020-12-23 22:30:37 +0000";
layers = (
{
layerId = "1691882E-B915-4755-A5B2-757873D945FF";
paths = (
{
closed = 1;
nodes = (
"1062 -148 OFFCURVE",
"1062 -112 CURVE SMOOTH",
"1062 -78.63 OFFCURVE",
"1022.063 -121 OFFCURVE",
"969 -121 CURVE SMOOTH",
"920 -121 OFFCURVE",
"908 -66 OFFCURVE",
"908 -28 CURVE SMOOTH",
"908 70.667 OFFCURVE",
"974.833 197.333 OFFCURVE",
"1059.5 352 CURVE SMOOTH",
"1144.167 506.667 OFFCURVE",
"1189 599.667 OFFCURVE",
"1189 669 CURVE SMOOTH",
"1189 711 OFFCURVE",
"1172 739 OFFCURVE",
"1144 753 CURVE SMOOTH",
"1106 772 OFFCURVE",
"1047 767 OFFCURVE",
"983 736 CURVE SMOOTH",
"913 704 OFFCURVE",
"834 634.667 OFFCURVE",
"746 528 CURVE SMOOTH",
"698.667 470.667 OFFCURVE",
"653 411 OFFCURVE",
"614 348 CURVE SMOOTH",
"583 298 LINE",
"581.667 298.667 OFFCURVE",
"595 329 OFFCURVE",
"623 390 CURVE SMOOTH",
"675 509 OFFCURVE",
"695 571 OFFCURVE",
"695 631 CURVE SMOOTH",
"695 714 OFFCURVE",
"649 778 OFFCURVE",
"570 789 CURVE SMOOTH",
"426 810 OFFCURVE",
"266 737 OFFCURVE",
"137 610 CURVE SMOOTH",
"46 522 OFFCURVE",
"-19 390 OFFCURVE",
"1 277 CURVE SMOOTH",
"19 178 OFFCURVE",
"93.167 122 OFFCURVE",
"172.5 122 CURVE SMOOTH",
"289 122 OFFCURVE",
"379 184 OFFCURVE",
"430 270 CURVE SMOOTH",
"451.333 306.667 OFFCURVE",
"462 339.333 OFFCURVE",
"462 368 CURVE SMOOTH",
"462 406 OFFCURVE",
"443 448 OFFCURVE",
"388.5 448 CURVE SMOOTH",
"354.833 448 OFFCURVE",
"336 443 OFFCURVE",
"329 436 CURVE SMOOTH",
"318.098 425.098 OFFCURVE",
"335.583 427 OFFCURVE",
"357 427 CURVE SMOOTH",
"401.667 427 OFFCURVE",
"424 405.667 OFFCURVE",
"424 363 CURVE SMOOTH",
"424 318.333 OFFCURVE",
"403.333 273 OFFCURVE",
"362 227 CURVE SMOOTH",
"310.667 169.667 OFFCURVE",
"250.667 141 OFFCURVE",
"182 141 CURVE SMOOTH",
"96 145 OFFCURVE",
"57 212 OFFCURVE",
"57 294 CURVE SMOOTH",
"57 340 OFFCURVE",
"69.333 390.333 OFFCURVE",
"94 445 CURVE SMOOTH",
"139.333 545.667 OFFCURVE",
"212 627 OFFCURVE",
"313 690 CURVE SMOOTH",
"382 733 OFFCURVE",
"471 772 OFFCURVE",
"556 761 CURVE SMOOTH",
"646 747 OFFCURVE",
"645 637 OFFCURVE",
"627 554 CURVE SMOOTH",
"584.333 364.667 OFFCURVE",
"438 52.667 OFFCURVE",
"374 -42 CURVE",
"373.333 -44.667 OFFCURVE",
"373.333 -47 OFFCURVE",
"374 -49 CURVE SMOOTH",
"375.333 -59.667 OFFCURVE",
"384.333 -65 OFFCURVE",
"401 -65 CURVE SMOOTH",
"429 -65 OFFCURVE",
"448 -55 OFFCURVE",
"457 -36 CURVE SMOOTH",
"498 52 LINE SMOOTH",
"569 205 OFFCURVE",
"633 323.667 OFFCURVE",
"689 407 CURVE SMOOTH",
"783.667 548.333 OFFCURVE",
"883.333 644 OFFCURVE",
"988 694 CURVE SMOOTH",
"1020 711 OFFCURVE",
"1076 728 OFFCURVE",
"1101 705 CURVE SMOOTH",
"1113 693 OFFCURVE",
"1114 673 OFFCURVE",
"1110 657 CURVE SMOOTH",
"1083.36 482.358 OFFCURVE",
"924.617 259.775 OFFCURVE",
"869.5 96 CURVE SMOOTH",
"858 61 OFFCURVE",
"852 27 OFFCURVE",
"852 -7 CURVE SMOOTH",
"852 -80 OFFCURVE",
"869 -129 OFFCURVE",
"949 -144 CURVE SMOOTH",
"978 -151 OFFCURVE"
);
}
);
width = 1039;
}
);
note = N;
unicode = 004E;
},
{
glyphname = O;
lastChange = "2020-12-24 07:46:21 +0000";
layers = (
{
anchors = (
{
name = top;
position = "{362, 699}";
}
);
layerId = "1691882E-B915-4755-A5B2-757873D945FF";
paths = (
{
closed = 1;
nodes = (
"419.333 -63 OFFCURVE",
"520.667 -11.333 OFFCURVE",
"614 92 CURVE SMOOTH",
"751.596 240.604 OFFCURVE",
"796.281 416.631 OFFCURVE",
"756 572 CURVE SMOOTH",
"710 762 OFFCURVE",
"507 806 OFFCURVE",
"312 776 CURVE SMOOTH",
"226 761 OFFCURVE",
"161 721 OFFCURVE",
"118 656 CURVE SMOOTH",
"69 582 OFFCURVE",
"75 511 OFFCURVE",
"107 447 CURVE SMOOTH",
"120.333 421.667 OFFCURVE",
"136.333 430.333 OFFCURVE",
"131 453 CURVE SMOOTH",
"115 518 OFFCURVE",
"113 590 OFFCURVE",
"152 655 CURVE SMOOTH",
"185 711 OFFCURVE",
"239 744 OFFCURVE",
"316 754 CURVE SMOOTH",
"447 773 OFFCURVE",
"583 739 OFFCURVE",
"662 621 CURVE SMOOTH",
"757 480 OFFCURVE",
"723 285 OFFCURVE",
"614 142 CURVE SMOOTH",
"545 52 OFFCURVE",
"431 -43 OFFCURVE",
"304 -43 CURVE SMOOTH",
"272 -43 OFFCURVE",
"243 -32 OFFCURVE",
"216 -10 CURVE SMOOTH",
"139 55 OFFCURVE",
"143 175 OFFCURVE",
"170 266 CURVE SMOOTH",
"210 406 OFFCURVE",
"291.333 522 OFFCURVE",
"390 590 CURVE SMOOTH",
"427.333 615.333 OFFCURVE",
"461 625 OFFCURVE",
"491 628 CURVE SMOOTH",
"519 631 OFFCURVE",
"555 623 OFFCURVE",
"529 638 CURVE SMOOTH",
"507 650.667 OFFCURVE",
"484.333 657 OFFCURVE",
"461 657 CURVE SMOOTH",
"399 657 OFFCURVE",
"334 628 OFFCURVE",
"283 580 CURVE SMOOTH",
"195.197 498.782 OFFCURVE",
"137.211 404.675 OFFCURVE",
"109 294 CURVE SMOOTH",
"93 231 OFFCURVE",
"87 149 OFFCURVE",
"120 64 CURVE SMOOTH",
"149.333 -9.333 OFFCURVE",
"216.667 -63 OFFCURVE",
"310 -63 CURVE SMOOTH"
);
}
);
width = 752;
}
);
note = O;
unicode = 004F;
},
{
glyphname = OE;
lastChange = "2020-12-20 20:29:43 +0000";
layers = (
{
layerId = "1691882E-B915-4755-A5B2-757873D945FF";
paths = (
{
closed = 1;
nodes = (
"1121.833 -114 OFFCURVE",
"1296 -58 OFFCURVE",
"1396 26 CURVE SMOOTH",
"1446 68.667 OFFCURVE",
"1471 109 OFFCURVE",
"1471 147 CURVE SMOOTH",
"1471 177 OFFCURVE",
"1453 201 OFFCURVE",
"1417 219 CURVE",
"1407.007 222.577 OFFCURVE",
"1397.219 224.031 OFFCURVE",
"1390.046 224.612 CURVE",
"1384.324 196.334 OFFCURVE",
"1437 206.272 OFFCURVE",
"1437 171 CURVE SMOOTH",
"1437 137 OFFCURVE",
"1411.333 98.333 OFFCURVE",
"1360 55 CURVE SMOOTH",
"1265.333 -23.667 OFFCURVE",
"1096 -90 OFFCURVE",
"960 -90 CURVE SMOOTH",
"892 -90 OFFCURVE",
"837.333 -81 OFFCURVE",
"796 -63 CURVE SMOOTH",
"718 -28.333 OFFCURVE",
"679 30 OFFCURVE",
"679 112 CURVE SMOOTH",
"679 175.333 OFFCURVE",
"704.667 230.667 OFFCURVE",
"756 278 CURVE SMOOTH",
"805.333 324 OFFCURVE",
"877 347 OFFCURVE",
"971 347 CURVE SMOOTH",
"1086 346 LINE SMOOTH",
"1112 346 OFFCURVE",
"1126.333 352 OFFCURVE",
"1129 364 CURVE",
"1133.207 403.965 OFFCURVE",
"1052.257 411.212 OFFCURVE",
"983 431 CURVE SMOOTH",
"936.333 444.333 OFFCURVE",
"894.667 476 OFFCURVE",
"888 524 CURVE",
"904 547 LINE SMOOTH",
"918.667 571 OFFCURVE",
"895.667 572.667 OFFCURVE",
"889 558 CURVE",
"888 557 LINE",
"897.333 643.667 OFFCURVE",
"996 723.167 OFFCURVE",
"1100 754.5 CURVE SMOOTH",
"1157.07 768.947 OFFCURVE",
"1227.038 770.853 OFFCURVE",
"1273.799 770.258 CURVE",
"1354.6 737.962 OFFCURVE",
"1395 712.543 OFFCURVE",
"1395 694 CURVE SMOOTH",
"1395 674 OFFCURVE",
"1390 653.667 OFFCURVE",
"1380 633 CURVE SMOOTH",
"1360 591.667 OFFCURVE",
"1317.333 559 OFFCURVE",
"1280 555 CURVE SMOOTH",
"1266 553 LINE",
"1248.667 548.333 OFFCURVE",
"1240.667 543 OFFCURVE",
"1242 537 CURVE SMOOTH",
"1242.667 533.667 OFFCURVE",
"1246.833 532 OFFCURVE",
"1254.5 532 CURVE SMOOTH",
"1262.167 532 OFFCURVE",
"1272.333 533.333 OFFCURVE",
"1285 536 CURVE SMOOTH",
"1387.667 558.667 OFFCURVE",
"1460 623.667 OFFCURVE",
"1460 685 CURVE SMOOTH",
"1460 735.667 OFFCURVE",
"1403.667 788.667 OFFCURVE",
"1285 802 CURVE SMOOTH",
"1270.333 803.333 OFFCURVE",
"1255 804 OFFCURVE",
"1239 804 CURVE SMOOTH",
"1145.667 804 OFFCURVE",
"1005 775 OFFCURVE",
"893 683 CURVE SMOOTH",
"837 637 OFFCURVE",
"809 585.333 OFFCURVE",
"809 528 CURVE SMOOTH",
"809 510.667 OFFCURVE",
"814 494.667 OFFCURVE",
"824 480 CURVE",
"804.667 464.667 OFFCURVE",
"783 448.667 OFFCURVE",
"759 432 CURVE",
"759 452 LINE SMOOTH",
"759 658.667 OFFCURVE",
"612 774 OFFCURVE",
"412 774 CURVE SMOOTH",
"312 774 OFFCURVE",
"225.333 745.333 OFFCURVE",
"152 688 CURVE SMOOTH",
"83.333 634 OFFCURVE",
"49 567 OFFCURVE",
"49 487 CURVE SMOOTH",
"49 477 OFFCURVE",
"49.667 467 OFFCURVE",
"51 457 CURVE SMOOTH",
"55.667 404.333 OFFCURVE",
"81.333 362.333 OFFCURVE",
"128 331 CURVE",
"108.667 278.333 OFFCURVE",
"99 225.5 OFFCURVE",
"99 172.5 CURVE SMOOTH",
"99 119.5 OFFCURVE",
"112 71.333 OFFCURVE",
"138 28 CURVE SMOOTH",
"162 -10.667 OFFCURVE",
"193 -36 OFFCURVE",
"231 -48 CURVE SMOOTH",
"259 -57.333 OFFCURVE",
"289.167 -62 OFFCURVE",
"321.5 -62 CURVE SMOOTH",
"353.833 -62 OFFCURVE",
"388 -54.667 OFFCURVE",
"424 -40 CURVE SMOOTH",
"490 -14 OFFCURVE",
"550.333 27.667 OFFCURVE",
"605 85 CURVE",
"623.667 -29.667 OFFCURVE",
"747.167 -114 OFFCURVE",
"934.5 -114 CURVE SMOOTH"
);
},
{
closed = 1;
nodes = (
"294.333 -38 OFFCURVE",
"263.333 -30.667 OFFCURVE",
"234 -16 CURVE SMOOTH",
"178.667 11.333 OFFCURVE",
"151 71 OFFCURVE",
"151 163 CURVE SMOOTH",
"151 202.333 OFFCURVE",
"161.333 249 OFFCURVE",
"182 303 CURVE",
"227.333 285 OFFCURVE",
"280 276 OFFCURVE",
"340 276 CURVE SMOOTH",
"463.333 276 OFFCURVE",
"580.667 305.667 OFFCURVE",
"692 365 CURVE",
"688 334.333 OFFCURVE",
"678.333 301.667 OFFCURVE",
"663 267 CURVE",
"635.667 235.667 OFFCURVE",
"617 200 OFFCURVE",
"607 160 CURVE",
"557 84 OFFCURVE",
"498 28 OFFCURVE",
"430 -8 CURVE SMOOTH",
"394 -28 OFFCURVE",
"359.667 -38 OFFCURVE",
"327 -38 CURVE SMOOTH"
);
},
{
closed = 1;
nodes = (
"289.333 309 OFFCURVE",
"239 318.667 OFFCURVE",
"197 338 CURVE",
"224.333 398.667 OFFCURVE",
"267.667 462.667 OFFCURVE",
"327 530 CURVE SMOOTH",
"387 598 OFFCURVE",
"452.167 629 OFFCURVE",
"483.5 629 CURVE SMOOTH",
"515.659 629 OFFCURVE",
"538.099 617.205 OFFCURVE",
"536.5 630 CURVE SMOOTH",
"536.167 632.667 OFFCURVE",
"533.667 635.333 OFFCURVE",
"529 638 CURVE SMOOTH",
"508.333 650.667 OFFCURVE",
"490.167 657 OFFCURVE",
"474.5 657 CURVE SMOOTH",
"458.833 657 OFFCURVE",
"446 656 OFFCURVE",
"436 654 CURVE SMOOTH",
"374.667 640 OFFCURVE",
"316.333 602 OFFCURVE",
"261 540 CURVE SMOOTH",
"210.333 483.333 OFFCURVE",
"172 427.333 OFFCURVE",
"146 372 CURVE",
"117.333 396.667 OFFCURVE",
"103 435.333 OFFCURVE",
"103 488 CURVE SMOOTH",
"103 548.667 OFFCURVE",
"124.667 603 OFFCURVE",
"168 651 CURVE SMOOTH",
"219.333 706.333 OFFCURVE",
"285.667 740 OFFCURVE",
"367 752 CURVE SMOOTH",
"386.333 755.333 OFFCURVE",
"405.333 757 OFFCURVE",
"424 757 CURVE SMOOTH",
"488 757 OFFCURVE",
"544 739 OFFCURVE",
"592 703 CURVE SMOOTH",
"664 649 OFFCURVE",
"700 565.667 OFFCURVE",
"700 453 CURVE SMOOTH",
"700 435.667 OFFCURVE",
"699.333 418 OFFCURVE",
"698 400 CURVE",
"615.333 355.333 OFFCURVE",
"526.333 326.667 OFFCURVE",
"431 314 CURVE SMOOTH",
"401.667 310.667 OFFCURVE",
"374 309 OFFCURVE",
"348 309 CURVE SMOOTH"
);
},
{
closed = 1;
nodes = (
"750.667 356.333 OFFCURVE",
"754.333 377.667 OFFCURVE",
"755 397 CURVE",
"787 417 OFFCURVE",
"814.333 439 OFFCURVE",
"837 463 CURVE",
"863 433.667 OFFCURVE",
"900 410.667 OFFCURVE",
"948 394 CURVE",
"875.333 390 OFFCURVE",
"807.333 369.667 OFFCURVE",
"744 333 CURVE"
);
},
{
closed = 1;
nodes = (
"1390.5 226.5 LINE",
"1372.742 223.89 OFFCURVE",
"1377.202 225.652 OFFCURVE",
"1390.046 224.612 CURVE"
);
}
);
width = 1493;
}
);
note = OE;
unicode = 0152;
},
{
glyphname = P;
lastChange = "2020-12-24 01:01:08 +0000";
layers = (
{
layerId = "1691882E-B915-4755-A5B2-757873D945FF";
paths = (
{
closed = 1;
nodes = (
"393 -39 OFFCURVE",
"476 -4 OFFCURVE",
"551 67 CURVE SMOOTH",
"602 117 OFFCURVE",
"652 178 OFFCURVE",
"701 249 CURVE",
"793 248 OFFCURVE",
"856 256 OFFCURVE",
"925 273 CURVE SMOOTH",
"1062 307 OFFCURVE",
"1231 432 OFFCURVE",
"1231 553 CURVE SMOOTH",
"1231 612 OFFCURVE",
"1196 663 OFFCURVE",
"1125 705 CURVE SMOOTH",
"1090 726 OFFCURVE",
"1052 742 OFFCURVE",
"1009 753 CURVE",
"1043 787 OFFCURVE",
"1088 810 OFFCURVE",
"1067 810 CURVE SMOOTH",
"1057 810 OFFCURVE",
"1016 799 OFFCURVE",
"969 763 CURVE",
"812 796 OFFCURVE",
"598 786 OFFCURVE",
"407 710 CURVE SMOOTH",
"300 666 OFFCURVE",
"203 594 OFFCURVE",
"203 478 CURVE SMOOTH",
"203 394 OFFCURVE",
"266 335 OFFCURVE",
"357 335 CURVE SMOOTH",
"437 335 OFFCURVE",
"516 388 OFFCURVE",
"517 475 CURVE SMOOTH",
"516 495 OFFCURVE",
"506 496 OFFCURVE",
"503 476 CURVE SMOOTH",
"492 405 OFFCURVE",
"415 355 OFFCURVE",
"355 355 CURVE SMOOTH",
"293 355 OFFCURVE",
"253 410 OFFCURVE",
"253 461 CURVE SMOOTH",
"253 581 OFFCURVE",
"388 662 OFFCURVE",
"506 703 CURVE SMOOTH",
"649 752 OFFCURVE",
"809 756 OFFCURVE",
"942 738 CURVE",
"933 729 OFFCURVE",
"922 715 OFFCURVE",
"907 700 CURVE SMOOTH",
"889 682 LINE SMOOTH",
"808 601 OFFCURVE",
"734 463 OFFCURVE",
"685 366 CURVE SMOOTH",
"621 236 OFFCURVE",
"563 146 OFFCURVE",
"512 96 CURVE SMOOTH",
"440 27 OFFCURVE",
"367 -8 OFFCURVE",
"292 -8 CURVE SMOOTH",
"234 -8 OFFCURVE",
"197 22 OFFCURVE",
"197 68 CURVE SMOOTH",
"197 156 OFFCURVE",
"324 98 OFFCURVE",
"359 133 CURVE SMOOTH",
"363 137 OFFCURVE",
"358 142 OFFCURVE",
"347 146 CURVE SMOOTH",
"316 156 OFFCURVE",
"287 161 OFFCURVE",
"259 161 CURVE SMOOTH",
"186 161 OFFCURVE",
"135 112 OFFCURVE",
"135 72 CURVE SMOOTH",
"135 -7 OFFCURVE",
"204 -39 OFFCURVE",
"302 -39 CURVE SMOOTH"
);
},
{
closed = 1;
nodes = (
"742 312 OFFCURVE",
"786 386 OFFCURVE",
"845 492 CURVE SMOOTH",
"904 598 OFFCURVE",
"953 677 OFFCURVE",
"990 729 CURVE",
"1108 701 OFFCURVE",
"1167 648 OFFCURVE",
"1167 570 CURVE SMOOTH",
"1167 501 OFFCURVE",
"1124 435 OFFCURVE",
"1039 370 CURVE SMOOTH",
"951 305 OFFCURVE",
"826 270 OFFCURVE",
"729 270 CURVE SMOOTH",
"715 270 LINE"
);
}
);
width = 1213;
}
);
note = P;
unicode = 0050;
},
{
glyphname = Thorn;
lastChange = "2020-12-20 20:29:42 +0000";
layers = (
{
layerId = "1691882E-B915-4755-A5B2-757873D945FF";
paths = (
{
closed = 1;
nodes = (
"63.443 3 OFFCURVE",
"74.978 0.021 OFFCURVE",
"92.5 13 CURVE SMOOTH",
"101.5 19.667 OFFCURVE",
"111.333 33.667 OFFCURVE",
"122 55 CURVE SMOOTH",
"197 208 LINE",
"204.333 207.333 OFFCURVE",
"211.667 207 OFFCURVE",
"219 207 CURVE SMOOTH",
"359.398 207 OFFCURVE",
"476.796 256.749 OFFCURVE",
"539 333 CURVE SMOOTH",
"569.667 371 OFFCURVE",
"585 408.667 OFFCURVE",
"585 446 CURVE SMOOTH",
"585 460 OFFCURVE",
"579.333 477 OFFCURVE",
"568 497 CURVE SMOOTH",
"534.667 555.667 OFFCURVE",
"455 599.333 OFFCURVE",
"367 614 CURVE",
"421 750 LINE",
"427 768.667 OFFCURVE",
"430 784.333 OFFCURVE",
"430 797 CURVE SMOOTH",
"430 809.667 OFFCURVE",
"423 822.333 OFFCURVE",
"409 835 CURVE SMOOTH",
"406.333 837.667 OFFCURVE",
"399.667 839.833 OFFCURVE",
"389 841.5 CURVE SMOOTH",
"378.333 843.167 OFFCURVE",
"371.667 846 OFFCURVE",
"369 850 CURVE",
"370.333 798 OFFCURVE",
"304.667 555 OFFCURVE",
"206 347 CURVE SMOOTH",
"162 255 OFFCURVE",
"35 30.667 OFFCURVE",
"11 8 CURVE",
"16.333 8.667 OFFCURVE",
"24.167 8 OFFCURVE",
"34.5 6 CURVE SMOOTH",
"44.833 4 OFFCURVE",
"51.167 3 OFFCURVE",
"53.5 3 CURVE SMOOTH"
);
},
{
closed = 1;
nodes = (
"238 293 LINE",
"248.667 308.333 OFFCURVE",
"272.667 363.667 OFFCURVE",
"310 459 CURVE SMOOTH",
"360 595 LINE",
"406 584.333 OFFCURVE",
"441 572.333 OFFCURVE",
"465 559 CURVE SMOOTH",
"509 532.333 OFFCURVE",
"531 493.333 OFFCURVE",
"531 442 CURVE SMOOTH",
"531 344.126 OFFCURVE",
"414.507 233.279 OFFCURVE",
"206 228 CURVE"
);
}
);
width = 336;
}
);
note = Thorn;
unicode = 00DE;
},
{
glyphname = Q;
lastChange = "2020-12-23 22:37:58 +0000";
layers = (
{
components = (
{
name = O;
}
);
layerId = "1691882E-B915-4755-A5B2-757873D945FF";
paths = (
{
closed = 1;
nodes = (
"762 -369 OFFCURVE",
"839 -337 OFFCURVE",
"839 -258.5 CURVE SMOOTH",
"839 -189 OFFCURVE",
"739 -123 OFFCURVE",
"644 -108 CURVE SMOOTH",
"635.333 -106.667 OFFCURVE",
"631 -109 OFFCURVE",
"631 -115 CURVE SMOOTH",
"631 -121.667 OFFCURVE",
"636.333 -125.667 OFFCURVE",
"647 -127 CURVE SMOOTH",
"730 -141 OFFCURVE",
"811 -208 OFFCURVE",
"811 -266.5 CURVE SMOOTH",
"811 -319 OFFCURVE",
"773 -345 OFFCURVE",
"718 -345 CURVE SMOOTH",
"702 -345 OFFCURVE",
"684.333 -343 OFFCURVE",
"665 -339 CURVE SMOOTH",
"500 -307 OFFCURVE",
"402 -227 OFFCURVE",
"298 -142 CURVE SMOOTH",
"230.667 -88 OFFCURVE",
"168.333 -61 OFFCURVE",
"111 -61 CURVE SMOOTH",
"69.667 -61 OFFCURVE",
"29 -104.5 OFFCURVE",
"29 -130.5 CURVE SMOOTH",
"29 -143.5 OFFCURVE",
"31.667 -150 OFFCURVE",
"37 -150 CURVE SMOOTH",
"48.225 -151.604 OFFCURVE",
"47 -118 OFFCURVE",
"69 -105 CURVE SMOOTH",
"83 -96 OFFCURVE",
"97 -91 OFFCURVE",
"111 -91 CURVE SMOOTH",
"149.667 -91 OFFCURVE",
"188.667 -109.333 OFFCURVE",
"228 -146 CURVE SMOOTH",
"328.333 -246.667 OFFCURVE",
"376.667 -284.667 OFFCURVE",
"428 -314 CURVE SMOOTH",
"492.667 -350.667 OFFCURVE",
"569.167 -369 OFFCURVE",
"657.5 -369 CURVE SMOOTH"
);
}
);
width = 752;
}
);
note = Q;
unicode = 0051;
},
{
glyphname = R;
lastChange = "2020-12-23 22:43:45 +0000";
layers = (
{
layerId = "1691882E-B915-4755-A5B2-757873D945FF";
paths = (
{
closed = 1;
nodes = (
"928.5 -41 OFFCURVE",
"963 -24.667 OFFCURVE",
"993 8 CURVE SMOOTH",
"1023 40.667 OFFCURVE",
"1057.333 100.333 OFFCURVE",
"1096 187 CURVE SMOOTH",
"1100.667 197 OFFCURVE",
"1100.333 202 OFFCURVE",
"1095 202 CURVE SMOOTH",
"1089.667 202 OFFCURVE",
"1084.333 197 OFFCURVE",
"1079 187 CURVE SMOOTH",
"1043.667 116.333 OFFCURVE",
"1012.5 67.667 OFFCURVE",
"985.5 41 CURVE SMOOTH",
"958.5 14.333 OFFCURVE",
"933 1 OFFCURVE",
"909 1 CURVE SMOOTH",
"874.333 1 OFFCURVE",
"847 24.333 OFFCURVE",
"811 79 CURVE SMOOTH",
"758.333 159.667 OFFCURVE",
"721.333 259 OFFCURVE",
"700 377 CURVE",
"806 381 OFFCURVE",
"938 405 OFFCURVE",
"1038 482 CURVE SMOOTH",
"1086.667 520.667 OFFCURVE",
"1111 559.667 OFFCURVE",
"1111 599 CURVE SMOOTH",
"1111 696 OFFCURVE",
"950 746 OFFCURVE",
"862 754 CURVE",
"866 764 OFFCURVE",
"872 787 OFFCURVE",
"861 787 CURVE SMOOTH",
"854 787 OFFCURVE",
"842 778 OFFCURVE",
"825 759 CURVE",
"700 776 OFFCURVE",
"570 772 OFFCURVE",
"444 754 CURVE SMOOTH",
"234.667 723.333 OFFCURVE",
"94 607 OFFCURVE",
"94 475 CURVE SMOOTH",
"94 385.667 OFFCURVE",
"161.333 328 OFFCURVE",
"240 328 CURVE SMOOTH",
"292 328 OFFCURVE",
"336.667 347.333 OFFCURVE",
"374 386 CURVE SMOOTH",
"395.333 408 OFFCURVE",
"408.333 435 OFFCURVE",
"413 467 CURVE SMOOTH",
"413.667 477 OFFCURVE",
"411.333 482 OFFCURVE",
"406 482 CURVE SMOOTH",
"402.667 482 OFFCURVE",
"400.667 477.667 OFFCURVE",
"400 469 CURVE SMOOTH",
"397.333 434.333 OFFCURVE",
"336.667 355 OFFCURVE",
"254 355 CURVE SMOOTH",
"186 355 OFFCURVE",
"143 406 OFFCURVE",
"143 462 CURVE SMOOTH",
"143 520 OFFCURVE",
"174 574.667 OFFCURVE",
"236 626 CURVE SMOOTH",
"376 742 OFFCURVE",
"663 747 OFFCURVE",
"803 735 CURVE",
"767.667 696.333 OFFCURVE",
"729 641 OFFCURVE",
"686 568 CURVE SMOOTH",
"652 509 OFFCURVE",
"626 460 OFFCURVE",
"545 316 CURVE SMOOTH",
"520 273 OFFCURVE",
"490.667 226 OFFCURVE",
"456 176 CURVE SMOOTH",
"412 110.667 OFFCURVE",
"377 78.333 OFFCURVE",
"329 41 CURVE SMOOTH",
"287 8.333 OFFCURVE",
"238.667 -8 OFFCURVE",
"184 -8 CURVE SMOOTH",
"122 -8 OFFCURVE",
"85 25 OFFCURVE",
"85 70 CURVE SMOOTH",
"85 106 OFFCURVE",
"121.167 147 OFFCURVE",
"164.5 147 CURVE SMOOTH",
"204.603 147 OFFCURVE",
"239.832 122.664 OFFCURVE",
"246 135 CURVE SMOOTH",
"248 139 OFFCURVE",
"244.667 142.667 OFFCURVE",
"236 146 CURVE SMOOTH",
"203.333 157.333 OFFCURVE",
"172.333 163 OFFCURVE",
"143 163 CURVE SMOOTH",
"74 163 OFFCURVE",
"18 118 OFFCURVE",
"18 73.5 CURVE SMOOTH",
"18 -4 OFFCURVE",
"93 -39 OFFCURVE",
"194 -39 CURVE SMOOTH",
"293.333 -39 OFFCURVE",
"382.333 3.333 OFFCURVE",
"461 88 CURVE SMOOTH",
"539 175 OFFCURVE",
"585 261 OFFCURVE",
"637 365 CURVE",
"655.667 254.333 OFFCURVE",
"705 90.833 OFFCURVE",
"777 15.5 CURVE SMOOTH",
"813 -22.167 OFFCURVE",
"850.5 -41 OFFCURVE",
"889.5 -41 CURVE SMOOTH"
);
},
{
closed = 1;
nodes = (
"680.667 447.667 OFFCURVE",
"715.333 508 OFFCURVE",
"762 584 CURVE SMOOTH",
"808.667 660 OFFCURVE",
"838 708.333 OFFCURVE",
"850 729 CURVE",
"919 718 OFFCURVE",
"1043 684 OFFCURVE",
"1043 614 CURVE SMOOTH",
"1043 579 OFFCURVE",
"1018.667 542.333 OFFCURVE",
"978 505 CURVE SMOOTH",
"925 455 OFFCURVE",
"823 409 OFFCURVE",
"658 403 CURVE"
);
}
);
width = 1024;
}
);
note = R;
unicode = 0052;
},
{
glyphname = S;
lastChange = "2020-12-23 22:48:30 +0000";
layers = (
{
layerId = "1691882E-B915-4755-A5B2-757873D945FF";
paths = (
{
closed = 1;
nodes = (
"158 -40 OFFCURVE",
"328 -69 CURVE SMOOTH",
"458 -92 OFFCURVE",
"595 -57 OFFCURVE",
"668 -13 CURVE SMOOTH",
"763 44 OFFCURVE",
"871 148 OFFCURVE",
"871 249 CURVE SMOOTH",
"871 295.667 OFFCURVE",
"845.667 354 OFFCURVE",
"767 402 CURVE SMOOTH",
"708 438 OFFCURVE",
"575 493 OFFCURVE",
"531 520 CURVE SMOOTH",
"481 551.333 OFFCURVE",
"456 586.667 OFFCURVE",
"456 626 CURVE SMOOTH",
"456 655.333 OFFCURVE",
"473 684.667 OFFCURVE",
"507 714 CURVE SMOOTH",
"568 766 OFFCURVE",
"676 789 OFFCURVE",
"742 789 CURVE SMOOTH",
"796 789 OFFCURVE",
"838.333 774.333 OFFCURVE",
"869 745 CURVE SMOOTH",
"890.333 724.333 OFFCURVE",
"902 702 OFFCURVE",
"901 679 CURVE SMOOTH",
"900 658 OFFCURVE",
"891 642 OFFCURVE",
"873 630 CURVE SMOOTH",
"849 613 OFFCURVE",
"813 603 OFFCURVE",
"814 594 CURVE SMOOTH",
"814 588 OFFCURVE",
"822 586.667 OFFCURVE",
"834 590 CURVE SMOOTH",
"862 598 OFFCURVE",
"884.333 608.667 OFFCURVE",
"901 622 CURVE SMOOTH",
"925 642.667 OFFCURVE",
"937 666 OFFCURVE",
"937 692 CURVE SMOOTH",
"937 761 OFFCURVE",
"839 814 OFFCURVE",
"731 814 CURVE SMOOTH",
"610.333 814 OFFCURVE",
"517 786 OFFCURVE",
"451 730 CURVE SMOOTH",
"405 690.667 OFFCURVE",
"382 650.333 OFFCURVE",
"382 609 CURVE SMOOTH",
"382 561.667 OFFCURVE",
"407.667 520.667 OFFCURVE",
"459 486 CURVE SMOOTH",
"514 450 OFFCURVE",
"678 391 OFFCURVE",
"730 350 CURVE SMOOTH",
"770.667 315.333 OFFCURVE",
"791 275.333 OFFCURVE",
"791 230 CURVE SMOOTH",
"791 144 OFFCURVE",
"723 49 OFFCURVE",
"612 -8 CURVE SMOOTH",
"568 -31 OFFCURVE",
"444 -60 OFFCURVE",
"326 -38 CURVE SMOOTH",
"187 -12 OFFCURVE",
"68 73 OFFCURVE",
"55 158 CURVE SMOOTH",
"41 248 OFFCURVE",
"93 355 OFFCURVE",
"180 424 CURVE SMOOTH",
"206.667 446.667 OFFCURVE",
"190 447 OFFCURVE",
"170 439 CURVE SMOOTH",
"74 393.667 OFFCURVE",
"-12 264 OFFCURVE",
"-1 173 CURVE SMOOTH",
"12 67 OFFCURVE"
);
}
);
width = 901;
}
);
note = S;
unicode = 0053;
},
{
glyphname = T;
lastChange = "2020-12-23 22:50:18 +0000";
layers = (
{
layerId = "1691882E-B915-4755-A5B2-757873D945FF";
paths = (
{
closed = 1;
nodes = (
"497.333 -94 OFFCURVE",
"587 -73.333 OFFCURVE",
"663 -32 CURVE SMOOTH",
"779.354 32.195 OFFCURVE",
"851.731 156.191 OFFCURVE",
"908 324 CURVE SMOOTH",
"945.333 448 OFFCURVE",
"987.667 547.333 OFFCURVE",
"1035 622 CURVE",
"1105 592 OFFCURVE",
"1189 570.667 OFFCURVE",
"1287 558 CURVE SMOOTH",
"1333 551 OFFCURVE",
"1400 564 OFFCURVE",
"1400 606.5 CURVE SMOOTH",
"1400 622.833 OFFCURVE",
"1396.5 631 OFFCURVE",
"1389.5 631 CURVE SMOOTH",
"1382.5 631 OFFCURVE",
"1379 626 OFFCURVE",
"1379 616 CURVE SMOOTH",
"1379 596 OFFCURVE",
"1358.333 586 OFFCURVE",
"1317 586 CURVE SMOOTH",
"1275.667 586 OFFCURVE",
"1175.333 603 OFFCURVE",
"1050 643 CURVE",
"1062 657.667 OFFCURVE",
"1093 687 OFFCURVE",
"1102 683 CURVE SMOOTH",
"1107 681 OFFCURVE",
"1111.667 681.333 OFFCURVE",
"1115 682 CURVE SMOOTH",
"1129.142 686.714 OFFCURVE",
"1125 720 OFFCURVE",
"1095 712 CURVE SMOOTH",
"1080 708 OFFCURVE",
"1054.667 691 OFFCURVE",
"1022 651 CURVE",
"892 696 OFFCURVE",
"780 740 OFFCURVE",
"643 740 CURVE SMOOTH",
"565 740 OFFCURVE",
"443 717 OFFCURVE",
"375 612 CURVE SMOOTH",
"350.333 574 OFFCURVE",
"338 535 OFFCURVE",
"338 495 CURVE SMOOTH",
"338 440 OFFCURVE",
"361 364 OFFCURVE",
"449 333 CURVE SMOOTH",
"488 319 OFFCURVE",
"536 316 OFFCURVE",
"591 348 CURVE SMOOTH",
"637 374 OFFCURVE",
"663.333 413 OFFCURVE",
"670 465 CURVE",
"670 478.333 OFFCURVE",
"661 482 OFFCURVE",
"650 473 CURVE",
"650 471 LINE SMOOTH",
"655.439 438.369 OFFCURVE",
"607.547 374.362 OFFCURVE",
"551.5 358.5 CURVE SMOOTH",
"518 349 OFFCURVE",
"493 349 OFFCURVE",
"459 358 CURVE SMOOTH",
"357 390 OFFCURVE",
"369 517 OFFCURVE",
"459 603 CURVE SMOOTH",
"517.667 659.667 OFFCURVE",
"594 688 OFFCURVE",
"688 688 CURVE SMOOTH",
"782 688 OFFCURVE",
"888 669.333 OFFCURVE",
"1006 632 CURVE",
"996.667 619.333 OFFCURVE",
"975.333 576.333 OFFCURVE",
"942 503 CURVE SMOOTH",
"844.667 289.667 OFFCURVE",
"768 152.667 OFFCURVE",
"712 92 CURVE SMOOTH",
"623.333 -4.667 OFFCURVE",
"510 -54.667 OFFCURVE",
"372 -58 CURVE SMOOTH",
"367 -58 LINE SMOOTH",
"291 -58 OFFCURVE",
"211.333 -30.667 OFFCURVE",
"150 20 CURVE SMOOTH",
"92.667 65.333 OFFCURVE",
"64 130 OFFCURVE",
"64 214 CURVE SMOOTH",
"64 251 OFFCURVE",
"73 284 OFFCURVE",
"90 313 CURVE SMOOTH",
"119 363 OFFCURVE",
"145 364 OFFCURVE",
"172 392 CURVE",
"173.333 403.333 OFFCURVE",
"168 409 OFFCURVE",
"156 409 CURVE SMOOTH",
"148.667 409 OFFCURVE",
"137.667 404.667 OFFCURVE",
"123 396 CURVE SMOOTH",
"51 353.333 OFFCURVE",
"30 251.167 OFFCURVE",
"30 206.5 CURVE SMOOTH",
"30 184.167 OFFCURVE",
"30.667 167.333 OFFCURVE",
"32 156 CURVE SMOOTH",
"44 71.333 OFFCURVE",
"86 8.667 OFFCURVE",
"158 -32 CURVE SMOOTH",
"231.333 -73.333 OFFCURVE",
"310 -94 OFFCURVE",
"394 -94 CURVE SMOOTH"
);
}
);
width = 918;
}
);
note = T;
unicode = 0054;
},
{
glyphname = U;
lastChange = "2020-12-24 07:46:46 +0000";
layers = (
{
anchors = (
{
name = top;
position = "{934, 702}";
}
);
layerId = "1691882E-B915-4755-A5B2-757873D945FF";
paths = (
{
closed = 1;
nodes = (
"910 -85 LINE",
"924.667 -83 OFFCURVE",
"932 -78 OFFCURVE",
"932 -70 CURVE SMOOTH",
"932 -64.667 OFFCURVE",
"926 -62 OFFCURVE",
"903 -62 CURVE SMOOTH",
"878.333 -62 OFFCURVE",
"866 -39 OFFCURVE",
"866 7 CURVE SMOOTH",
"866 29.667 OFFCURVE",
"868.333 55 OFFCURVE",
"873 83 CURVE SMOOTH",
"890.333 185.667 OFFCURVE",
"926.667 286.667 OFFCURVE",
"982 386 CURVE SMOOTH",
"998.667 415.333 OFFCURVE",
"1007 437.667 OFFCURVE",
"1007 453 CURVE SMOOTH",
"1007 465.667 OFFCURVE",
"1002 482 OFFCURVE",
"987 482 CURVE SMOOTH",
"969.667 482 OFFCURVE",
"949 465 OFFCURVE",
"931 429 CURVE SMOOTH",
"866.5 301.5 LINE SMOOTH",
"810 189 OFFCURVE",
"705 -20 OFFCURVE",
"595 -20 CURVE SMOOTH",
"557.667 -20 OFFCURVE",
"539 8 OFFCURVE",
"539 64 CURVE SMOOTH",
"539 124 OFFCURVE",
"568.833 219.5 OFFCURVE",
"609.5 305.5 CURVE SMOOTH",
"629.833 348.5 OFFCURVE",
"651 396 OFFCURVE",
"673 448 CURVE SMOOTH",
"711 536 OFFCURVE",
"730 609.667 OFFCURVE",
"730 669 CURVE SMOOTH",
"730 748.333 OFFCURVE",
"697.667 802 OFFCURVE",
"633 830 CURVE SMOOTH",
"529 873 OFFCURVE",
"406 841 OFFCURVE",
"307 786 CURVE SMOOTH",
"146 697 OFFCURVE",
"-3 545 OFFCURVE",
"-3 362.5 CURVE SMOOTH",
"-3 232 OFFCURVE",
"71 134 OFFCURVE",
"189 134 CURVE SMOOTH",
"295 134 OFFCURVE",
"407 222 OFFCURVE",
"449 332 CURVE SMOOTH",
"460.333 362.667 OFFCURVE",
"466 389.333 OFFCURVE",
"466 412 CURVE SMOOTH",
"466 462 OFFCURVE",
"442 506 OFFCURVE",
"390 506 CURVE SMOOTH",
"354 506 OFFCURVE",
"301 485 OFFCURVE",
"306 474 CURVE SMOOTH",
"311 462 OFFCURVE",
"352 479 OFFCURVE",
"369 479 CURVE SMOOTH",
"414.333 479 OFFCURVE",
"437 454 OFFCURVE",
"437 404 CURVE SMOOTH",
"437 370 OFFCURVE",
"423.667 331 OFFCURVE",
"397 287 CURVE SMOOTH",
"348.333 204.333 OFFCURVE",
"271 163 OFFCURVE",
"202 163 CURVE SMOOTH",
"87 163 OFFCURVE",
"37 265 OFFCURVE",
"37 365.5 CURVE SMOOTH",
"37 506 OFFCURVE",
"145 659 OFFCURVE",
"305 753 CURVE SMOOTH",
"407 812 OFFCURVE",
"541 847 OFFCURVE",
"618 810 CURVE SMOOTH",
"654 792 OFFCURVE",
"677 758 OFFCURVE",
"677 702 CURVE SMOOTH",
"677 636.667 OFFCURVE",
"663.167 566.667 OFFCURVE",
"594.5 416 CURVE SMOOTH",
"560.167 340.667 OFFCURVE",
"532.667 273.5 OFFCURVE",
"512 214.5 CURVE SMOOTH",
"469 92 OFFCURVE",
"465 -46 OFFCURVE",
"576 -46 CURVE SMOOTH",
"685 -46 OFFCURVE",
"783 86 OFFCURVE",
"839 179 CURVE",
"830.333 137.667 OFFCURVE",
"826 98 OFFCURVE",
"826 60 CURVE SMOOTH",
"826 33 OFFCURVE",
"823 -11 OFFCURVE",
"847 -50 CURVE SMOOTH",
"859 -69 OFFCURVE",
"876 -81 OFFCURVE",
"898 -85 CURVE"
);
}
);
width = 942;
}
);
note = U;
unicode = 0055;
},
{
glyphname = V;
lastChange = "2020-12-23 22:56:59 +0000";
layers = (
{
layerId = "1691882E-B915-4755-A5B2-757873D945FF";
paths = (
{
closed = 1;
nodes = (
"502 -88 OFFCURVE",
"533 -94 CURVE SMOOTH",
"618 -110 OFFCURVE",
"791 25 OFFCURVE",
"891 148.5 CURVE SMOOTH",
"962 237 OFFCURVE",
"1052 381 OFFCURVE",
"1052 484.5 CURVE SMOOTH",
"1052 511.5 OFFCURVE",
"1045.667 534.667 OFFCURVE",
"1033 554 CURVE SMOOTH",
"1010.333 588.667 OFFCURVE",
"985 616 OFFCURVE",
"953 619 CURVE SMOOTH",
"904.344 616.438 OFFCURVE",
"920 573 OFFCURVE",
"970 588 CURVE SMOOTH",
"980 591 OFFCURVE",
"1000 548.528 OFFCURVE",
"1000 503 CURVE SMOOTH",
"1000 455 OFFCURVE",
"986.667 402.333 OFFCURVE",
"960 345 CURVE SMOOTH",
"918.667 255 OFFCURVE",
"861.667 172.333 OFFCURVE",
"789 97 CURVE SMOOTH",
"685.667 -10.333 OFFCURVE",
"613.333 -64 OFFCURVE",
"572 -64 CURVE SMOOTH",
"551.333 -64 OFFCURVE",
"541 -48.667 OFFCURVE",
"541 -18 CURVE SMOOTH",
"541 22.667 OFFCURVE",
"558.333 95.333 OFFCURVE",
"593 200 CURVE SMOOTH",
"616.333 270.667 OFFCURVE",
"643 336.667 OFFCURVE",
"673 398 CURVE SMOOTH",
"721 496.667 OFFCURVE",
"745 579.333 OFFCURVE",
"745 646 CURVE SMOOTH",
"745 736.667 OFFCURVE",
"712.667 796 OFFCURVE",
"648 824 CURVE SMOOTH",
"611.333 838 OFFCURVE",
"570.667 845 OFFCURVE",
"526 845 CURVE SMOOTH",
"481.333 845 OFFCURVE",
"433.667 835.333 OFFCURVE",
"383 816 CURVE SMOOTH",
"180.73 741.479 OFFCURVE",
"-8 565.772 OFFCURVE",
"-8 365 CURVE SMOOTH",
"-8 248 OFFCURVE",
"79 135 OFFCURVE",
"196.5 135 CURVE SMOOTH",
"285.167 135 OFFCURVE",
"383.5 189.5 OFFCURVE",
"445.5 271.5 CURVE SMOOTH",
"498 341 OFFCURVE",
"515 437 OFFCURVE",
"453 485 CURVE SMOOTH",
"413.503 513.212 OFFCURVE",
"336 501.602 OFFCURVE",
"336 472.5 CURVE SMOOTH",
"336 458 OFFCURVE",
"380 477 OFFCURVE",
"393 477 CURVE SMOOTH",
"418 477 OFFCURVE",
"448 452 OFFCURVE",
"448 392 CURVE SMOOTH",
"448 281.333 OFFCURVE",
"329 161 OFFCURVE",
"217 161 CURVE SMOOTH",
"109 161 OFFCURVE",
"49 244 OFFCURVE",
"49 342 CURVE SMOOTH",
"49 416.667 OFFCURVE",
"82.667 515.833 OFFCURVE",
"152 600.5 CURVE SMOOTH",
"240 708 OFFCURVE",
"405 820 OFFCURVE",
"540 820 CURVE SMOOTH",
"611 820 OFFCURVE",
"677 802 OFFCURVE",
"685 732 CURVE SMOOTH",
"690 699 OFFCURVE",
"686 664 OFFCURVE",
"678 628 CURVE SMOOTH",
"662.667 557.333 OFFCURVE",
"639 484.667 OFFCURVE",
"607 410 CURVE SMOOTH",
"524.333 212.667 OFFCURVE",
"483 73 OFFCURVE",
"483 -9 CURVE SMOOTH",
"483 -62 OFFCURVE"
);
}
);
width = 975;
}
);
note = V;
unicode = 0056;
},
{
glyphname = W;
lastChange = "2020-12-23 23:00:55 +0000";
layers = (
{
layerId = "1691882E-B915-4755-A5B2-757873D945FF";
paths = (
{
closed = 1;
nodes = (
"545 -124 OFFCURVE",
"574.333 -111 OFFCURVE",
"609 -85 CURVE SMOOTH",
"641.667 -60.333 OFFCURVE",
"673.667 -29.333 OFFCURVE",
"705 8 CURVE SMOOTH",
"762.333 78 OFFCURVE",
"809 143 OFFCURVE",
"845 203 CURVE",
"828 148 OFFCURVE",
"818 68 OFFCURVE",
"831 23 CURVE SMOOTH",
"847 -41 OFFCURVE",
"889.667 -73 OFFCURVE",
"959 -73 CURVE SMOOTH",
"1092.333 -73 OFFCURVE",
"1281.667 59.667 OFFCURVE",
"1347 225 CURVE SMOOTH",
"1373 296 OFFCURVE",
"1389 368 OFFCURVE",
"1379 436 CURVE SMOOTH",
"1364 532 OFFCURVE",
"1321 593 OFFCURVE",
"1239 609 CURVE SMOOTH",
"1222 612 OFFCURVE",
"1204 614 OFFCURVE",
"1183.5 613 CURVE SMOOTH",
"1171 613 OFFCURVE",
"1137 600 OFFCURVE",
"1137 588 CURVE SMOOTH",
"1137 584 OFFCURVE",
"1141 582 OFFCURVE",
"1149 582 CURVE SMOOTH",
"1182 582 OFFCURVE",
"1177 590 OFFCURVE",
"1211 590 CURVE SMOOTH",
"1287 590 OFFCURVE",
"1333 535 OFFCURVE",
"1333 427 CURVE SMOOTH",
"1333 373 OFFCURVE",
"1316.667 307.667 OFFCURVE",
"1284 231 CURVE SMOOTH",
"1255.333 163 OFFCURVE",
"1202.333 98.333 OFFCURVE",
"1125 37 CURVE SMOOTH",
"1054.333 -19.667 OFFCURVE",
"995 -48 OFFCURVE",
"947 -48 CURVE SMOOTH",
"895.667 -48 OFFCURVE",
"870 -16.333 OFFCURVE",
"870 47 CURVE SMOOTH",
"870 88.016 OFFCURVE",
"877 127 OFFCURVE",
"926 247.5 CURVE SMOOTH",
"978 375 LINE SMOOTH",
"982 386 OFFCURVE",
"983 397.667 OFFCURVE",
"983 411 CURVE SMOOTH",
"983 424.333 OFFCURVE",
"978.667 433.333 OFFCURVE",
"970 438 CURVE SMOOTH",
"947 447 OFFCURVE",
"925 420 OFFCURVE",
"910 400 CURVE SMOOTH",
"891 373 OFFCURVE",
"858 320.667 OFFCURVE",
"812 242 CURVE SMOOTH",
"720 84.667 OFFCURVE",
"633 -43.333 OFFCURVE",
"561 -86 CURVE SMOOTH",
"549 -94 OFFCURVE",
"538.667 -98 OFFCURVE",
"530 -98 CURVE SMOOTH",
"513.333 -98 OFFCURVE",
"505 -86 OFFCURVE",
"505 -62 CURVE SMOOTH",
"505 -28 OFFCURVE",
"525 45 OFFCURVE",
"565 157 CURVE SMOOTH",
"593 235.667 OFFCURVE",
"622.333 309.333 OFFCURVE",
"653 378 CURVE SMOOTH",
"697.667 479.333 OFFCURVE",
"720 562.667 OFFCURVE",
"720 628 CURVE SMOOTH",
"720 707.333 OFFCURVE",
"688 761 OFFCURVE",
"624 789 CURVE SMOOTH",
"540 821 OFFCURVE",
"449 812 OFFCURVE",
"365 780 CURVE SMOOTH",
"180.174 706.576 OFFCURVE",
"-17 530.184 OFFCURVE",
"-17 324 CURVE SMOOTH",
"-17 274 OFFCURVE",
"0 212 OFFCURVE",
"37 169 CURVE SMOOTH",
"75.667 122.333 OFFCURVE",
"127.667 99 OFFCURVE",
"193 99 CURVE SMOOTH",
"249 99 OFFCURVE",
"313 125 OFFCURVE",
"360 167 CURVE SMOOTH",
"422 223 OFFCURVE",
"460 305 OFFCURVE",
"460 365 CURVE SMOOTH",
"460 417 OFFCURVE",
"432 464 OFFCURVE",
"369 464 CURVE SMOOTH",
"334.333 464 OFFCURVE",
"291.333 450.333 OFFCURVE",
"290 441 CURVE SMOOTH",
"288.253 428.77 OFFCURVE",
"317.064 440 OFFCURVE",
"337 440 CURVE SMOOTH",
"385.667 440 OFFCURVE",
"410 412.667 OFFCURVE",
"410 358 CURVE SMOOTH",
"410 272 OFFCURVE",
"327 125 OFFCURVE",
"191 125 CURVE SMOOTH",
"144.333 125 OFFCURVE",
"108 140 OFFCURVE",
"82 170 CURVE SMOOTH",
"54 203.333 OFFCURVE",
"44 245.5 OFFCURVE",
"44 275.5 CURVE SMOOTH",
"44 507 OFFCURVE",
"293 784 OFFCURVE",
"533 784 CURVE SMOOTH",
"603.667 784 OFFCURVE",
"663 756.333 OFFCURVE",
"663 671 CURVE SMOOTH",
"663 605 OFFCURVE",
"635.667 506 OFFCURVE",
"581 374 CURVE SMOOTH",
"493.667 166.667 OFFCURVE",
"450 29.333 OFFCURVE",
"450 -38 CURVE SMOOTH",
"450 -95.333 OFFCURVE",
"473.667 -124 OFFCURVE",
"521 -124 CURVE SMOOTH"
);
}
);
width = 1344;
}
);
note = W;
unicode = 0057;
},
{
glyphname = X;
lastChange = "2020-12-24 01:02:19 +0000";
layers = (
{
layerId = "1691882E-B915-4755-A5B2-757873D945FF";
paths = (
{
closed = 1;
nodes = (
"85 -220 OFFCURVE",
"105 -203 OFFCURVE",
"126 -169 CURVE SMOOTH",
"230 -6 OFFCURVE",
"412 170 OFFCURVE",
"671 357 CURVE",
"670 283 OFFCURVE",
"669 212 OFFCURVE",
"669 145 CURVE SMOOTH",
"669 78 OFFCURVE",
"671 35 OFFCURVE",
"675 17 CURVE SMOOTH",
"692 -65 OFFCURVE",
"751 -123 OFFCURVE",
"852 -66 CURVE SMOOTH",
"924 -25 OFFCURVE",
"990 58 OFFCURVE",
"1050 184 CURVE SMOOTH",
"1061 207 OFFCURVE",
"1042 209 OFFCURVE",
"1033 189 CURVE SMOOTH",
"1018 154 OFFCURVE",
"1000 121 OFFCURVE",
"981 92 CURVE SMOOTH",
"927 10 OFFCURVE",
"875 -31 OFFCURVE",
"825 -31 CURVE SMOOTH",
"789 -31 OFFCURVE",
"763 -3 OFFCURVE",
"748 53 CURVE SMOOTH",
"737 94 OFFCURVE",
"732 172 OFFCURVE",
"732 287 CURVE SMOOTH",
"732 320 OFFCURVE",
"732 356 OFFCURVE",
"733 395 CURVE",
"866 490 OFFCURVE",
"1026 597 OFFCURVE",
"1147 684 CURVE SMOOTH",
"1223 738 OFFCURVE",
"1277 785 OFFCURVE",
"1277 804 CURVE SMOOTH",
"1277 813 OFFCURVE",
"1269 817 OFFCURVE",
"1254 817 CURVE SMOOTH",
"1252 817 OFFCURVE",
"1248 816 OFFCURVE",
"1243 814 CURVE SMOOTH",
"1233 809 OFFCURVE",
"1233 807 OFFCURVE",
"1212 789 CURVE SMOOTH",
"1181 759 LINE SMOOTH",
"1093 671 OFFCURVE",
"955 588 OFFCURVE",
"732 433 CURVE",
"732 464 OFFCURVE",
"734 529 OFFCURVE",
"725 630 CURVE SMOOTH",
"722 668 OFFCURVE",
"712 704 OFFCURVE",
"693 738 CURVE SMOOTH",
"676 771 OFFCURVE",
"646 788 OFFCURVE",
"605 788 CURVE SMOOTH",
"526 788 OFFCURVE",
"404 715 OFFCURVE",
"339 661 CURVE SMOOTH",
"306 634 OFFCURVE",
"287 615 OFFCURVE",
"281 606 CURVE SMOOTH",
"270 589 OFFCURVE",
"271 578 OFFCURVE",
"286 574 CURVE SMOOTH",
"291 572 OFFCURVE",
"295 572 OFFCURVE",
"297 574 CURVE",
"308 599 OFFCURVE",
"332 625 OFFCURVE",
"369 653 CURVE SMOOTH",
"441 709 OFFCURVE",
"508 737 OFFCURVE",
"571 737 CURVE SMOOTH",
"622 737 OFFCURVE",
"652 711 OFFCURVE",
"660 658 CURVE SMOOTH",
"667 612 OFFCURVE",
"670 561 OFFCURVE",
"670 505 CURVE SMOOTH",
"670 395 LINE",
"405 206 OFFCURVE",
"205 18 OFFCURVE",
"70 -169 CURVE",
"58 -189 LINE SMOOTH",
"53 -197 OFFCURVE",
"51 -204 OFFCURVE",
"51 -209 CURVE SMOOTH",
"51 -216 OFFCURVE",
"56 -220 OFFCURVE",
"65 -220 CURVE SMOOTH"
);
}
);
width = 979;
}
);
note = X;
unicode = 0058;
},
{
glyphname = Y;
lastChange = "2020-12-24 07:47:03 +0000";
layers = (
{
anchors = (
{
name = top;
position = "{971, 704}";
}
);
layerId = "1691882E-B915-4755-A5B2-757873D945FF";
paths = (
{
closed = 1;
nodes = (
"415 -427 OFFCURVE",
"660 -362 OFFCURVE",
"799 -154 CURVE",
"937 -150 OFFCURVE",
"1061 -156 OFFCURVE",
"1106 -87 CURVE SMOOTH",
"1125 -55 OFFCURVE",
"1126 -37 OFFCURVE",
"1115 -17 CURVE SMOOTH",
"1113 -14 OFFCURVE",
"1112 -13 OFFCURVE",
"1110 -14 CURVE SMOOTH",
"1107 -15 OFFCURVE",
"1107 -19 OFFCURVE",
"1108 -28 CURVE",
"1102 -61 OFFCURVE",
"1081 -85 OFFCURVE",
"1046 -102 CURVE SMOOTH",
"989 -128 OFFCURVE",
"867 -127 OFFCURVE",
"814 -128 CURVE",
"882 -7 OFFCURVE",
"956 225 OFFCURVE",
"982 338 CURVE SMOOTH",
"1003 430 OFFCURVE",
"1011 483 OFFCURVE",
"983 483 CURVE SMOOTH",
"966 483 OFFCURVE",
"949 469 OFFCURVE",
"943 449 CURVE SMOOTH",
"911 343 OFFCURVE",
"863 239 OFFCURVE",
"800 138 CURVE SMOOTH",
"754 64 OFFCURVE",
"675 -28 OFFCURVE",
"597 -28 CURVE SMOOTH",
"537 -28 OFFCURVE",
"533 35 OFFCURVE",
"542 79 CURVE SMOOTH",
"560 160 OFFCURVE",
"612 274 OFFCURVE",
"698 421 CURVE SMOOTH",
"753 513 OFFCURVE",
"781 597 OFFCURVE",
"781 672 CURVE SMOOTH",
"781 732 OFFCURVE",
"755 790 OFFCURVE",
"684 822 CURVE SMOOTH",
"603 853 OFFCURVE",
"512 847 OFFCURVE",
"422 811 CURVE SMOOTH",
"271 753 OFFCURVE",
"130 644 OFFCURVE",
"55 490 CURVE SMOOTH",
"11 400 OFFCURVE",
"-4 288 OFFCURVE",
"66 203 CURVE SMOOTH",
"176 64 OFFCURVE",
"377 152 OFFCURVE",
"463 308 CURVE SMOOTH",
"487 353 OFFCURVE",
"504 403 OFFCURVE",
"486 451 CURVE SMOOTH",
"474 480 OFFCURVE",
"451 495 OFFCURVE",
"416 495 CURVE SMOOTH",
"387 495 OFFCURVE",
"346 486 OFFCURVE",
"347 475 CURVE SMOOTH",
"348 471 OFFCURVE",
"386 476 OFFCURVE",
"394 476 CURVE SMOOTH",
"424 476 OFFCURVE",
"441 464 OFFCURVE",
"450 446 CURVE SMOOTH",
"467 407 OFFCURVE",
"447 340 OFFCURVE",
"412 283 CURVE SMOOTH",
"327 147 OFFCURVE",
"177 122 OFFCURVE",
"107 214 CURVE SMOOTH",
"59 278 OFFCURVE",
"74 379 OFFCURVE",
"110 469 CURVE SMOOTH",
"181 637 OFFCURVE",
"407 819 OFFCURVE",
"589 819 CURVE SMOOTH",
"664 819 OFFCURVE",
"724 787 OFFCURVE",
"724 706 CURVE SMOOTH",
"724 665 OFFCURVE",
"713 617 OFFCURVE",
"692 560 CURVE SMOOTH",
"673 509 OFFCURVE",
"649 458 OFFCURVE",
"618 408 CURVE SMOOTH",
"519 247 OFFCURVE",
"470 131 OFFCURVE",
"470 58 CURVE SMOOTH",
"470 -11 OFFCURVE",
"513 -54 OFFCURVE",
"586 -54 CURVE SMOOTH",
"721 -54 OFFCURVE",
"836 114 OFFCURVE",
"903 258 CURVE",
"877 160 OFFCURVE",
"831 18 OFFCURVE",
"766 -129 CURVE",
"581 -129 OFFCURVE",
"437 -150 OFFCURVE",
"334 -193 CURVE SMOOTH",
"253 -226 OFFCURVE",
"213 -265 OFFCURVE",
"213 -309 CURVE SMOOTH",
"213 -343 OFFCURVE",
"238 -368 OFFCURVE",
"288 -385 CURVE SMOOTH"
);
},
{
closed = 1;
nodes = (
"267 -295 OFFCURVE",
"286 -263 OFFCURVE",
"350 -235 CURVE SMOOTH",
"448 -192 OFFCURVE",
"577.333 -154 OFFCURVE",
"752 -154 CURVE",
"696 -244.667 OFFCURVE",
"602.833 -310.667 OFFCURVE",
"511.5 -344 CURVE SMOOTH",
"424 -376 OFFCURVE",
"267 -392 OFFCURVE",
"267 -319 CURVE SMOOTH"
);
}
);
width = 959;
}
);
note = Y;
unicode = 0059;
},
{
glyphname = Z;
lastChange = "2020-12-24 01:02:03 +0000";
layers = (
{
layerId = "1691882E-B915-4755-A5B2-757873D945FF";
paths = (
{
closed = 1;
nodes = (
"806 -158 OFFCURVE",
"845 -153 OFFCURVE",
"880 -140 CURVE SMOOTH",
"958 -111 OFFCURVE",
"989 -50 OFFCURVE",
"997.5 -17 CURVE SMOOTH",
"1000 -7 OFFCURVE",
"1004 28 OFFCURVE",
"990 28 CURVE SMOOTH",
"968.532 28 OFFCURVE",
"974.456 -33.803 OFFCURVE",
"936.5 -63 CURVE SMOOTH",
"914.833 -79.667 OFFCURVE",
"889.833 -90.167 OFFCURVE",
"861.5 -94.5 CURVE SMOOTH",
"808 -103 OFFCURVE",
"751 -104 OFFCURVE",
"698 -94 CURVE SMOOTH",
"627 -80 OFFCURVE",
"499.667 -33.333 OFFCURVE",
"317 46 CURVE",
"404.5 118.5 LINE SMOOTH",
"532 224 OFFCURVE",
"605 311 OFFCURVE",
"708 448 CURVE SMOOTH",
"792.667 560 OFFCURVE",
"851.333 631 OFFCURVE",
"884 661 CURVE",
"925.333 651 OFFCURVE",
"959.667 646 OFFCURVE",
"987 646 CURVE SMOOTH",
"1054 646 OFFCURVE",
"1076 689 OFFCURVE",
"1076 716 CURVE SMOOTH",
"1076 733.333 OFFCURVE",
"1066.333 746 OFFCURVE",
"1047 754 CURVE SMOOTH",
"994 779 OFFCURVE",
"913 721 OFFCURVE",
"867 685 CURVE",
"719.5 731 LINE",
"681.5 741.667 OFFCURVE",
"599 766 OFFCURVE",
"523 766 CURVE SMOOTH",
"445 766 OFFCURVE",
"348 744 OFFCURVE",
"306 693 CURVE SMOOTH",
"282.667 665 OFFCURVE",
"271 635.333 OFFCURVE",
"271 604 CURVE SMOOTH",
"271 576.667 OFFCURVE",
"281 551.333 OFFCURVE",
"301 528 CURVE SMOOTH",
"333 492 OFFCURVE",
"393 491 OFFCURVE",
"350 521 CURVE SMOOTH",
"320 541.667 OFFCURVE",
"305 563.833 OFFCURVE",
"305 587.5 CURVE SMOOTH",
"305 611.167 OFFCURVE",
"319.333 634.667 OFFCURVE",
"348 658 CURVE SMOOTH",
"410 706 OFFCURVE",
"494 711 OFFCURVE",
"568 711 CURVE SMOOTH",
"655.333 711 OFFCURVE",
"748.667 697.333 OFFCURVE",
"848 670 CURVE",
"773.333 609.333 OFFCURVE",
"702.333 539.333 OFFCURVE",
"635 460 CURVE SMOOTH",
"583 396.667 OFFCURVE",
"470.333 263.667 OFFCURVE",
"297 61 CURVE",
"242 96 OFFCURVE",
"170 140 OFFCURVE",
"105 140 CURVE SMOOTH",
"37 140 OFFCURVE",
"-3 86 OFFCURVE",
"16 29 CURVE SMOOTH",
"26.667 -5.667 OFFCURVE",
"52 -27.667 OFFCURVE",
"92 -37 CURVE SMOOTH",
"157 -52 OFFCURVE",
"236 -8 OFFCURVE",
"292 32 CURVE",
"377 -16 LINE SMOOTH",
"490.333 -80 OFFCURVE",
"674 -158 OFFCURVE",
"762 -158 CURVE SMOOTH"
);
},
{
closed = 1;
nodes = (
"86.357 -8 OFFCURVE",
"56 21.29 OFFCURVE",
"56 47 CURVE SMOOTH",
"56 83 OFFCURVE",
"84 105 OFFCURVE",
"127.5 105 CURVE SMOOTH",
"181 105 OFFCURVE",
"235 77 OFFCURVE",
"278 42 CURVE",
"248.667 16.667 OFFCURVE",
"192 -8 OFFCURVE",
"144 -8 CURVE SMOOTH"
);
},
{
closed = 1;
nodes = (
"964 660 OFFCURVE",
"935.667 665.333 OFFCURVE",
"899 676 CURVE",
"950.333 719.333 OFFCURVE",
"989.667 741 OFFCURVE",
"1017 741 CURVE SMOOTH",
"1039.667 741 OFFCURVE",
"1047 720.667 OFFCURVE",
"1047 710 CURVE SMOOTH",
"1047 671.333 OFFCURVE",
"1024 660 OFFCURVE",
"984 660 CURVE SMOOTH"
);
}
);
width = 1017;
}
);
note = Z;
unicode = 005A;
},
{
glyphname = a;
lastChange = "2020-12-24 21:31:53 +0000";
layers = (
{
anchors = (
{
name = top;
position = "{399, 511}";
}
);
layerId = "1691882E-B915-4755-A5B2-757873D945FF";
paths = (
{
closed = 1;
nodes = (
"256 -12 OFFCURVE",
"325 53 OFFCURVE",
"405 182 CURVE",
"393 136 OFFCURVE",
"379 71 OFFCURVE",
"404 30 CURVE SMOOTH",
"422 2 OFFCURVE",
"445 -12 OFFCURVE",
"474 -12 CURVE SMOOTH",
"537 -12 OFFCURVE",
"615 81 OFFCURVE",
"707 267 CURVE SMOOTH",
"721 300 OFFCURVE",
"697 305 OFFCURVE",
"686 279 CURVE SMOOTH",
"646 197 OFFCURVE",
"605 131 OFFCURVE",
"564 80 CURVE SMOOTH",
"536 45 OFFCURVE",
"513 27 OFFCURVE",
"494 27 CURVE SMOOTH",
"447 27 OFFCURVE",
"431 67 OFFCURVE",
"441 122 CURVE SMOOTH",
"456 212 OFFCURVE",
"531 342 OFFCURVE",
"587 398 CURVE",
"565 392 OFFCURVE",
"572 404 OFFCURVE",
"549 404 CURVE SMOOTH",
"509 404 OFFCURVE",
"490 382 OFFCURVE",
"452 308 CURVE SMOOTH",
"355 124 OFFCURVE",
"276 32 OFFCURVE",
"216 32 CURVE SMOOTH",
"191 32 OFFCURVE",
"160 51 OFFCURVE",
"160 90 CURVE SMOOTH",
"160 216 OFFCURVE",
"241 335 OFFCURVE",
"288 387 CURVE SMOOTH",
"351 455 OFFCURVE",
"413 489 OFFCURVE",
"497 489 CURVE SMOOTH",
"534 489 OFFCURVE",
"543 473 OFFCURVE",
"569 445 CURVE SMOOTH",
"587 426 OFFCURVE",
"605 457 OFFCURVE",
"585 479 CURVE SMOOTH",
"553 511 OFFCURVE",
"514 527 OFFCURVE",
"468 527 CURVE SMOOTH",
"417 527 OFFCURVE",
"314 499 OFFCURVE",
"237 410 CURVE SMOOTH",
"152 309 OFFCURVE",
"110 209 OFFCURVE",
"110 111 CURVE SMOOTH",
"110 37 OFFCURVE",
"148 -12 OFFCURVE",
"198 -12 CURVE SMOOTH"
);
}
);
width = 530;
}
);
note = a;
unicode = 0061;
},
{
glyphname = ae;
lastChange = "2020-12-25 20:24:36 +0000";
layers = (
{
anchors = (
{
name = top;
position = "{379, 511}";
}
);
components = (
{
alignment = -1;
name = e;
transform = "{1, 0, 0, 1, 271, 0}";
}
);
layerId = "1691882E-B915-4755-A5B2-757873D945FF";
paths = (
{
closed = 1;
nodes = (
"389 197 LINE",
"320 87 OFFCURVE",
"262 32 OFFCURVE",
"216 32 CURVE SMOOTH",
"165 32 OFFCURVE",
"145 89 OFFCURVE",
"163 160 CURVE SMOOTH",
"184 248 OFFCURVE",
"249 357 OFFCURVE",
"294 407 CURVE SMOOTH",
"357 475 OFFCURVE",
"452 492 OFFCURVE",
"494 492 CURVE SMOOTH",
"532 492 OFFCURVE",
"533 481 OFFCURVE",
"559 453 CURVE SMOOTH",
"577 434 OFFCURVE",
"585 467 OFFCURVE",
"565 489 CURVE SMOOTH",
"533 521 OFFCURVE",
"514 527 OFFCURVE",
"468 527 CURVE SMOOTH",
"417 527 OFFCURVE",
"314 499 OFFCURVE",
"237 410 CURVE SMOOTH",
"152 309 OFFCURVE",
"110 209 OFFCURVE",
"110 111 CURVE SMOOTH",
"110 37 OFFCURVE",
"148 -12 OFFCURVE",
"198 -12 CURVE SMOOTH",
"249 -12 OFFCURVE",
"309 38 OFFCURVE",
"377 138 CURVE"
);
}
);
width = 655;
}
);
leftMetricsKey = a;
note = ae;
rightMetricsKey = e;
unicode = 00E6;
},
{
glyphname = b;
lastChange = "2020-12-24 21:35:57 +0000";
layers = (
{
layerId = "1691882E-B915-4755-A5B2-757873D945FF";
paths = (
{
closed = 1;
nodes = (
"377 -18 OFFCURVE",
"450 123 OFFCURVE",
"486 199 CURVE SMOOTH",
"515 263 OFFCURVE",
"536 335 OFFCURVE",
"534 393 CURVE SMOOTH",
"532 453 OFFCURVE",
"505 499 OFFCURVE",
"438 509 CURVE SMOOTH",
"380 521 OFFCURVE",
"365 482 OFFCURVE",
"417 479 CURVE SMOOTH",
"526 473 OFFCURVE",
"501 331 OFFCURVE",
"432 207 CURVE SMOOTH",
"378 108 OFFCURVE",
"297 21 OFFCURVE",
"233 21 CURVE SMOOTH",
"197 21 OFFCURVE",
"156 58 OFFCURVE",
"156 111 CURVE SMOOTH",
"156 193 OFFCURVE",
"203 297 OFFCURVE",
"265 432 CURVE SMOOTH",
"301 510 OFFCURVE",
"341 597 OFFCURVE",
"399 696 CURVE SMOOTH",
"427 744 OFFCURVE",
"452 800 OFFCURVE",
"482 829 CURVE",
"451 819 OFFCURVE",
"435 829 OFFCURVE",
"420 820 CURVE SMOOTH",
"399 808 OFFCURVE",
"391 785 OFFCURVE",
"374 755 CURVE SMOOTH",
"333 682 OFFCURVE",
"272 573 OFFCURVE",
"211 438 CURVE SMOOTH",
"107 210 OFFCURVE",
"101 140 OFFCURVE",
"101 98 CURVE SMOOTH",
"101 27 OFFCURVE",
"151 -18 OFFCURVE",
"225 -18 CURVE SMOOTH"
);
}
);
width = 434;
}
);
note = b;
unicode = 0062;
},
{
glyphname = c;
lastChange = "2020-12-26 02:23:24 +0000";
layers = (
{
layerId = "1691882E-B915-4755-A5B2-757873D945FF";
paths = (
{
closed = 1;
nodes = (
"326 -13 OFFCURVE",
"387 15 OFFCURVE",
"432 71 CURVE SMOOTH",
"490 142 OFFCURVE",
"551 251 OFFCURVE",
"551 285 CURVE SMOOTH",
"551 295 OFFCURVE",
"539 305 OFFCURVE",
"525 278 CURVE SMOOTH",
"483 194 OFFCURVE",
"469 168 OFFCURVE",
"423 105 CURVE SMOOTH",
"376 42 OFFCURVE",
"325 14 OFFCURVE",
"264 14 CURVE SMOOTH",
"202 14 OFFCURVE",
"144 62 OFFCURVE",
"144 133 CURVE SMOOTH",
"144 204 OFFCURVE",
"189 305 OFFCURVE",
"227 359 CURVE SMOOTH",
"287 445 OFFCURVE",
"349 488 OFFCURVE",
"417 488 CURVE SMOOTH",
"453 488 OFFCURVE",
"456 463 OFFCURVE",
"453 435 CURVE SMOOTH",
"450 406 OFFCURVE",
"436 380 OFFCURVE",
"401 338 CURVE",
"408 331 OFFCURVE",
"416 328 OFFCURVE",
"426 328 CURVE SMOOTH",
"435 328 OFFCURVE",
"447 334 OFFCURVE",
"461 347 CURVE SMOOTH",
"489 371 OFFCURVE",
"503 402 OFFCURVE",
"503 436 CURVE SMOOTH",
"503 482 OFFCURVE",
"472 521 OFFCURVE",
"398 521 CURVE SMOOTH",
"322 521 OFFCURVE",
"255 482 OFFCURVE",
"197 403 CURVE SMOOTH",
"141 326 OFFCURVE",
"90 212 OFFCURVE",
"90 124 CURVE SMOOTH",
"90 52 OFFCURVE",
"136 -13 OFFCURVE",
"248 -13 CURVE SMOOTH"
);
}
);
width = 371;
}
);
note = c;
unicode = 0063;
},
{
glyphname = d;
lastChange = "2020-12-25 18:08:05 +0000";
layers = (
{
layerId = "1691882E-B915-4755-A5B2-757873D945FF";
paths = (
{
closed = 1;
nodes = (
"256 -12 OFFCURVE",
"325 53 OFFCURVE",
"405 182 CURVE",
"393 136 OFFCURVE",
"379 71 OFFCURVE",
"404 30 CURVE SMOOTH",
"422 2 OFFCURVE",
"445 -12 OFFCURVE",
"474 -12 CURVE SMOOTH",
"537 -12 OFFCURVE",
"615 81 OFFCURVE",
"707 267 CURVE",
"721 300 OFFCURVE",
"697 305 OFFCURVE",
"686 279 CURVE SMOOTH",
"646 197 OFFCURVE",
"605 131 OFFCURVE",
"564 80 CURVE SMOOTH",
"536 45 OFFCURVE",
"513 27 OFFCURVE",
"494 27 CURVE SMOOTH",
"454 27 OFFCURVE",
"430 72 OFFCURVE",
"443 133 CURVE SMOOTH",
"451 174 OFFCURVE",
"499 257 OFFCURVE",
"532 322 CURVE SMOOTH",
"613 481 OFFCURVE",
"642 536 OFFCURVE",
"727 696 CURVE SMOOTH",
"753 744 OFFCURVE",
"783 800 OFFCURVE",
"813 829 CURVE",
"782 819 OFFCURVE",
"759 831 OFFCURVE",
"745 820 CURVE SMOOTH",
"715 796 OFFCURVE",
"604 573 OFFCURVE",
"566 497 CURVE",
"464 570 OFFCURVE",
"314 495 OFFCURVE",
"233 402 CURVE SMOOTH",
"148 301 OFFCURVE",
"110 209 OFFCURVE",
"110 111 CURVE SMOOTH",
"110 37 OFFCURVE",
"148 -12 OFFCURVE",
"198 -12 CURVE SMOOTH"
);
},
{
closed = 1;
nodes = (
"168 32 OFFCURVE",
"153 68 OFFCURVE",
"158 118 CURVE SMOOTH",
"167 204 OFFCURVE",
"222 310 OFFCURVE",
"293 387 CURVE SMOOTH",
"373 474 OFFCURVE",
"473 525 OFFCURVE",
"550 472 CURVE",
"535 445 OFFCURVE",
"481 355 OFFCURVE",
"452 308 CURVE SMOOTH",
"347 138 OFFCURVE",
"276 32 OFFCURVE",
"216 32 CURVE SMOOTH"
);
}
);
width = 552;
}
);
leftMetricsKey = a;
note = d;
unicode = 0064;
},
{
glyphname = eth;
lastChange = "2020-12-25 23:58:59 +0000";
layers = (
{
layerId = "1691882E-B915-4755-A5B2-757873D945FF";
paths = (
{
closed = 1;
nodes = (
"184 -9 OFFCURVE",
"210 -3 OFFCURVE",
"236 10 CURVE SMOOTH",
"281 33 OFFCURVE",
"320 73 OFFCURVE",
"354 130 CURVE SMOOTH",
"410 226 OFFCURVE",
"439 333 OFFCURVE",
"439 449 CURVE SMOOTH",
"439 535 OFFCURVE",
"421 604 OFFCURVE",
"386 656 CURVE",
"444 694 OFFCURVE",
"488 718 OFFCURVE",
"488 726 CURVE SMOOTH",
"488 730 OFFCURVE",
"487 733 OFFCURVE",
"486 735 CURVE SMOOTH",
"478 744 OFFCURVE",
"469 745 OFFCURVE",
"456 738 CURVE SMOOTH",
"362 687 LINE",
"326 725 OFFCURVE",
"282 744 OFFCURVE",
"230 744 CURVE SMOOTH",
"177 744 OFFCURVE",
"151 735 OFFCURVE",
"151 718 CURVE SMOOTH",
"151 713 OFFCURVE",
"155 710 OFFCURVE",
"164 710 CURVE SMOOTH",
"207 715 LINE",
"249 715 OFFCURVE",
"285 697 OFFCURVE",
"315 661 CURVE",
"224 610 LINE",
"190 586 OFFCURVE",
"255 542 OFFCURVE",
"251 559 CURVE",
"290 587 LINE SMOOTH",
"311 604 OFFCURVE",
"329 616 OFFCURVE",
"342 625 CURVE",
"378 563 OFFCURVE",
"396 492 OFFCURVE",
"396 410 CURVE SMOOTH",
"396 374 OFFCURVE",
"391 337 OFFCURVE",
"382 298 CURVE",
"382 315 LINE SMOOTH",
"382 357 OFFCURVE",
"359 384 OFFCURVE",
"318 384 CURVE SMOOTH",
"272 384 OFFCURVE",
"226 362 OFFCURVE",
"181 319 CURVE SMOOTH",
"114 257 OFFCURVE",
"80 185 OFFCURVE",
"80 104 CURVE SMOOTH",
"80 48 OFFCURVE",
"104 -9 OFFCURVE",
"158 -9 CURVE SMOOTH"
);
},
{
closed = 1;
nodes = (
"144 5 OFFCURVE",
"133 21 OFFCURVE",
"133 53 CURVE SMOOTH",
"133 70 OFFCURVE",
"134 87 OFFCURVE",
"137 105 CURVE SMOOTH",
"147 172 OFFCURVE",
"177 239 OFFCURVE",
"226 305 CURVE SMOOTH",
"260 350 OFFCURVE",
"293 372 OFFCURVE",
"324 372 CURVE SMOOTH",
"351 372 OFFCURVE",
"366 350 OFFCURVE",
"366 308 CURVE SMOOTH",
"366 266 OFFCURVE",
"355 226 OFFCURVE",
"334 190 CURVE SMOOTH",
"268 67 OFFCURVE",
"212 5 OFFCURVE",
"166 5 CURVE SMOOTH"
);
}
);
width = 416;
}
);
note = eth;
unicode = 00F0;
},
{
glyphname = e;
lastChange = "2020-12-24 21:48:43 +0000";
layers = (
{
anchors = (
{
name = _top;
position = "{312, 119}";
},
{
name = top;
position = "{335, 512}";
}
);
layerId = "1691882E-B915-4755-A5B2-757873D945FF";
paths = (
{
closed = 1;
nodes = (
"326 -13 OFFCURVE",
"387 15 OFFCURVE",
"432 71 CURVE SMOOTH",
"490 142 OFFCURVE",
"551 251 OFFCURVE",
"551 285 CURVE SMOOTH",
"551 295 OFFCURVE",
"539 305 OFFCURVE",
"525 278 CURVE SMOOTH",
"483 194 OFFCURVE",
"469 168 OFFCURVE",
"423 105 CURVE SMOOTH",
"376 42 OFFCURVE",
"325 14 OFFCURVE",
"264 14 CURVE SMOOTH",
"202 14 OFFCURVE",
"144 62 OFFCURVE",
"144 133 CURVE SMOOTH",
"144 154.313 OFFCURVE",
"148.055 178.33 OFFCURVE",
"154.759 202.967 CURVE",
"177 203 OFFCURVE",
"441 331 OFFCURVE",
"461 347 CURVE SMOOTH",
"492 371 OFFCURVE",
"503 402 OFFCURVE",
"503 436 CURVE SMOOTH",
"503 482 OFFCURVE",
"472 521 OFFCURVE",
"398 521 CURVE SMOOTH",
"322 521 OFFCURVE",
"255 482 OFFCURVE",
"197 403 CURVE SMOOTH",
"141 326 OFFCURVE",
"90 212 OFFCURVE",
"90 124 CURVE SMOOTH",
"90 52 OFFCURVE",
"136 -13 OFFCURVE",
"248 -13 CURVE SMOOTH"
);
},
{
closed = 1;
nodes = (
"181.511 282.372 OFFCURVE",
"205.388 328.288 OFFCURVE",
"227 359 CURVE SMOOTH",
"287 445 OFFCURVE",
"349 488 OFFCURVE",
"417 488 CURVE SMOOTH",
"453 488 OFFCURVE",
"463 463 OFFCURVE",
"463 435 CURVE SMOOTH",
"462 372 OFFCURVE",
"437 359 OFFCURVE",
"391 335 CURVE SMOOTH",
"332 305 OFFCURVE",
"263 279 OFFCURVE",
"164.936 235.419 CURVE"
);
}
);
width = 384;
}
);
note = e;
unicode = 0065;
},
{
glyphname = f;
lastChange = "2020-12-26 02:15:49 +0000";
layers = (
{
layerId = "1691882E-B915-4755-A5B2-757873D945FF";
paths = (
{
closed = 1;
nodes = (
"528 223 LINE SMOOTH",
"570 222 OFFCURVE",
"615 225 OFFCURVE",
"615 247 CURVE SMOOTH",
"615 269 OFFCURVE",
"584 255 OFFCURVE",
"525 256 CURVE SMOOTH",
"288 262 LINE SMOOTH",
"223 264 OFFCURVE",
"183 215 OFFCURVE",
"183 192 CURVE SMOOTH",
"183 172 OFFCURVE",
"236 229 OFFCURVE",
"274 228 CURVE SMOOTH"
);
},
{
closed = 1;
nodes = (
"177 188 LINE",
"160 108 OFFCURVE",
"209 -83 OFFCURVE",
"201 -201 CURVE SMOOTH",
"196 -276 OFFCURVE",
"162 -316 OFFCURVE",
"122 -316 CURVE SMOOTH",
"86 -316 OFFCURVE",
"46 -288 OFFCURVE",
"46 -209 CURVE SMOOTH",
"46 -141 OFFCURVE",
"80 -58 OFFCURVE",
"149 92 CURVE SMOOTH",
"187 175 OFFCURVE",
"221 278 OFFCURVE",
"275 410 CURVE SMOOTH",
"309 493 OFFCURVE",
"348 588 OFFCURVE",
"393 696 CURVE SMOOTH",
"414 745 OFFCURVE",
"445 800 OFFCURVE",
"475 829 CURVE",
"444 819 OFFCURVE",
"426 829 OFFCURVE",
"411 820 CURVE SMOOTH",
"390 808 OFFCURVE",
"382 785 OFFCURVE",
"365 755 CURVE SMOOTH",
"359 745 OFFCURVE",
"351 727 OFFCURVE",
"341 704 CURVE SMOOTH",
"311 637 OFFCURVE",
"265 523 OFFCURVE",
"220 410 CURVE SMOOTH",
"173 293 OFFCURVE",
"127 177 OFFCURVE",
"100 118 CURVE SMOOTH",
"97 110 OFFCURVE",
"93 103 OFFCURVE",
"90 96 CURVE SMOOTH",
"-4 -115 OFFCURVE",
"-10 -181 OFFCURVE",
"-10 -222 CURVE SMOOTH",
"-10 -293 OFFCURVE",
"40 -338 OFFCURVE",
"114 -338 CURVE SMOOTH",
"211 -338 OFFCURVE",
"244 -299 OFFCURVE",
"251 -184 CURVE SMOOTH",
"256 -94 OFFCURVE",
"234 119 OFFCURVE",
"212 199 CURVE"
);
},
{
closed = 1;
nodes = (
"102 106 OFFCURVE",
"204 134 OFFCURVE",
"204 195 CURVE SMOOTH",
"204 224 OFFCURVE",
"193 239 OFFCURVE",
"170 239 CURVE SMOOTH",
"139 239 OFFCURVE",
"102 192 OFFCURVE",
"102 160 CURVE SMOOTH"
);
}
);
width = 425;
}
);
note = f;
unicode = 0066;
},
{
glyphname = g;
lastChange = "2020-12-24 22:03:28 +0000";
layers = (
{
anchors = (
{
name = top;
position = "{289, 511}";
}
);
layerId = "1691882E-B915-4755-A5B2-757873D945FF";
paths = (
{
closed = 0;
nodes = (
"18.8 -1340.622 LINE",
"16.423 -1340.622 OFFCURVE",
"14.045 -1340.622 OFFCURVE",
"11.667 -1340.622 CURVE SMOOTH"
);
},
{
closed = 1;
nodes = (
"159 -348 OFFCURVE",
"92 -352 OFFCURVE",
"95 -295 CURVE SMOOTH",
"100 -200 OFFCURVE",
"171 -167 OFFCURVE",
"246 -113 CURVE SMOOTH",
"326 -54 OFFCURVE",
"437 -17 OFFCURVE",
"463 -7 CURVE",
"448 -80 OFFCURVE",
"415 -146 OFFCURVE",
"382 -191 CURVE SMOOTH",
"343 -244 OFFCURVE",
"317 -282 OFFCURVE",
"287 -307 CURVE SMOOTH",
"252 -336 OFFCURVE",
"210 -348 OFFCURVE",
"187 -348 CURVE SMOOTH"
);
},
{
closed = 1;
nodes = (
"48 -377 OFFCURVE",
"125 -382 OFFCURVE",
"176 -382 CURVE SMOOTH",
"209 -382 OFFCURVE",
"242 -374 OFFCURVE",
"274 -358 CURVE SMOOTH",
"330 -329 OFFCURVE",
"379 -268 OFFCURVE",
"421 -198 CURVE SMOOTH",
"453 -143 OFFCURVE",
"470 -95 OFFCURVE",
"492 -36 CURVE SMOOTH",
"504 -3 LINE",
"561 21 OFFCURVE",
"629.349 110.01 OFFCURVE",
"707 267 CURVE",
"721 300 OFFCURVE",
"697 305 OFFCURVE",
"686 279 CURVE SMOOTH",
"646 197 OFFCURVE",
"605 131 OFFCURVE",
"564 80 CURVE SMOOTH",
"544.707 55.884 OFFCURVE",
"527.788 39.839 OFFCURVE",
"512.915 32.192 CURVE",
"526 100 OFFCURVE",
"601 352 OFFCURVE",
"606 372 CURVE",
"585 354 OFFCURVE",
"554 383 OFFCURVE",
"529 348 CURVE SMOOTH",
"520 336 OFFCURVE",
"512 324 OFFCURVE",
"504 308 CURVE SMOOTH",
"407 124 OFFCURVE",
"328 32 OFFCURVE",
"268 32 CURVE SMOOTH",
"243 32 OFFCURVE",
"212 51 OFFCURVE",
"212 90 CURVE SMOOTH",
"212 216 OFFCURVE",
"293 335 OFFCURVE",
"340 387 CURVE SMOOTH",
"403 455 OFFCURVE",
"465 489 OFFCURVE",
"549 489 CURVE SMOOTH",
"586 489 OFFCURVE",
"595 473 OFFCURVE",
"621 445 CURVE SMOOTH",
"639 426 OFFCURVE",
"657 457 OFFCURVE",
"637 479 CURVE SMOOTH",
"605 511 OFFCURVE",
"566 527 OFFCURVE",
"520 527 CURVE SMOOTH",
"469 527 OFFCURVE",
"366 499 OFFCURVE",
"289 410 CURVE SMOOTH",
"204 309 OFFCURVE",
"162 209 OFFCURVE",
"162 111 CURVE SMOOTH",
"162 37 OFFCURVE",
"200 -12 OFFCURVE",
"250 -12 CURVE SMOOTH",
"308 -12 OFFCURVE",
"411 53 OFFCURVE",
"491 182 CURVE SMOOTH",
"504.737 202.932 OFFCURVE",
"523.18 240.124 OFFCURVE",
"533.735 261.108 CURVE",
"525 229 LINE",
"474 26 LINE",
"381 -7 LINE SMOOTH",
"252 -53 OFFCURVE",
"62 -177 OFFCURVE",
"54 -294 CURVE SMOOTH"
);
}
);
width = 536;
}
);
note = g;
unicode = 0067;
},
{
glyphname = h;
lastChange = "2020-12-25 20:40:29 +0000";
layers = (
{
anchors = (
{
name = top;
position = "{462, 514}";
}
);
layerId = "1691882E-B915-4755-A5B2-757873D945FF";
paths = (
{
closed = 1;
nodes = (
"61 11 OFFCURVE",
"72 -21 OFFCURVE",
"96 19 CURVE SMOOTH",
"101 29 OFFCURVE",
"105 40 OFFCURVE",
"110 50 CURVE SMOOTH",
"129 90 OFFCURVE",
"144 128 OFFCURVE",
"170 162 CURVE SMOOTH",
"220 227 OFFCURVE",
"288 279 OFFCURVE",
"335 316 CURVE SMOOTH",
"498 444 OFFCURVE",
"540 448 OFFCURVE",
"487 345 CURVE SMOOTH",
"439 252 OFFCURVE",
"381 124 OFFCURVE",
"373 73 CURVE SMOOTH",
"361 1 OFFCURVE",
"460 -64 OFFCURVE",
"552 53 CURVE SMOOTH",
"585 95 OFFCURVE",
"625 148 OFFCURVE",
"681 259 CURVE SMOOTH",
"702 300 OFFCURVE",
"678 306 OFFCURVE",
"660 272 CURVE SMOOTH",
"571 99 OFFCURVE",
"511 25 OFFCURVE",
"460 25 CURVE SMOOTH",
"441 25 OFFCURVE",
"416 41 OFFCURVE",
"416 67 CURVE SMOOTH",
"416 113 OFFCURVE",
"454 196 OFFCURVE",
"519 316 CURVE SMOOTH",
"546 367 OFFCURVE",
"579 425 OFFCURVE",
"616 490 CURVE",
"611 492 OFFCURVE",
"605 493 OFFCURVE",
"599 493 CURVE SMOOTH",
"549 493 OFFCURVE",
"423 418 OFFCURVE",
"342 353 CURVE SMOOTH",
"303 322 OFFCURVE",
"227 272 OFFCURVE",
"180 214 CURVE",
"206.994 267.989 OFFCURVE",
"232 314 OFFCURVE",
"254.413 352.425 CURVE SMOOTH",
"443 670 OFFCURVE",
"272 376 OFFCURVE",
"456 696 CURVE SMOOTH",
"484 744 OFFCURVE",
"509 800 OFFCURVE",
"539 829 CURVE",
"508 819 OFFCURVE",
"492 829 OFFCURVE",
"477 820 CURVE SMOOTH",
"456 808 OFFCURVE",
"448 785 OFFCURVE",
"431 755 CURVE SMOOTH",
"378 658 OFFCURVE",
"244 420 OFFCURVE",
"226 387 CURVE SMOOTH",
"198 338 OFFCURVE",
"154 270 OFFCURVE",
"113 184 CURVE SMOOTH",
"89 132 OFFCURVE",
"68 90 OFFCURVE",
"52 56 CURVE SMOOTH",
"38 25 OFFCURVE",
"27 2 OFFCURVE",
"19 -13 CURVE"
);
}
);
width = 507;
}
);
leftMetricsKey = h;
note = h;
rightMetricsKey = n;
unicode = 0068;
},
{
glyphname = i;
lastChange = "2020-12-26 02:09:01 +0000";
layers = (
{
layerId = "1691882E-B915-4755-A5B2-757873D945FF";
paths = (
{
closed = 1;
nodes = (
"148 -13 OFFCURVE",
"185 -14 OFFCURVE",
"234 -1 CURVE SMOOTH",
"263 7 OFFCURVE",
"287 30 OFFCURVE",
"313 60 CURVE SMOOTH",
"343 94 OFFCURVE",
"388 173 OFFCURVE",
"401 201 CURVE SMOOTH",
"423 248 LINE SMOOTH",
"431 266 OFFCURVE",
"435 277 OFFCURVE",
"435 281 CURVE SMOOTH",
"435 286 OFFCURVE",
"434 289 OFFCURVE",
"432 291 CURVE SMOOTH",
"425 297 OFFCURVE",
"418 293 OFFCURVE",
"411 278 CURVE SMOOTH",
"354 164 OFFCURVE",
"307 88 OFFCURVE",
"270 51 CURVE SMOOTH",
"249 32 OFFCURVE",
"229 23 OFFCURVE",
"210 23 CURVE SMOOTH",
"179 23 OFFCURVE",
"160 40 OFFCURVE",
"148 66 CURVE SMOOTH",
"136 92 OFFCURVE",
"148 138 OFFCURVE",
"167 173 CURVE SMOOTH",
"303 425 LINE SMOOTH",
"323 462 OFFCURVE",
"323 496 OFFCURVE",
"277 494 CURVE SMOOTH",
"235 492 LINE",
"251 470 OFFCURVE",
"262 450 OFFCURVE",
"250 429 CURVE SMOOTH",
"114 185 LINE SMOOTH",
"80 124 OFFCURVE",
"83 65 OFFCURVE",
"118 23 CURVE SMOOTH"
);
},
{
closed = 1;
nodes = (
"387 564 OFFCURVE",
"397 669 OFFCURVE",
"329 669 CURVE SMOOTH",
"299 669 OFFCURVE",
"272 646 OFFCURVE",
"267 617 CURVE SMOOTH",
"263 588 OFFCURVE",
"282 564 OFFCURVE",
"311 564 CURVE SMOOTH"
);
}
);
width = 248;
}
);
note = i;
unicode = 0069;
},
{
glyphname = dotlessi;
lastChange = "2020-12-26 02:09:12 +0000";
layers = (
{
anchors = (
{
name = top;
position = "{339, 513}";
}
);
layerId = "1691882E-B915-4755-A5B2-757873D945FF";
paths = (
{
closed = 1;
nodes = (
"148 -13 OFFCURVE",
"185 -14 OFFCURVE",
"234 -1 CURVE SMOOTH",
"263 7 OFFCURVE",
"287 30 OFFCURVE",
"313 60 CURVE SMOOTH",
"343 94 OFFCURVE",
"388 173 OFFCURVE",
"401 201 CURVE SMOOTH",
"423 248 LINE SMOOTH",
"431 266 OFFCURVE",
"435 277 OFFCURVE",
"435 281 CURVE SMOOTH",
"435 286 OFFCURVE",
"434 289 OFFCURVE",
"432 291 CURVE SMOOTH",
"425 297 OFFCURVE",
"418 293 OFFCURVE",
"411 278 CURVE SMOOTH",
"354 164 OFFCURVE",
"307 88 OFFCURVE",
"270 51 CURVE SMOOTH",
"249 32 OFFCURVE",
"229 23 OFFCURVE",
"210 23 CURVE SMOOTH",
"179 23 OFFCURVE",
"160 40 OFFCURVE",
"148 66 CURVE SMOOTH",
"136 92 OFFCURVE",
"148 138 OFFCURVE",
"167 173 CURVE SMOOTH",
"303 425 LINE SMOOTH",
"323 462 OFFCURVE",
"323 496 OFFCURVE",
"277 494 CURVE SMOOTH",
"235 492 LINE",
"251 470 OFFCURVE",
"262 450 OFFCURVE",
"250 429 CURVE SMOOTH",
"114 185 LINE SMOOTH",
"80 124 OFFCURVE",
"83 65 OFFCURVE",
"118 23 CURVE SMOOTH"
);
}
);
width = 248;
}
);
leftMetricsKey = i;
note = dotlessi;
unicode = 0131;
},
{
glyphname = j;
lastChange = "2020-12-26 02:12:04 +0000";
layers = (
{
layerId = "1691882E-B915-4755-A5B2-757873D945FF";
paths = (
{
closed = 1;
nodes = (
"192 215 LINE",
"138 26 LINE",
"45 -7 LINE SMOOTH",
"-84 -53 OFFCURVE",
"-274 -177 OFFCURVE",
"-282 -294 CURVE SMOOTH",
"-288 -377 OFFCURVE",
"-211 -382 OFFCURVE",
"-160 -382 CURVE SMOOTH",
"-127 -382 OFFCURVE",
"-94 -374 OFFCURVE",
"-62 -358 CURVE SMOOTH",
"-6 -329 OFFCURVE",
"43 -268 OFFCURVE",
"85 -198 CURVE SMOOTH",
"117 -143 OFFCURVE",
"134 -95 OFFCURVE",
"156 -36 CURVE SMOOTH",
"168 -3 LINE",
"225 21 OFFCURVE",
"293 110 OFFCURVE",
"371 267 CURVE",
"385 300 OFFCURVE",
"361 305 OFFCURVE",
"350 279 CURVE SMOOTH",
"310 197 OFFCURVE",
"269 131 OFFCURVE",
"228 80 CURVE SMOOTH",
"209 56 OFFCURVE",
"192 40 OFFCURVE",
"177 32 CURVE",
"185 76 OFFCURVE",
"228 196 OFFCURVE",
"309 425 CURVE SMOOTH",
"324 462 OFFCURVE",
"329 496 OFFCURVE",
"283 494 CURVE SMOOTH",
"241 492 LINE",
"257 470 OFFCURVE",
"265 450 OFFCURVE",
"256 429 CURVE",
"222 323 LINE"
);
},
{
closed = 1;
nodes = (
"-236 -200 OFFCURVE",
"-165 -167 OFFCURVE",
"-90 -113 CURVE SMOOTH",
"-10 -54 OFFCURVE",
"101 -17 OFFCURVE",
"127 -7 CURVE",
"112 -80 OFFCURVE",
"79 -146 OFFCURVE",
"46 -191 CURVE SMOOTH",
"7 -244 OFFCURVE",
"-19 -282 OFFCURVE",
"-49 -307 CURVE SMOOTH",
"-84 -336 OFFCURVE",
"-126 -348 OFFCURVE",
"-149 -348 CURVE SMOOTH",
"-177 -348 OFFCURVE",
"-244 -352 OFFCURVE",
"-241 -295 CURVE SMOOTH"
);
},
{
closed = 1;
nodes = (
"269 588 OFFCURVE",
"288 564 OFFCURVE",
"317 564 CURVE SMOOTH",
"393 564 OFFCURVE",
"403 669 OFFCURVE",
"335 669 CURVE SMOOTH",
"305 669 OFFCURVE",
"278 646 OFFCURVE",
"273 617 CURVE SMOOTH"
);
}
);
width = 186;
}
);
note = j;
unicode = 006A;
},
{
glyphname = k;
lastChange = "2020-12-24 22:30:54 +0000";
layers = (
{
layerId = "1691882E-B915-4755-A5B2-757873D945FF";
paths = (
{
closed = 1;
nodes = (
"408 767 OFFCURVE",
"472 829 CURVE",
"441 819 OFFCURVE",
"423 829 OFFCURVE",
"408 820 CURVE SMOOTH",
"387 808 OFFCURVE",
"382 785 OFFCURVE",
"365 755 CURVE SMOOTH",
"264 573 OFFCURVE",
"205 430 OFFCURVE",
"160 325 CURVE SMOOTH",
"125 243 OFFCURVE",
"59 41 OFFCURVE",
"59 -1 CURVE",
"123 -1 LINE",
"123 68 OFFCURVE",
"150 145 OFFCURVE",
"196 233 CURVE",
"266 333 OFFCURVE",
"429 471 OFFCURVE",
"509 471 CURVE SMOOTH",
"536 471 OFFCURVE",
"549 457 OFFCURVE",
"549 430 CURVE SMOOTH",
"549 386 OFFCURVE",
"423 290 OFFCURVE",
"353 290 CURVE SMOOTH",
"344 290 LINE SMOOTH",
"318 290 OFFCURVE",
"311 214 OFFCURVE",
"311 158 CURVE SMOOTH",
"311 75 OFFCURVE",
"354 -11 OFFCURVE",
"436 -11 CURVE SMOOTH",
"487 -11 OFFCURVE",
"544 31 OFFCURVE",
"601 118 CURVE SMOOTH",
"652 196 OFFCURVE",
"686 259 OFFCURVE",
"691 283 CURVE SMOOTH",
"693 291 OFFCURVE",
"682 309 OFFCURVE",
"668 283 CURVE SMOOTH",
"618 180 OFFCURVE",
"576 119 OFFCURVE",
"547 86 CURVE SMOOTH",
"512 47 OFFCURVE",
"477 15 OFFCURVE",
"449 15 CURVE SMOOTH",
"360 15 OFFCURVE",
"344 168 OFFCURVE",
"368 266 CURVE",
"472 276 OFFCURVE",
"571 346 OFFCURVE",
"599 422 CURVE SMOOTH",
"604 437 OFFCURVE",
"607 451 OFFCURVE",
"607 463 CURVE SMOOTH",
"607 500 OFFCURVE",
"585 518 OFFCURVE",
"541 518 CURVE SMOOTH",
"521 518 OFFCURVE",
"494 513 OFFCURVE",
"460 502 CURVE SMOOTH",
"388 475 OFFCURVE",
"285 405 OFFCURVE",
"194 292 CURVE",
"223 380 OFFCURVE"
);
}
);
width = 504;
}
);
note = k;
rightMetricsKey = r;
unicode = 006B;
},
{
glyphname = l;
lastChange = "2020-12-24 22:33:19 +0000";
layers = (
{
layerId = "1691882E-B915-4755-A5B2-757873D945FF";
paths = (
{
closed = 1;
nodes = (
"444 829 OFFCURVE",
"470 829 CURVE SMOOTH",
"488 829 OFFCURVE",
"497 796 OFFCURVE",
"483.353 763.472 CURVE SMOOTH",
"436 652 OFFCURVE",
"304 430 OFFCURVE",
"202 326 CURVE",
"227 393 OFFCURVE",
"260 469 OFFCURVE",
"291 542 CURVE SMOOTH",
"319 610 OFFCURVE",
"355 677 OFFCURVE",
"382 732 CURVE SMOOTH",
"412 790 OFFCURVE"
);
},
{
closed = 1;
nodes = (
"127 9 OFFCURVE",
"157 -14 OFFCURVE",
"211 -14 CURVE SMOOTH",
"286 -14 OFFCURVE",
"339 38 OFFCURVE",
"386 96 CURVE SMOOTH",
"414 130 OFFCURVE",
"463 231 OFFCURVE",
"477 275 CURVE SMOOTH",
"482 291 OFFCURVE",
"464 297 OFFCURVE",
"454 275 CURVE SMOOTH",
"385 123 OFFCURVE",
"313 17 OFFCURVE",
"241 17 CURVE SMOOTH",
"165 17 OFFCURVE",
"151 62 OFFCURVE",
"151 105 CURVE SMOOTH",
"151 166 OFFCURVE",
"170 214 OFFCURVE",
"190 278 CURVE",
"267 349 OFFCURVE",
"514 683 OFFCURVE",
"514 788 CURVE SMOOTH",
"514 818 OFFCURVE",
"503 860 OFFCURVE",
"466 860 CURVE SMOOTH",
"397 860 OFFCURVE",
"354 796 OFFCURVE",
"325 742 CURVE SMOOTH",
"299 692 OFFCURVE",
"268.95 626.884 OFFCURVE",
"237 553 CURVE SMOOTH",
"195 455 OFFCURVE",
"165 363 OFFCURVE",
"123 230 CURVE SMOOTH",
"102 164 OFFCURVE",
"91 92 OFFCURVE",
"112 43 CURVE SMOOTH"
);
}
);
width = 324;
}
);
note = l;
unicode = 006C;
},
{
glyphname = m;
lastChange = "2020-12-26 02:17:36 +0000";
layers = (
{
layerId = "1691882E-B915-4755-A5B2-757873D945FF";
paths = (
{
closed = 1;
nodes = (
"616 490 LINE",
"611 492 OFFCURVE",
"605 493 OFFCURVE",
"599 493 CURVE SMOOTH",
"549 493 OFFCURVE",
"419 422 OFFCURVE",
"342 353 CURVE SMOOTH",
"303 318 OFFCURVE",
"234 264 OFFCURVE",
"181 214 CURVE",
"221 295 OFFCURVE",
"254 358 OFFCURVE",
"286 403 CURVE SMOOTH",
"321 453 OFFCURVE",
"345 483 OFFCURVE",
"364 496 CURVE",
"336 492 OFFCURVE",
"343 502 OFFCURVE",
"323 502 CURVE SMOOTH",
"302 502 OFFCURVE",
"290 496 OFFCURVE",
"278 484 CURVE SMOOTH",
"268 474 OFFCURVE",
"253 452 OFFCURVE",
"233 418 CURVE SMOOTH",
"203 367 OFFCURVE",
"163 289 OFFCURVE",
"113 184 CURVE SMOOTH",
"89 133 OFFCURVE",
"68 90 OFFCURVE",
"53 57 CURVE SMOOTH",
"38 26 OFFCURVE",
"27 2 OFFCURVE",
"19 -13 CURVE",
"61 11 OFFCURVE",
"65 -21 OFFCURVE",
"89 19 CURVE",
"95 30 OFFCURVE",
"103 42 OFFCURVE",
"108 53 CURVE SMOOTH",
"127 92 OFFCURVE",
"144 128 OFFCURVE",
"169 162 CURVE SMOOTH",
"219 227 OFFCURVE",
"288 279 OFFCURVE",
"335 316 CURVE SMOOTH",
"498 444 OFFCURVE",
"551 460 OFFCURVE",
"498 357 CURVE SMOOTH",
"388 145 OFFCURVE",
"364 97 OFFCURVE",
"348 67 CURVE SMOOTH",
"338 47 OFFCURVE",
"330 35 OFFCURVE",
"302 -13 CURVE",
"344 11 OFFCURVE",
"349 -21 OFFCURVE",
"373 19 CURVE",
"380 33 OFFCURVE",
"388 47 OFFCURVE",
"394 60 CURVE SMOOTH",
"411 97 OFFCURVE",
"426 131 OFFCURVE",
"449 162 CURVE SMOOTH",
"499 227 OFFCURVE",
"564 279 OFFCURVE",
"611 316 CURVE SMOOTH",
"774 444 OFFCURVE",
"833 468 OFFCURVE",
"780 365 CURVE SMOOTH",
"732 272 OFFCURVE",
"657 124 OFFCURVE",
"649 73 CURVE SMOOTH",
"637 1 OFFCURVE",
"736 -64 OFFCURVE",
"828 53 CURVE SMOOTH",
"861 95 OFFCURVE",
"901 148 OFFCURVE",
"957 259 CURVE SMOOTH",
"978 300 OFFCURVE",
"954 306 OFFCURVE",
"936 272 CURVE SMOOTH",
"847 99 OFFCURVE",
"787 25 OFFCURVE",
"736 25 CURVE SMOOTH",
"717 25 OFFCURVE",
"692 41 OFFCURVE",
"692 67 CURVE SMOOTH",
"692 113 OFFCURVE",
"730 196 OFFCURVE",
"795 316 CURVE SMOOTH",
"822 367 OFFCURVE",
"855 425 OFFCURVE",
"892 490 CURVE",
"887 492 OFFCURVE",
"881 493 OFFCURVE",
"875 493 CURVE SMOOTH",
"825 493 OFFCURVE",
"695 422 OFFCURVE",
"618 353 CURVE SMOOTH",
"579 318 OFFCURVE",
"513 272 OFFCURVE",
"466 214 CURVE",
"478.397 238.482 LINE SMOOTH",
"483 248 OFFCURVE",
"488 257 OFFCURVE",
"492.37 265.352 CURVE SMOOTH"
);
}
);
width = 805;
}
);
note = m;
unicode = 006D;
},
{
glyphname = n;
lastChange = "2020-12-25 19:55:36 +0000";
layers = (
{
anchors = (
{
name = top;
position = "{462, 514}";
}
);
layerId = "1691882E-B915-4755-A5B2-757873D945FF";
paths = (
{
closed = 1;
nodes = (
"61 11 OFFCURVE",
"72 -21 OFFCURVE",
"96 19 CURVE",
"101 29 OFFCURVE",
"105 40 OFFCURVE",
"110 50 CURVE SMOOTH",
"129 90 OFFCURVE",
"144 128 OFFCURVE",
"170 162 CURVE SMOOTH",
"220 227 OFFCURVE",
"288 279 OFFCURVE",
"335 316 CURVE SMOOTH",
"498 444 OFFCURVE",
"540 448 OFFCURVE",
"487 345 CURVE SMOOTH",
"439 252 OFFCURVE",
"381 124 OFFCURVE",
"373 73 CURVE SMOOTH",
"361 1 OFFCURVE",
"460 -64 OFFCURVE",
"552 53 CURVE SMOOTH",
"585 95 OFFCURVE",
"625 148 OFFCURVE",
"681 259 CURVE SMOOTH",
"702 300 OFFCURVE",
"678 306 OFFCURVE",
"660 272 CURVE SMOOTH",
"571 99 OFFCURVE",
"511 25 OFFCURVE",
"460 25 CURVE SMOOTH",
"441 25 OFFCURVE",
"416 41 OFFCURVE",
"416 67 CURVE SMOOTH",
"416 113 OFFCURVE",
"454 196 OFFCURVE",
"519 316 CURVE SMOOTH",
"546 367 OFFCURVE",
"579 425 OFFCURVE",
"616 490 CURVE",
"611 492 OFFCURVE",
"605 493 OFFCURVE",
"599 493 CURVE SMOOTH",
"549 493 OFFCURVE",
"423 418 OFFCURVE",
"342 353 CURVE SMOOTH",
"303 322 OFFCURVE",
"227 272 OFFCURVE",
"180 214 CURVE",
"213 280 OFFCURVE",
"243 334 OFFCURVE",
"269 377 CURVE SMOOTH",
"310 442 OFFCURVE",
"342 481 OFFCURVE",
"364 496 CURVE",
"335 494 OFFCURVE",
"343 502 OFFCURVE",
"323 502 CURVE SMOOTH",
"302 502 OFFCURVE",
"290 496 OFFCURVE",
"278 484 CURVE SMOOTH",
"265 471 OFFCURVE",
"244 439 OFFCURVE",
"216 387 CURVE SMOOTH",
"188 338 OFFCURVE",
"154 270 OFFCURVE",
"113 184 CURVE SMOOTH",
"89 132 OFFCURVE",
"68 90 OFFCURVE",
"52 56 CURVE SMOOTH",
"38 25 OFFCURVE",
"27 2 OFFCURVE",
"19 -13 CURVE"
);
}
);
width = 507;
}
);
note = n;
unicode = 006E;
},
{
glyphname = o;
lastChange = "2020-12-25 00:04:12 +0000";
layers = (
{
anchors = (
{
name = top;
position = "{412, 512}";
}
);
layerId = "1691882E-B915-4755-A5B2-757873D945FF";
paths = (
{
closed = 1;
nodes = (
"265 -13 OFFCURVE",
"309 4 OFFCURVE",
"356 40 CURVE",
"379 13 OFFCURVE",
"412 0 OFFCURVE",
"454 0 CURVE SMOOTH",
"513 0 OFFCURVE",
"554 41 OFFCURVE",
"592 95 CURVE SMOOTH",
"634 155 OFFCURVE",
"666 220 OFFCURVE",
"693 275 CURVE SMOOTH",
"699 287 OFFCURVE",
"683 304 OFFCURVE",
"673 286 CURVE SMOOTH",
"665 270 OFFCURVE",
"657 253 OFFCURVE",
"629 203 CURVE SMOOTH",
"588 126 OFFCURVE",
"565 99 OFFCURVE",
"535 67 CURVE SMOOTH",
"510 40 OFFCURVE",
"485 25 OFFCURVE",
"457 25 CURVE SMOOTH",
"422 25 OFFCURVE",
"398 38 OFFCURVE",
"385 64 CURVE",
"442 117 OFFCURVE",
"485 178 OFFCURVE",
"513 245 CURVE SMOOTH",
"536 294 OFFCURVE",
"547 340 OFFCURVE",
"547 383 CURVE SMOOTH",
"547 475 OFFCURVE",
"510 523 OFFCURVE",
"436 523 CURVE SMOOTH",
"336 523 OFFCURVE",
"209 408 OFFCURVE",
"148 266 CURVE SMOOTH",
"125 217 OFFCURVE",
"114 171 OFFCURVE",
"114 129 CURVE SMOOTH",
"114 35 OFFCURVE",
"151 -13 OFFCURVE",
"225 -13 CURVE SMOOTH"
);
},
{
closed = 1;
nodes = (
"156 142 OFFCURVE",
"174 197 OFFCURVE",
"210 270 CURVE SMOOTH",
"269 397 OFFCURVE",
"382 482 OFFCURVE",
"448 482 CURVE SMOOTH",
"486 482 OFFCURVE",
"510 451 OFFCURVE",
"510 401 CURVE SMOOTH",
"510 350 OFFCURVE",
"499 300 OFFCURVE",
"473 248 CURVE SMOOTH",
"451.395 200.862 OFFCURVE",
"409.537 123.826 OFFCURVE",
"379.628 92.662 CURVE",
"380 98 LINE SMOOTH",
"380 118 OFFCURVE",
"372 129 OFFCURVE",
"356 129 CURVE SMOOTH",
"335 129 OFFCURVE",
"309 96 OFFCURVE",
"309 73 CURVE SMOOTH",
"309 59.831 OFFCURVE",
"317.994 53.756 OFFCURVE",
"329.579 53.332 CURVE",
"301.294 31.175 OFFCURVE",
"275.523 19 OFFCURVE",
"253 19 CURVE SMOOTH",
"207 19 OFFCURVE",
"170 39 OFFCURVE",
"163 90 CURVE SMOOTH"
);
}
);
width = 509;
}
);
note = o;
unicode = 006F;
},
{
glyphname = oe;
lastChange = "2020-12-25 20:27:48 +0000";
layers = (
{
anchors = (
{
name = top;
position = "{552, 512}";
}
);
components = (
{
name = e;
transform = "{1, 0, 0, 1, 280, -5}";
}
);
layerId = "1691882E-B915-4755-A5B2-757873D945FF";
paths = (
{
closed = 1;
nodes = (
"385 64 LINE",
"395 73 OFFCURVE",
"404 82 OFFCURVE",
"413 92 CURVE",
"413 137 LINE",
"401 119 OFFCURVE",
"390 103 OFFCURVE",
"380 98 CURVE",
"330 53 LINE",
"301 31 OFFCURVE",
"276 19 OFFCURVE",
"253 19 CURVE SMOOTH",
"207 19 OFFCURVE",
"170 39 OFFCURVE",
"163 90 CURVE SMOOTH",
"156 142 OFFCURVE",
"174 197 OFFCURVE",
"210 270 CURVE SMOOTH",
"269 397 OFFCURVE",
"382 482 OFFCURVE",
"448 482 CURVE SMOOTH",
"486 482 OFFCURVE",
"510 451 OFFCURVE",
"510 401 CURVE SMOOTH",
"510 400 OFFCURVE",
"510 399 OFFCURVE",
"510 397 CURVE",
"544 427 LINE",
"533 490 OFFCURVE",
"497 523 OFFCURVE",
"436 523 CURVE SMOOTH",
"336 523 OFFCURVE",
"209 408 OFFCURVE",
"148 266 CURVE SMOOTH",
"125 217 OFFCURVE",
"114 171 OFFCURVE",
"114 129 CURVE SMOOTH",
"114 35 OFFCURVE",
"151 -13 OFFCURVE",
"225 -13 CURVE SMOOTH",
"265 -13 OFFCURVE",
"309 4 OFFCURVE",
"356 40 CURVE"
);
}
);
width = 664;
}
);
leftMetricsKey = o;
note = oe;
rightMetricsKey = e;
unicode = 0153;
},
{
glyphname = p;
lastChange = "2020-12-24 22:44:47 +0000";
layers = (
{
layerId = "1691882E-B915-4755-A5B2-757873D945FF";
paths = (
{
closed = 1;
nodes = (
"224 22 OFFCURVE",
"206 28 OFFCURVE",
"193 41 CURVE",
"280 203 OFFCURVE",
"346 317 OFFCURVE",
"393 382 CURVE SMOOTH",
"439 447 OFFCURVE",
"480 479 OFFCURVE",
"515 479 CURVE SMOOTH",
"543 479 OFFCURVE",
"579 466 OFFCURVE",
"579 414 CURVE SMOOTH",
"579 334 OFFCURVE",
"531 140 OFFCURVE",
"365 42 CURVE SMOOTH",
"317 14 OFFCURVE",
"270 18 OFFCURVE",
"247 20 CURVE SMOOTH"
);
},
{
closed = 1;
nodes = (
"-36 -352 OFFCURVE",
"-1 -365 OFFCURVE",
"7 -357 CURVE SMOOTH",
"19 -344 OFFCURVE",
"25 -326 OFFCURVE",
"40 -294 CURVE",
"181 19 LINE",
"215 1 OFFCURVE",
"246 -8 OFFCURVE",
"274 -8 CURVE SMOOTH",
"303 -8 OFFCURVE",
"328 -5 OFFCURVE",
"350 1 CURVE SMOOTH",
"476 40 OFFCURVE",
"567 159 OFFCURVE",
"606 275 CURVE SMOOTH",
"620 318 OFFCURVE",
"628 361 OFFCURVE",
"628 400 CURVE SMOOTH",
"628 465 OFFCURVE",
"602 504 OFFCURVE",
"553 517 CURVE SMOOTH",
"545 519 OFFCURVE",
"538 520 OFFCURVE",
"530 520 CURVE SMOOTH",
"503 520 OFFCURVE",
"474 509 OFFCURVE",
"445 481 CURVE SMOOTH",
"400 438 OFFCURVE",
"362 390 OFFCURVE",
"314 313 CURVE SMOOTH",
"284 265 LINE",
"312 340 OFFCURVE",
"332 455 OFFCURVE",
"326 473 CURVE SMOOTH",
"322 485 OFFCURVE",
"284 477 OFFCURVE",
"266 494 CURVE",
"276 478 OFFCURVE",
"278 394 OFFCURVE",
"250 303 CURVE SMOOTH",
"221 210 OFFCURVE",
"110 -56 OFFCURVE",
"22 -222 CURVE",
"-14 -296 OFFCURVE",
"-7 -276 OFFCURVE",
"-55 -364 CURVE"
);
}
);
width = 548;
}
);
note = p;
unicode = 0070;
},
{
glyphname = thorn;
lastChange = "2020-12-25 20:35:17 +0000";
layers = (
{
layerId = "1691882E-B915-4755-A5B2-757873D945FF";
paths = (
{
closed = 1;
nodes = (
"-114 -429 OFFCURVE",
"-78 -403 CURVE SMOOTH",
"-65 -393 OFFCURVE",
"-50 -372 OFFCURVE",
"-34 -340 CURVE SMOOTH",
"140 17 LINE",
"174 -1 OFFCURVE",
"206 -10 OFFCURVE",
"234 -10 CURVE SMOOTH",
"263 -10 OFFCURVE",
"288 -7 OFFCURVE",
"310 -1 CURVE SMOOTH",
"415 32 OFFCURVE",
"505 147 OFFCURVE",
"563 271 CURVE SMOOTH",
"590 329 OFFCURVE",
"597 401 OFFCURVE",
"578 453 CURVE SMOOTH",
"565 491 OFFCURVE",
"537 518 OFFCURVE",
"493 518 CURVE SMOOTH",
"465 518 OFFCURVE",
"433 502 OFFCURVE",
"397 470 CURVE SMOOTH",
"361 437 OFFCURVE",
"303 369 OFFCURVE",
"240 266 CURVE",
"437 775 LINE SMOOTH",
"448 803 OFFCURVE",
"451 826 OFFCURVE",
"451 845 CURVE SMOOTH",
"451 903 OFFCURVE",
"424 885 OFFCURVE",
"403 916 CURVE",
"404 894 OFFCURVE",
"403 856 OFFCURVE",
"380 786 CURVE SMOOTH",
"320 601 OFFCURVE",
"219 323 OFFCURVE",
"112 98 CURVE SMOOTH",
"66 2 OFFCURVE",
"-9 -199 OFFCURVE",
"-88 -319 CURVE SMOOTH",
"-122 -371 OFFCURVE",
"-138 -390 OFFCURVE",
"-149 -400 CURVE",
"-105 -404 OFFCURVE"
);
},
{
closed = 1;
nodes = (
"183 20 OFFCURVE",
"165 27 OFFCURVE",
"152 40 CURVE",
"160 54 OFFCURVE",
"168 68 OFFCURVE",
"174 81 CURVE SMOOTH",
"237 221 OFFCURVE",
"310 321 OFFCURVE",
"353 380 CURVE SMOOTH",
"399 445 OFFCURVE",
"440 478 OFFCURVE",
"475 478 CURVE SMOOTH",
"504 478 OFFCURVE",
"521 461 OFFCURVE",
"530 437 CURVE SMOOTH",
"545 394 OFFCURVE",
"534 326 OFFCURVE",
"512 281 CURVE SMOOTH",
"449 151 OFFCURVE",
"342 20 OFFCURVE",
"206 20 CURVE SMOOTH"
);
}
);
width = 463;
}
);
note = thorn;
unicode = 00FE;
},
{
glyphname = q;
lastChange = "2020-12-24 22:48:27 +0000";
layers = (
{
layerId = "1691882E-B915-4755-A5B2-757873D945FF";
paths = (
{
closed = 1;
nodes = (
"496 251 LINE",
"527 314 OFFCURVE",
"556 377 OFFCURVE",
"577 398 CURVE",
"555 392 OFFCURVE",
"551 401 OFFCURVE",
"528 399 CURVE SMOOTH",
"499 396 OFFCURVE",
"493 382 OFFCURVE",
"455 308 CURVE SMOOTH",
"358 124 OFFCURVE",
"276 32 OFFCURVE",
"216 32 CURVE SMOOTH",
"169 32 OFFCURVE",
"161 68 OFFCURVE",
"161 117 CURVE SMOOTH",
"161 220 OFFCURVE",
"237 325 OFFCURVE",
"293 387 CURVE SMOOTH",
"354 455 OFFCURVE",
"454 489 OFFCURVE",
"497 489 CURVE SMOOTH",
"534 489 OFFCURVE",
"543 463 OFFCURVE",
"569 435 CURVE SMOOTH",
"587 416 OFFCURVE",
"605 457 OFFCURVE",
"585 479 CURVE SMOOTH",
"553 511 OFFCURVE",
"514 527 OFFCURVE",
"468 527 CURVE SMOOTH",
"417 527 OFFCURVE",
"314 499 OFFCURVE",
"237 410 CURVE SMOOTH",
"152 309 OFFCURVE",
"110 209 OFFCURVE",
"110 111 CURVE SMOOTH",
"110 37 OFFCURVE",
"148 -12 OFFCURVE",
"198 -12 CURVE SMOOTH",
"254.763 -12 OFFCURVE",
"322.063 50.258 OFFCURVE",
"399.898 173.836 CURVE",
"359.836 68.141 OFFCURVE",
"294.608 -90.694 OFFCURVE",
"225 -222 CURVE SMOOTH",
"189 -296 OFFCURVE",
"162 -351 OFFCURVE",
"148 -364 CURVE",
"170 -361 OFFCURVE",
"202 -381 OFFCURVE",
"212 -367 CURVE SMOOTH",
"225 -349 OFFCURVE",
"233 -326 OFFCURVE",
"248 -294 CURVE"
);
}
);
width = 603;
}
);
note = q;
unicode = 0071;
},
{
glyphname = r;
lastChange = "2020-12-26 02:22:52 +0000";
layers = (
{
layerId = "1691882E-B915-4755-A5B2-757873D945FF";
paths = (
{
closed = 1;
nodes = (
"352 -14 OFFCURVE",
"390 9 OFFCURVE",
"428 55 CURVE SMOOTH",
"492 129 OFFCURVE",
"514 182 OFFCURVE",
"540 235 CURVE SMOOTH",
"553 261 OFFCURVE",
"558 277 OFFCURVE",
"560 281 CURVE SMOOTH",
"563 289 OFFCURVE",
"551 305 OFFCURVE",
"536 277 CURVE SMOOTH",
"453 110 OFFCURVE",
"392 27 OFFCURVE",
"350 27 CURVE SMOOTH",
"317 27 OFFCURVE",
"312 65 OFFCURVE",
"338 141 CURVE SMOOTH",
"350 176 OFFCURVE",
"369 220 OFFCURVE",
"390 264 CURVE SMOOTH",
"400 283 OFFCURVE",
"409 302 OFFCURVE",
"419 320 CURVE SMOOTH",
"449 378 OFFCURVE",
"481 446 OFFCURVE",
"467 468 CURVE",
"416 463 OFFCURVE",
"373 460 OFFCURVE",
"340 460 CURVE SMOOTH",
"306 460 OFFCURVE",
"279 461 OFFCURVE",
"260 462 CURVE",
"317 515 OFFCURVE",
"311 544 OFFCURVE",
"314 589 CURVE SMOOTH",
"316 622 OFFCURVE",
"315 663 OFFCURVE",
"293 663 CURVE SMOOTH",
"270 663 OFFCURVE",
"257 647 OFFCURVE",
"251 616 CURVE SMOOTH",
"238 543 OFFCURVE",
"222 474 OFFCURVE",
"199 405 CURVE SMOOTH",
"166 306 OFFCURVE",
"143 216 OFFCURVE",
"86 137 CURVE SMOOTH",
"79 127 OFFCURVE",
"83 103 OFFCURVE",
"94 118 CURVE SMOOTH",
"168 218 OFFCURVE",
"193 300 OFFCURVE",
"217 372 CURVE SMOOTH",
"240 442 LINE",
"325 440 OFFCURVE",
"394 450 OFFCURVE",
"400 415 CURVE SMOOTH",
"404 393 OFFCURVE",
"366 325 OFFCURVE",
"339 279 CURVE SMOOTH",
"287 193 OFFCURVE",
"217 -14 OFFCURVE",
"318 -14 CURVE SMOOTH"
);
}
);
width = 373;
}
);
leftMetricsKey = r;
note = r;
rightMetricsKey = r;
unicode = 0072;
},
{
glyphname = s;
lastChange = "2020-12-24 22:51:40 +0000";
layers = (
{
layerId = "1691882E-B915-4755-A5B2-757873D945FF";
paths = (
{
closed = 1;
nodes = (
"151 -24 OFFCURVE",
"172 -19 OFFCURVE",
"195 -9 CURVE",
"230 -19 OFFCURVE",
"266 -18 OFFCURVE",
"303 -6 CURVE SMOOTH",
"326 1 OFFCURVE",
"347 12 OFFCURVE",
"394 63 CURVE SMOOTH",
"422 93 OFFCURVE",
"452 142 OFFCURVE",
"480 179 CURVE SMOOTH",
"506 213 OFFCURVE",
"524 252 OFFCURVE",
"529 266 CURVE SMOOTH",
"533 277 OFFCURVE",
"516 285 OFFCURVE",
"508 269 CURVE SMOOTH",
"455 163 OFFCURVE",
"396 99 OFFCURVE",
"375 78 CURVE SMOOTH",
"328 31 OFFCURVE",
"295 0 OFFCURVE",
"229 10 CURVE",
"287 50 OFFCURVE",
"336 120 OFFCURVE",
"336 186 CURVE SMOOTH",
"336 219 OFFCURVE",
"324 261 OFFCURVE",
"301 313 CURVE SMOOTH",
"281 355 OFFCURVE",
"262 385 OFFCURVE",
"262 441 CURVE SMOOTH",
"262 494 OFFCURVE",
"279 528 OFFCURVE",
"313 544 CURVE SMOOTH",
"335 555 OFFCURVE",
"374 523 OFFCURVE",
"384 546 CURVE SMOOTH",
"391 562 OFFCURVE",
"356 577 OFFCURVE",
"328 577 CURVE SMOOTH",
"275 577 OFFCURVE",
"229 535 OFFCURVE",
"189 450 CURVE SMOOTH",
"153 372 OFFCURVE",
"109 284 OFFCURVE",
"58 187 CURVE",
"11 184 OFFCURVE",
"-8 114 OFFCURVE",
"4 60 CURVE SMOOTH",
"19 4 OFFCURVE",
"62 -24 OFFCURVE",
"133 -24 CURVE SMOOTH"
);
},
{
closed = 1;
nodes = (
"94 1 OFFCURVE",
"52 8 OFFCURVE",
"37 42 CURVE SMOOTH",
"17 88 OFFCURVE",
"14 150 OFFCURVE",
"89 150 CURVE",
"92 98 OFFCURVE",
"116 30 OFFCURVE",
"153 7 CURVE",
"145 3 OFFCURVE",
"135 1 OFFCURVE",
"123 1 CURVE SMOOTH"
);
},
{
closed = 1;
nodes = (
"136 41 OFFCURVE",
"115 80 OFFCURVE",
"115 139 CURVE SMOOTH",
"115 169 OFFCURVE",
"105 184 OFFCURVE",
"84 184 CURVE",
"102 217 OFFCURVE",
"149 310 OFFCURVE",
"225 462 CURVE",
"217 408 OFFCURVE",
"284 298 OFFCURVE",
"284 186 CURVE SMOOTH",
"284 110 OFFCURVE",
"222 55 OFFCURVE",
"178 21 CURVE"
);
}
);
width = 351;
}
);
note = s;
unicode = 0073;
},
{
glyphname = germandbls;
lastChange = "2020-12-25 20:37:41 +0000";
layers = (
{
layerId = "1691882E-B915-4755-A5B2-757873D945FF";
paths = (
{
closed = 1;
nodes = (
"-156 -346 OFFCURVE",
"-110 -330 OFFCURVE",
"-63 -298 CURVE SMOOTH",
"21 -240 OFFCURVE",
"79 -176 OFFCURVE",
"134 -58 CURVE SMOOTH",
"173 27 OFFCURVE",
"198 96 OFFCURVE",
"232 197 CURVE SMOOTH",
"245 234 OFFCURVE",
"259 277 OFFCURVE",
"275 326 CURVE SMOOTH",
"305 416 OFFCURVE",
"327 482 OFFCURVE",
"342 524 CURVE SMOOTH",
"371 606 OFFCURVE",
"426 650 OFFCURVE",
"470 650 CURVE SMOOTH",
"481 650 OFFCURVE",
"492 648 OFFCURVE",
"503 644 CURVE SMOOTH",
"541 631 OFFCURVE",
"559 601 OFFCURVE",
"559 553 CURVE SMOOTH",
"559 526 OFFCURVE",
"547 476 OFFCURVE",
"519 443 CURVE SMOOTH",
"490 408 OFFCURVE",
"455 380 OFFCURVE",
"433 358 CURVE SMOOTH",
"415 339 OFFCURVE",
"405 312 OFFCURVE",
"405 289 CURVE SMOOTH",
"405 278 OFFCURVE",
"412 247 OFFCURVE",
"426 198 CURVE SMOOTH",
"437 158 OFFCURVE",
"443 130 OFFCURVE",
"443 113 CURVE SMOOTH",
"443 64 OFFCURVE",
"429 28 OFFCURVE",
"399 6 CURVE",
"374 18 OFFCURVE",
"357 46 OFFCURVE",
"357 79 CURVE SMOOTH",
"357 86 LINE SMOOTH",
"357 120 OFFCURVE",
"316 131 OFFCURVE",
"293 99 CURVE SMOOTH",
"285 88 OFFCURVE",
"280 76 OFFCURVE",
"280 64 CURVE SMOOTH",
"280 51 OFFCURVE",
"281 40 OFFCURVE",
"283 32 CURVE SMOOTH",
"293 -6 OFFCURVE",
"322 -24 OFFCURVE",
"369 -24 CURVE SMOOTH",
"381 -24 OFFCURVE",
"395 -21 OFFCURVE",
"410 -14 CURVE",
"433 -21 OFFCURVE",
"457 -20 OFFCURVE",
"482 -12 CURVE SMOOTH",
"497 -8 OFFCURVE",
"511 0 OFFCURVE",
"522 12 CURVE SMOOTH",
"543 34 LINE SMOOTH",
"556 47 OFFCURVE",
"571 71 OFFCURVE",
"580 86 CURVE SMOOTH",
"584 93 OFFCURVE",
"589 103 OFFCURVE",
"595 115 CURVE SMOOTH",
"608 140 OFFCURVE",
"619 164 OFFCURVE",
"621 173 CURVE",
"621 178 OFFCURVE",
"618 180 OFFCURVE",
"612 180 CURVE SMOOTH",
"609 180 OFFCURVE",
"607 178 OFFCURVE",
"605 175 CURVE SMOOTH",
"569 105 OFFCURVE",
"544 61 OFFCURVE",
"530 44 CURVE SMOOTH",
"504 12 OFFCURVE",
"478 -3 OFFCURVE",
"451 -3 CURVE SMOOTH",
"448 -3 OFFCURVE",
"442 -2 OFFCURVE",
"433 -1 CURVE",
"472 26 OFFCURVE",
"504 73 OFFCURVE",
"504 113 CURVE SMOOTH",
"504 147 OFFCURVE",
"482 199 OFFCURVE",
"438 269 CURVE SMOOTH",
"420 297 OFFCURVE",
"423 328 OFFCURVE",
"455 360 CURVE SMOOTH",
"465 369 OFFCURVE",
"474 376 OFFCURVE",
"482 382 CURVE SMOOTH",
"511 402 LINE SMOOTH",
"572 444 OFFCURVE",
"602 494 OFFCURVE",
"602 552 CURVE SMOOTH",
"602 605 OFFCURVE",
"583 643 OFFCURVE",
"530 662 CURVE SMOOTH",
"477 680 OFFCURVE",
"436 682 OFFCURVE",
"401 659 CURVE SMOOTH",
"371 638 OFFCURVE",
"342 602 OFFCURVE",
"315 550 CURVE",
"252 396 OFFCURVE",
"217 278 OFFCURVE",
"185 195 CURVE SMOOTH",
"171 155 OFFCURVE",
"152 106 OFFCURVE",
"129 49 CURVE SMOOTH",
"40 -175 OFFCURVE",
"-65 -291 OFFCURVE",
"-185 -321 CURVE SMOOTH",
"-216 -330 OFFCURVE",
"-248 -315 OFFCURVE",
"-263 -276 CURVE",
"-171 -304 OFFCURVE",
"-179 -272 OFFCURVE",
"-179 -241 CURVE SMOOTH",
"-179 -209 OFFCURVE",
"-290 -208 OFFCURVE",
"-290 -280 CURVE SMOOTH",
"-290 -324 OFFCURVE",
"-257 -346 OFFCURVE",
"-200 -346 CURVE SMOOTH"
);
},
{
closed = 1;
nodes = (
"343 -7 OFFCURVE",
"313 10 OFFCURVE",
"304 33 CURVE SMOOTH",
"298 49 OFFCURVE",
"302 72 OFFCURVE",
"308 82 CURVE SMOOTH",
"317 100 OFFCURVE",
"338 96 OFFCURVE",
"342 82 CURVE SMOOTH",
"352 48 OFFCURVE",
"334 21 OFFCURVE",
"382 -3 CURVE",
"377 -6 OFFCURVE",
"370 -7 OFFCURVE",
"362 -7 CURVE SMOOTH"
);
}
);
width = 585;
}
);
note = germandbls;
unicode = 00DF;
},
{
glyphname = u;
lastChange = "2020-12-24 22:58:34 +0000";
layers = (
{
anchors = (
{
name = top;
position = "{492, 519}";
}
);
layerId = "1691882E-B915-4755-A5B2-757873D945FF";
paths = (
{
closed = 1;
nodes = (
"321 -5 OFFCURVE",
"378 59 OFFCURVE",
"451 187 CURVE",
"437 141 OFFCURVE",
"427 86 OFFCURVE",
"436 45 CURVE SMOOTH",
"444 9 OFFCURVE",
"473 -11 OFFCURVE",
"491 -11 CURVE SMOOTH",
"526 -11 OFFCURVE",
"569 20 OFFCURVE",
"601 61 CURVE SMOOTH",
"637 106 OFFCURVE",
"684 175 OFFCURVE",
"720 246 CURVE SMOOTH",
"746 297 OFFCURVE",
"723 307 OFFCURVE",
"710 283 CURVE SMOOTH",
"618 119 OFFCURVE",
"557 25 OFFCURVE",
"510 25 CURVE SMOOTH",
"488 25 OFFCURVE",
"475 52 OFFCURVE",
"475 84 CURVE SMOOTH",
"475 96 OFFCURVE",
"477 109 OFFCURVE",
"480 123 CURVE SMOOTH",
"487 162 OFFCURVE",
"519 241 OFFCURVE",
"579 361 CURVE SMOOTH",
"623 453 OFFCURVE",
"636 476 OFFCURVE",
"671 510 CURVE",
"603 510 LINE SMOOTH",
"593 510 OFFCURVE",
"541 401 OFFCURVE",
"524 368 CURVE SMOOTH",
"453 229 OFFCURVE",
"394 137 OFFCURVE",
"351 87 CURVE SMOOTH",
"317 47 OFFCURVE",
"263 27 OFFCURVE",
"241 27 CURVE SMOOTH",
"213 27 OFFCURVE",
"167 43 OFFCURVE",
"167 87 CURVE SMOOTH",
"167 126 OFFCURVE",
"196 198 OFFCURVE",
"229 274 CURVE SMOOTH",
"281 394 OFFCURVE",
"332 485 OFFCURVE",
"376 510 CURVE",
"331 510 LINE SMOOTH",
"302 510 OFFCURVE",
"286 499 OFFCURVE",
"273 478 CURVE SMOOTH",
"251 444 OFFCURVE",
"211 367 OFFCURVE",
"177 284 CURVE SMOOTH",
"143 201 OFFCURVE",
"120 118 OFFCURVE",
"120 81 CURVE SMOOTH",
"120 54 OFFCURVE",
"138 -5 OFFCURVE",
"219 -5 CURVE SMOOTH"
);
}
);
width = 552;
}
);
note = u;
unicode = 0075;
},
{
glyphname = v;
lastChange = "2020-12-25 00:55:34 +0000";
layers = (
{
layerId = "1691882E-B915-4755-A5B2-757873D945FF";
paths = (
{
closed = 1;
nodes = (
"285 -14 OFFCURVE",
"326 46 OFFCURVE",
"391 166 CURVE SMOOTH",
"427 234 OFFCURVE",
"471 340 OFFCURVE",
"511 487 CURVE SMOOTH",
"518 513 LINE",
"518 529 OFFCURVE",
"510 543 OFFCURVE",
"494 538 CURVE SMOOTH",
"442 523 OFFCURVE",
"427 477 OFFCURVE",
"416 427 CURVE SMOOTH",
"409 395 OFFCURVE",
"388 315 OFFCURVE",
"406 277 CURVE",
"336 103 OFFCURVE",
"295 17 OFFCURVE",
"223 16 CURVE SMOOTH",
"206 16 OFFCURVE",
"173 52 OFFCURVE",
"168 101 CURVE SMOOTH",
"162 152 OFFCURVE",
"185 216 OFFCURVE",
"202 268 CURVE SMOOTH",
"211 295 OFFCURVE",
"219 332 OFFCURVE",
"294 510 CURVE",
"201 511 LINE SMOOTH",
"172 511 OFFCURVE",
"220 495 OFFCURVE",
"211 474 CURVE",
"135 251 LINE SMOOTH",
"108 172 OFFCURVE",
"108 -14 OFFCURVE",
"208 -14 CURVE SMOOTH"
);
}
);
width = 371;
}
);
leftMetricsKey = u;
note = v;
unicode = 0076;
},
{
glyphname = w;
lastChange = "2020-12-24 23:01:51 +0000";
layers = (
{
layerId = "1691882E-B915-4755-A5B2-757873D945FF";
paths = (
{
closed = 1;
nodes = (
"553 -14 OFFCURVE",
"624 46 OFFCURVE",
"689 166 CURVE SMOOTH",
"725 234 OFFCURVE",
"769 340 OFFCURVE",
"809 487 CURVE SMOOTH",
"816 513 LINE",
"816 529 OFFCURVE",
"808 543 OFFCURVE",
"792 538 CURVE SMOOTH",
"740 523 OFFCURVE",
"725 477 OFFCURVE",
"714 427 CURVE SMOOTH",
"707 395 OFFCURVE",
"686 315 OFFCURVE",
"704 277 CURVE",
"634 103 OFFCURVE",
"563 16 OFFCURVE",
"491 16 CURVE SMOOTH",
"483 16 LINE SMOOTH",
"456 16 OFFCURVE",
"431 36 OFFCURVE",
"431 72 CURVE SMOOTH",
"431 100 OFFCURVE",
"430 166 OFFCURVE",
"470 268 CURVE SMOOTH",
"481 295 OFFCURVE",
"496 328 OFFCURVE",
"517 365 CURVE SMOOTH",
"531 391 OFFCURVE",
"549 419 OFFCURVE",
"567 450 CURVE SMOOTH",
"576 466 OFFCURVE",
"589 478 OFFCURVE",
"608 493 CURVE SMOOTH",
"623 505 LINE",
"566 505 LINE SMOOTH",
"537 505 OFFCURVE",
"518 495 OFFCURVE",
"509 474 CURVE SMOOTH",
"506 465 OFFCURVE",
"490 431 OFFCURVE",
"461 373 CURVE SMOOTH",
"438 328 OFFCURVE",
"397 231 OFFCURVE",
"306 99 CURVE SMOOTH",
"278 61 OFFCURVE",
"240 21 OFFCURVE",
"216 21 CURVE SMOOTH",
"172 21 OFFCURVE",
"146 38 OFFCURVE",
"146 83 CURVE SMOOTH",
"146 175 OFFCURVE",
"235 412 OFFCURVE",
"348 505 CURVE",
"306 505 LINE SMOOTH",
"277 505 OFFCURVE",
"260 495 OFFCURVE",
"248 474 CURVE SMOOTH",
"201 395 OFFCURVE",
"166 329 OFFCURVE",
"143 275 CURVE SMOOTH",
"98 167 OFFCURVE",
"95 105 OFFCURVE",
"95 76 CURVE SMOOTH",
"95 33 OFFCURVE",
"139 -11 OFFCURVE",
"192 -11 CURVE SMOOTH",
"251 -11 OFFCURVE",
"318 57 OFFCURVE",
"392 192 CURVE",
"376 136 OFFCURVE",
"366 66 OFFCURVE",
"402 14 CURVE SMOOTH",
"415 -5 OFFCURVE",
"440 -14 OFFCURVE",
"476 -14 CURVE SMOOTH"
);
}
);
width = 669;
}
);
note = w;
unicode = 0077;
},
{
glyphname = x;
lastChange = "2020-12-25 18:04:22 +0000";
layers = (
{
layerId = "1691882E-B915-4755-A5B2-757873D945FF";
paths = (
{
closed = 1;
nodes = (
"60 -60 OFFCURVE",
"134 13 OFFCURVE",
"209 161 CURVE",
"208 154 OFFCURVE",
"208 141 OFFCURVE",
"208 122 CURVE SMOOTH",
"208 59 OFFCURVE",
"245 -10 OFFCURVE",
"317 -10 CURVE SMOOTH",
"353 -10 OFFCURVE",
"372 -7 OFFCURVE",
"410 24 CURVE SMOOTH",
"459 66 OFFCURVE",
"542 205 OFFCURVE",
"565 262 CURVE SMOOTH",
"581 301 OFFCURVE",
"563 308 OFFCURVE",
"543 268 CURVE SMOOTH",
"528 238 OFFCURVE",
"493 177 OFFCURVE",
"435 91 CURVE SMOOTH",
"388 24 OFFCURVE",
"356 18 OFFCURVE",
"325 27 CURVE SMOOTH",
"306 31 OFFCURVE",
"275 47 OFFCURVE",
"267 76 CURVE SMOOTH",
"264 92 OFFCURVE",
"262 109 OFFCURVE",
"262 127 CURVE SMOOTH",
"262 145 OFFCURVE",
"264 164 OFFCURVE",
"267 183 CURVE",
"295 273 OFFCURVE",
"383 378 OFFCURVE",
"442 435 CURVE",
"454 393 OFFCURVE",
"524 405 OFFCURVE",
"536 461 CURVE SMOOTH",
"545 500 OFFCURVE",
"501 503 OFFCURVE",
"478 500 CURVE",
"437 488 OFFCURVE",
"339 390 OFFCURVE",
"286 292 CURVE",
"292 323 OFFCURVE",
"295 350 OFFCURVE",
"295 372 CURVE SMOOTH",
"295 435 OFFCURVE",
"294 473 OFFCURVE",
"249 473 CURVE SMOOTH",
"241 473 LINE SMOOTH",
"219 473 OFFCURVE",
"196 463 OFFCURVE",
"169 440 CURVE SMOOTH",
"141 415 OFFCURVE",
"101 344 OFFCURVE",
"44 227 CURVE SMOOTH",
"30 200 OFFCURVE",
"42 182 OFFCURVE",
"55 204 CURVE SMOOTH",
"69 229 OFFCURVE",
"89 271 OFFCURVE",
"146 373 CURVE SMOOTH",
"198 457 OFFCURVE",
"239 445 OFFCURVE",
"240 399 CURVE SMOOTH",
"240 392 OFFCURVE",
"241 383 OFFCURVE",
"240 373 CURVE SMOOTH",
"240 350 OFFCURVE",
"237 321 OFFCURVE",
"227 286 CURVE SMOOTH",
"191 156 OFFCURVE",
"94 13 OFFCURVE",
"34 -16 CURVE SMOOTH",
"4 -29 OFFCURVE",
"-24 -29 OFFCURVE",
"-37 -19 CURVE SMOOTH",
"-44 -13 OFFCURVE",
"-50 -9 OFFCURVE",
"-55 -12 CURVE SMOOTH",
"-70 -19 OFFCURVE",
"-71 -28 OFFCURVE",
"-64 -38 CURVE SMOOTH",
"-53 -56 OFFCURVE",
"-32 -60 OFFCURVE",
"-12 -60 CURVE SMOOTH"
);
}
);
width = 394;
}
);
note = x;
unicode = 0078;
},
{
glyphname = y;
lastChange = "2020-12-25 20:19:44 +0000";
layers = (
{
anchors = (
{
name = top;
position = "{425, 509}";
}
);
layerId = "1691882E-B915-4755-A5B2-757873D945FF";
paths = (
{
closed = 1;
nodes = (
"499 241 LINE",
"445 26 LINE",
"352 -7 LINE SMOOTH",
"223 -53 OFFCURVE",
"33 -177 OFFCURVE",
"25 -294 CURVE SMOOTH",
"19 -377 OFFCURVE",
"96 -382 OFFCURVE",
"147 -382 CURVE SMOOTH",
"180 -382 OFFCURVE",
"213 -374 OFFCURVE",
"245 -358 CURVE SMOOTH",
"301 -329 OFFCURVE",
"350 -268 OFFCURVE",
"392 -198 CURVE SMOOTH",
"424 -143 OFFCURVE",
"441 -95 OFFCURVE",
"463 -36 CURVE SMOOTH",
"475 -3 LINE",
"532 21 OFFCURVE",
"600 110 OFFCURVE",
"678 267 CURVE",
"692 300 OFFCURVE",
"668 305 OFFCURVE",
"657 279 CURVE SMOOTH",
"617 197 OFFCURVE",
"576 131 OFFCURVE",
"535 80 CURVE SMOOTH",
"516 56 OFFCURVE",
"499 40 OFFCURVE",
"484 32 CURVE",
"494.499 86.918 OFFCURVE",
"545.437 261.848 OFFCURVE",
"567.282 337.658 CURVE",
"579 361 LINE SMOOTH",
"625 452 OFFCURVE",
"636 476 OFFCURVE",
"671 510 CURVE",
"603 510 LINE SMOOTH",
"593 510 OFFCURVE",
"541 401 OFFCURVE",
"524 368 CURVE SMOOTH",
"453 229 OFFCURVE",
"394 137 OFFCURVE",
"351 87 CURVE SMOOTH",
"317 47 OFFCURVE",
"263 27 OFFCURVE",
"241 27 CURVE SMOOTH",
"213 27 OFFCURVE",
"167 43 OFFCURVE",
"167 87 CURVE SMOOTH",
"167 126 OFFCURVE",
"196 198 OFFCURVE",
"229 274 CURVE SMOOTH",
"281 394 OFFCURVE",
"332 485 OFFCURVE",
"376 510 CURVE",
"331 510 LINE SMOOTH",
"302 510 OFFCURVE",
"286 499 OFFCURVE",
"273 478 CURVE SMOOTH",
"251 444 OFFCURVE",
"211 367 OFFCURVE",
"177 284 CURVE SMOOTH",
"143 201 OFFCURVE",
"120 118 OFFCURVE",
"120 81 CURVE SMOOTH",
"120 54 OFFCURVE",
"138 -5 OFFCURVE",
"219 -5 CURVE SMOOTH",
"321 -5 OFFCURVE",
"398 59 OFFCURVE",
"471 187 CURVE"
);
},
{
closed = 1;
nodes = (
"71 -200 OFFCURVE",
"142 -167 OFFCURVE",
"217 -113 CURVE SMOOTH",
"297 -54 OFFCURVE",
"408 -17 OFFCURVE",
"434 -7 CURVE",
"419 -80 OFFCURVE",
"386 -146 OFFCURVE",
"353 -191 CURVE SMOOTH",
"314 -244 OFFCURVE",
"288 -282 OFFCURVE",
"258 -307 CURVE SMOOTH",
"223 -336 OFFCURVE",
"181 -348 OFFCURVE",
"158 -348 CURVE SMOOTH",
"130 -348 OFFCURVE",
"63 -352 OFFCURVE",
"66 -295 CURVE SMOOTH"
);
}
);
width = 592;
}
);
note = y;
unicode = 0079;
},
{
glyphname = z;
lastChange = "2020-12-25 20:21:34 +0000";
layers = (
{
layerId = "1691882E-B915-4755-A5B2-757873D945FF";
paths = (
{
closed = 1;
nodes = (
"87 -348 OFFCURVE",
"20 -352 OFFCURVE",
"23 -295 CURVE SMOOTH",
"28 -200 OFFCURVE",
"99 -167 OFFCURVE",
"174 -113 CURVE SMOOTH",
"254 -54 OFFCURVE",
"365 -17 OFFCURVE",
"391 -7 CURVE",
"376 -80 OFFCURVE",
"343 -146 OFFCURVE",
"310 -191 CURVE SMOOTH",
"271 -244 OFFCURVE",
"245 -282 OFFCURVE",
"215 -307 CURVE SMOOTH",
"180 -336 OFFCURVE",
"138 -348 OFFCURVE",
"115 -348 CURVE SMOOTH"
);
},
{
closed = 1;
nodes = (
"-24 -377 OFFCURVE",
"53 -382 OFFCURVE",
"104 -382 CURVE SMOOTH",
"137 -382 OFFCURVE",
"170 -374 OFFCURVE",
"202 -358 CURVE SMOOTH",
"258 -329 OFFCURVE",
"307 -268 OFFCURVE",
"349 -198 CURVE SMOOTH",
"381 -143 OFFCURVE",
"398 -95 OFFCURVE",
"420 -36 CURVE SMOOTH",
"432 -3 LINE",
"489 21 OFFCURVE",
"557 110 OFFCURVE",
"635 267 CURVE",
"649 300 OFFCURVE",
"625 305 OFFCURVE",
"614 279 CURVE SMOOTH",
"574 197 OFFCURVE",
"533 131 OFFCURVE",
"492 80 CURVE SMOOTH",
"473 56 OFFCURVE",
"456 40 OFFCURVE",
"441 32 CURVE",
"356 127 OFFCURVE",
"291 147 OFFCURVE",
"237 147 CURVE",
"459 227 OFFCURVE",
"570 321 OFFCURVE",
"570 430 CURVE SMOOTH",
"570 494 OFFCURVE",
"522 523 OFFCURVE",
"456 523 CURVE SMOOTH",
"364 523 OFFCURVE",
"273 468 OFFCURVE",
"183 358 CURVE",
"183 351 LINE",
"194 342 LINE",
"201 342 LINE",
"280 431 OFFCURVE",
"390 475 OFFCURVE",
"449 475 CURVE SMOOTH",
"488 475 OFFCURVE",
"517 458 OFFCURVE",
"517 423 CURVE SMOOTH",
"517 388 OFFCURVE",
"498 353 OFFCURVE",
"473 319 CURVE SMOOTH",
"421 248 OFFCURVE",
"275 181 OFFCURVE",
"122 118 CURVE",
"116 111 LINE",
"117 97 LINE",
"128 93 LINE",
"250 126 OFFCURVE",
"330 101 OFFCURVE",
"401 27 CURVE",
"309 -7 LINE SMOOTH",
"181 -54 OFFCURVE",
"-10 -177 OFFCURVE",
"-18 -294 CURVE SMOOTH"
);
}
);
width = 439;
}
);
note = z;
unicode = 007A;
},
{
glyphname = r.001;
lastChange = "2020-12-26 03:01:00 +0000";
layers = (
{
layerId = "1691882E-B915-4755-A5B2-757873D945FF";
paths = (
{
closed = 1;
nodes = (
"171 141 LINE SMOOTH",
"249 308 OFFCURVE",
"284 347 OFFCURVE",
"331 412 CURVE SMOOTH",
"355 446 OFFCURVE",
"379 473 OFFCURVE",
"400 489 CURVE SMOOTH",
"420 504 OFFCURVE",
"436 509 OFFCURVE",
"453 509 CURVE SMOOTH",
"459 509 OFFCURVE",
"466 508 OFFCURVE",
"473 507 CURVE",
"487 548 LINE",
"481 549 OFFCURVE",
"475 550 OFFCURVE",
"468 550 CURVE SMOOTH",
"453 550 OFFCURVE",
"417 546 OFFCURVE",
"379 518 CURVE SMOOTH",
"347 494 OFFCURVE",
"314 448 OFFCURVE",
"292 413 CURVE SMOOTH",
"262 365 LINE",
"290 440 OFFCURVE",
"310 555 OFFCURVE",
"304 573 CURVE SMOOTH",
"300 585 OFFCURVE",
"262 577 OFFCURVE",
"244 594 CURVE",
"254 578 OFFCURVE",
"256 494 OFFCURVE",
"228 403 CURVE SMOOTH",
"205 330 OFFCURVE",
"133 152 OFFCURVE",
"60 -1 CURVE",
"105 -1 LINE"
);
}
);
width = 300;
}
);
note = r;
rightMetricsKey = r;
},
{
glyphname = ffi;
lastChange = "2020-12-26 02:15:27 +0000";
layers = (
{
components = (
{
name = f;
},
{
name = i;
transform = "{1, 0, 0, 1, 514, 0}";
}
);
layerId = "1691882E-B915-4755-A5B2-757873D945FF";
paths = (
{
closed = 1;
nodes = (
"726 258 LINE",
"578 262 LINE SMOOTH",
"537 263 OFFCURVE",
"506 244 OFFCURVE",
"488 224 CURVE",
"485 229 OFFCURVE",
"481 233 OFFCURVE",
"476 236 CURVE",
"530 354 OFFCURVE",
"598 504 OFFCURVE",
"683 696 CURVE SMOOTH",
"705 745 OFFCURVE",
"735 800 OFFCURVE",
"765 829 CURVE",
"734 819 OFFCURVE",
"716 829 OFFCURVE",
"701 820 CURVE SMOOTH",
"680 808 OFFCURVE",
"672 785 OFFCURVE",
"655 755 CURVE SMOOTH",
"649 745 OFFCURVE",
"641 727 OFFCURVE",
"631 704 CURVE SMOOTH",
"585 599 OFFCURVE",
"499 381 OFFCURVE",
"438 232 CURVE",
"414 218 OFFCURVE",
"392 185 OFFCURVE",
"392 160 CURVE SMOOTH",
"392 151 OFFCURVE",
"395 144 OFFCURVE",
"400 140 CURVE",
"390 118 LINE SMOOTH",
"286 -110 OFFCURVE",
"280 -180 OFFCURVE",
"280 -222 CURVE SMOOTH",
"280 -293 OFFCURVE",
"330 -338 OFFCURVE",
"404 -338 CURVE SMOOTH",
"501 -338 OFFCURVE",
"534 -299 OFFCURVE",
"541 -184 CURVE SMOOTH",
"546 -94 OFFCURVE",
"524 119 OFFCURVE",
"502 199 CURVE",
"495 197 LINE",
"514 209 OFFCURVE",
"541 228 OFFCURVE",
"564 228 CURVE SMOOTH",
"709 225 LINE"
);
},
{
closed = 1;
nodes = (
"316 -135 OFFCURVE",
"351 -44 OFFCURVE",
"429 132 CURVE",
"441 133 OFFCURVE",
"453 137 OFFCURVE",
"465 145 CURVE",
"469 52 OFFCURVE",
"518 -101 OFFCURVE",
"511 -201 CURVE SMOOTH",
"506 -276 OFFCURVE",
"452 -316 OFFCURVE",
"412 -316 CURVE SMOOTH",
"376 -316 OFFCURVE",
"316 -288 OFFCURVE",
"316 -209 CURVE SMOOTH"
);
}
);
width = 762;
}
);
leftMetricsKey = f;
note = ffi;
rightMetricsKey = i;
unicode = FB03;
},
{
glyphname = ffl;
lastChange = "2020-12-25 20:18:26 +0000";
layers = (
{
components = (
{
name = f;
},
{
name = l;
transform = "{1, 0, 0, 1, 505, 0}";
}
);
layerId = "1691882E-B915-4755-A5B2-757873D945FF";
paths = (
{
closed = 1;
nodes = (
"672 260 LINE",
"585 262 LINE SMOOTH",
"544 263 OFFCURVE",
"513 244 OFFCURVE",
"495 224 CURVE",
"492 229 OFFCURVE",
"488 233 OFFCURVE",
"483 236 CURVE",
"537 354 OFFCURVE",
"605 504 OFFCURVE",
"690 696 CURVE SMOOTH",
"712 745 OFFCURVE",
"742 800 OFFCURVE",
"772 829 CURVE",
"741 819 OFFCURVE",
"723 829 OFFCURVE",
"708 820 CURVE SMOOTH",
"687 808 OFFCURVE",
"679 785 OFFCURVE",
"662 755 CURVE SMOOTH",
"656 745 OFFCURVE",
"648 727 OFFCURVE",
"638 704 CURVE SMOOTH",
"592 599 OFFCURVE",
"506 381 OFFCURVE",
"445 232 CURVE",
"421 218 OFFCURVE",
"399 185 OFFCURVE",
"399 160 CURVE SMOOTH",
"399 151 OFFCURVE",
"402 144 OFFCURVE",
"407 140 CURVE",
"397 118 LINE SMOOTH",
"293 -110 OFFCURVE",
"287 -180 OFFCURVE",
"287 -222 CURVE SMOOTH",
"287 -293 OFFCURVE",
"337 -338 OFFCURVE",
"411 -338 CURVE SMOOTH",
"508 -338 OFFCURVE",
"541 -299 OFFCURVE",
"548 -184 CURVE SMOOTH",
"553 -94 OFFCURVE",
"531 119 OFFCURVE",
"509 199 CURVE",
"502 197 LINE",
"521 209 OFFCURVE",
"548 228 OFFCURVE",
"571 228 CURVE SMOOTH",
"662 226 LINE"
);
},
{
closed = 1;
nodes = (
"323 -135 OFFCURVE",
"358 -44 OFFCURVE",
"436 132 CURVE",
"448 133 OFFCURVE",
"460 137 OFFCURVE",
"472 145 CURVE",
"476 52 OFFCURVE",
"525 -101 OFFCURVE",
"518 -201 CURVE SMOOTH",
"513 -276 OFFCURVE",
"459 -316 OFFCURVE",
"419 -316 CURVE SMOOTH",
"383 -316 OFFCURVE",
"323 -288 OFFCURVE",
"323 -209 CURVE SMOOTH"
);
}
);
width = 829;
}
);
leftMetricsKey = f;
note = ffl;
rightMetricsKey = l;
unicode = FB04;
},
{
glyphname = fi;
lastChange = "2020-12-26 02:14:57 +0000";
layers = (
{
components = (
{
name = i;
transform = "{1, 0, 0, 1, 175, 0}";
}
);
layerId = "1691882E-B915-4755-A5B2-757873D945FF";
paths = (
{
closed = 1;
nodes = (
"359 258 LINE",
"248 262 LINE SMOOTH",
"207 263 OFFCURVE",
"176 244 OFFCURVE",
"158 224 CURVE",
"155 229 OFFCURVE",
"151 233 OFFCURVE",
"146 236 CURVE",
"200 354 OFFCURVE",
"268 504 OFFCURVE",
"353 696 CURVE SMOOTH",
"375 745 OFFCURVE",
"405 800 OFFCURVE",
"435 829 CURVE",
"404 819 OFFCURVE",
"386 829 OFFCURVE",
"371 820 CURVE SMOOTH",
"350 808 OFFCURVE",
"342 785 OFFCURVE",
"325 755 CURVE SMOOTH",
"319 745 OFFCURVE",
"311 727 OFFCURVE",
"301 704 CURVE SMOOTH",
"255 599 OFFCURVE",
"169 381 OFFCURVE",
"108 232 CURVE",
"84 218 OFFCURVE",
"62 185 OFFCURVE",
"62 160 CURVE SMOOTH",
"62 151 OFFCURVE",
"65 144 OFFCURVE",
"70 140 CURVE",
"60 118 LINE SMOOTH",
"-44 -110 OFFCURVE",
"-50 -180 OFFCURVE",
"-50 -222 CURVE SMOOTH",
"-50 -293 OFFCURVE",
"0 -338 OFFCURVE",
"74 -338 CURVE SMOOTH",
"171 -338 OFFCURVE",
"204 -299 OFFCURVE",
"211 -184 CURVE SMOOTH",
"216 -94 OFFCURVE",
"194 119 OFFCURVE",
"172 199 CURVE",
"165 197 LINE",
"184 209 OFFCURVE",
"211 229 OFFCURVE",
"234 228 CURVE SMOOTH",
"342 225 LINE"
);
},
{
closed = 1;
nodes = (
"-14 -135 OFFCURVE",
"21 -44 OFFCURVE",
"99 132 CURVE",
"111 133 OFFCURVE",
"123 137 OFFCURVE",
"135 145 CURVE",
"139 52 OFFCURVE",
"188 -101 OFFCURVE",
"181 -201 CURVE SMOOTH",
"176 -276 OFFCURVE",
"122 -316 OFFCURVE",
"82 -316 CURVE SMOOTH",
"46 -316 OFFCURVE",
"-14 -288 OFFCURVE",
"-14 -209 CURVE SMOOTH"
);
}
);
width = 423;
}
);
note = fi;
rightMetricsKey = i;
unicode = FB01;
},
{
glyphname = fl;
lastChange = "2020-12-26 02:16:12 +0000";
layers = (
{
components = (
{
name = l;
transform = "{1, 0, 0, 1, 208, 0}";
}
);
layerId = "1691882E-B915-4755-A5B2-757873D945FF";
paths = (
{
closed = 1;
nodes = (
"375 260 LINE",
"288 262 LINE SMOOTH",
"247 263 OFFCURVE",
"216 244 OFFCURVE",
"198 224 CURVE",
"195 229 OFFCURVE",
"191 233 OFFCURVE",
"186 236 CURVE",
"240 354 OFFCURVE",
"308 504 OFFCURVE",
"393 696 CURVE SMOOTH",
"415 745 OFFCURVE",
"445 800 OFFCURVE",
"475 829 CURVE",
"444 819 OFFCURVE",
"426 829 OFFCURVE",
"411 820 CURVE SMOOTH",
"390 808 OFFCURVE",
"382 785 OFFCURVE",
"365 755 CURVE SMOOTH",
"359 745 OFFCURVE",
"351 727 OFFCURVE",
"341 704 CURVE SMOOTH",
"295 599 OFFCURVE",
"209 381 OFFCURVE",
"148 232 CURVE",
"124 218 OFFCURVE",
"102 185 OFFCURVE",
"102 160 CURVE SMOOTH",
"102 151 OFFCURVE",
"105 144 OFFCURVE",
"110 140 CURVE",
"100 118 LINE SMOOTH",
"-4 -110 OFFCURVE",
"-10 -180 OFFCURVE",
"-10 -222 CURVE SMOOTH",
"-10 -293 OFFCURVE",
"40 -338 OFFCURVE",
"114 -338 CURVE SMOOTH",
"211 -338 OFFCURVE",
"244 -299 OFFCURVE",
"251 -184 CURVE SMOOTH",
"256 -94 OFFCURVE",
"234 119 OFFCURVE",
"212 199 CURVE",
"205 197 LINE",
"224 209 OFFCURVE",
"251 228 OFFCURVE",
"274 228 CURVE SMOOTH",
"365 226 LINE"
);
},
{
closed = 1;
nodes = (
"26 -135 OFFCURVE",
"61 -44 OFFCURVE",
"139 132 CURVE",
"151 133 OFFCURVE",
"163 137 OFFCURVE",
"175 145 CURVE",
"179 52 OFFCURVE",
"228 -101 OFFCURVE",
"221 -201 CURVE SMOOTH",
"216 -276 OFFCURVE",
"162 -316 OFFCURVE",
"122 -316 CURVE SMOOTH",
"86 -316 OFFCURVE",
"26 -288 OFFCURVE",
"26 -209 CURVE SMOOTH"
);
}
);
width = 532;
}
);
leftMetricsKey = f;
note = fl;
rightMetricsKey = l;
unicode = FB02;
},
{
glyphname = ordfeminine;
lastChange = "2020-12-26 02:12:36 +0000";
layers = (
{
layerId = "1691882E-B915-4755-A5B2-757873D945FF";
paths = (
{
closed = 1;
nodes = (
"74 456 OFFCURVE",
"108 489 OFFCURVE",
"148 554 CURVE",
"132 487 OFFCURVE",
"153 447 OFFCURVE",
"183 458 CURVE",
"214 458 OFFCURVE",
"253 504 OFFCURVE",
"300 597 CURVE",
"307 609 OFFCURVE",
"297 621 OFFCURVE",
"289 603 CURVE SMOOTH",
"246 519 OFFCURVE",
"214 477 OFFCURVE",
"193 477 CURVE SMOOTH",
"192 477 LINE SMOOTH",
"185 477 OFFCURVE",
"181 487 OFFCURVE",
"181 506 CURVE SMOOTH",
"181 525 OFFCURVE",
"193 557 OFFCURVE",
"216 602 CURVE SMOOTH",
"233 634 OFFCURVE",
"246 654 OFFCURVE",
"255 662 CURVE",
"203 649 OFFCURVE",
"216 700 OFFCURVE",
"172 617 CURVE SMOOTH",
"122 525 OFFCURVE",
"83 479 OFFCURVE",
"54 479 CURVE SMOOTH",
"41 479 OFFCURVE",
"34 488 OFFCURVE",
"34 508 CURVE SMOOTH",
"34 527 OFFCURVE",
"45 556 OFFCURVE",
"67 593 CURVE SMOOTH",
"115 670 OFFCURVE",
"160 708 OFFCURVE",
"202 708 CURVE SMOOTH",
"215 708 OFFCURVE",
"225 699 OFFCURVE",
"231 681 CURVE",
"243 677 OFFCURVE",
"248 692 OFFCURVE",
"238 702 CURVE SMOOTH",
"222 718 OFFCURVE",
"203 726 OFFCURVE",
"180 726 CURVE SMOOTH",
"136 726 OFFCURVE",
"97 707 OFFCURVE",
"64 668 CURVE SMOOTH",
"21 616 OFFCURVE",
"0 566 OFFCURVE",
"0 519 CURVE SMOOTH",
"0 481 OFFCURVE",
"23 456 OFFCURVE",
"45 456 CURVE SMOOTH"
);
}
);
width = 304;
}
);
note = ordfeminine;
unicode = 00AA;
},
{
glyphname = ordmasculine;
lastChange = "2020-12-26 02:12:27 +0000";
layers = (
{
layerId = "1691882E-B915-4755-A5B2-757873D945FF";
paths = (
{
closed = 1;
nodes = (
"66 463 LINE SMOOTH",
"86 463 OFFCURVE",
"107 472 OFFCURVE",
"129 489 CURVE",
"152 462 OFFCURVE",
"184 462 OFFCURVE",
"224 490 CURVE SMOOTH",
"244 504 OFFCURVE",
"267 542 OFFCURVE",
"293 603 CURVE SMOOTH",
"298 612 OFFCURVE",
"288 619 OFFCURVE",
"284 610 CURVE SMOOTH",
"261 559 OFFCURVE",
"257 546 OFFCURVE",
"222 505 CURVE",
"181 471 OFFCURVE",
"173 477 OFFCURVE",
"143 501 CURVE",
"242 590 OFFCURVE",
"245 726 OFFCURVE",
"170 726 CURVE SMOOTH",
"167 726 LINE SMOOTH",
"119 726 OFFCURVE",
"55 668 OFFCURVE",
"30 607 CURVE SMOOTH",
"17 576 OFFCURVE",
"11 551 OFFCURVE",
"11 532 CURVE SMOOTH",
"11 493 OFFCURVE",
"27 463 OFFCURVE",
"63 463 CURVE SMOOTH"
);
},
{
closed = 1;
nodes = (
"-3 480 OFFCURVE",
"75 702 OFFCURVE",
"177 702 CURVE SMOOTH",
"194 702 OFFCURVE",
"203 686 OFFCURVE",
"203 656 CURVE SMOOTH",
"203 626 OFFCURVE",
"187 586 OFFCURVE",
"156 537 CURVE",
"158 546 LINE SMOOTH",
"158 560 OFFCURVE",
"150 567 OFFCURVE",
"135 567 CURVE SMOOTH",
"119 567 OFFCURVE",
"110 556 OFFCURVE",
"108 535 CURVE SMOOTH",
"108 523 OFFCURVE",
"112 511 OFFCURVE",
"120 498 CURVE",
"105 486 OFFCURVE",
"91 480 OFFCURVE",
"77 480 CURVE SMOOTH"
);
}
);
width = 315;
}
);
note = ordmasculine;
unicode = 00BA;
},
{
glyphname = pi;
lastChange = "2020-12-25 20:19:56 +0000";
layers = (
{
layerId = "1691882E-B915-4755-A5B2-757873D945FF";
paths = (
{
closed = 1;
nodes = (
"179 -19 LINE",
"281 464 LINE",
"298 459 OFFCURVE",
"327 448 OFFCURVE",
"369 431 CURVE SMOOTH",
"411 414 OFFCURVE",
"444 403 OFFCURVE",
"468 398 CURVE",
"380 -15 LINE",
"407 -15 LINE",
"494 395 LINE",
"510 395 OFFCURVE",
"524 397 OFFCURVE",
"536 401 CURVE SMOOTH",
"578 419 OFFCURVE",
"644 492 OFFCURVE",
"642 530 CURVE SMOOTH",
"642 533 LINE SMOOTH",
"642 539 OFFCURVE",
"632 537 OFFCURVE",
"622 517 CURVE SMOOTH",
"609 492 OFFCURVE",
"583 461 OFFCURVE",
"526 461 CURVE SMOOTH",
"497 461 OFFCURVE",
"452 474 OFFCURVE",
"390 501 CURVE SMOOTH",
"328 527 OFFCURVE",
"287 540 OFFCURVE",
"266 540 CURVE SMOOTH",
"200 540 OFFCURVE",
"125 481 OFFCURVE",
"125 410 CURVE SMOOTH",
"125 382 OFFCURVE",
"134 413 OFFCURVE",
"164 450 CURVE SMOOTH",
"188 478 OFFCURVE",
"224 474 OFFCURVE",
"255 470 CURVE",
"152 -19 LINE"
);
}
);
width = 572;
}
);
note = pi;
unicode = 03C0;
},
{
glyphname = "le-ethiopic";
lastChange = "2020-12-25 20:40:46 +0000";
layers = (
{
components = (
{
name = la.base;
}
);
layerId = "1691882E-B915-4755-A5B2-757873D945FF";
paths = (
{
closed = 1;
nodes = (
"282 37 OFFCURVE",
"285 90 OFFCURVE",
"249 118 CURVE SMOOTH",
"230 135 OFFCURVE",
"189 145 OFFCURVE",
"147 132 CURVE SMOOTH",
"90 114 OFFCURVE",
"73 72 OFFCURVE",
"73 46 CURVE SMOOTH",
"73 -17 OFFCURVE",
"168 -50 OFFCURVE",
"240 4 CURVE SMOOTH"
);
},
{
closed = 1;
nodes = (
"93 -10 OFFCURVE",
"98 123 OFFCURVE",
"178 128 CURVE SMOOTH",
"210 130 OFFCURVE",
"232 101 OFFCURVE",
"230 61 CURVE SMOOTH",
"225 23 OFFCURVE",
"199 -10 OFFCURVE",
"167 -10 CURVE SMOOTH"
);
}
);
width = 507;
}
);
leftMetricsKey = la.base;
rightMetricsKey = la.base;
unicode = 120D;
},
{
glyphname = "xe-ethiopic";
lastChange = "2020-12-26 01:29:04 +0000";
layers = (
{
components = (
{
name = nna.base;
},
{
name = _smart.he;
transform = "{1, 0, 0, 1, 179, -75}";
}
);
layerId = "1691882E-B915-4755-A5B2-757873D945FF";
paths = (
{
closed = 1;
nodes = (
"98 366 LINE",
"138 355 LINE",
"180 475 LINE",
"140 486 LINE"
);
}
);
userData = {
_smart.he = 1;
};
width = 373;
}
);
leftMetricsKey = nna.base;
rightMetricsKey = nna.base;
unicode = 1285;
},
{
glyphname = "yaa-ethiopic";
lastChange = "2020-12-25 18:20:23 +0000";
layers = (
{
components = (
{
name = ya.base;
transform = "{1, 0, 0, 1, 129, 0}";
}
);
layerId = "1691882E-B915-4755-A5B2-757873D945FF";
paths = (
{
closed = 1;
nodes = (
"106 -201 LINE",
"129 -228 LINE",
"314 -67 LINE",
"290 -40 LINE"
);
}
);
userData = {
_smart.haa.acute = 1;
};
width = 677;
}
);
leftMetricsKey = ya.base;
rightMetricsKey = ya.base;
unicode = 12EB;
},
{
glyphname = "phaa-ethiopic";
lastChange = "2020-12-25 18:32:13 +0000";
layers = (
{
components = (
{
name = tsa.base;
},
{
name = _smart.neck;
transform = "{1, 0, 0, 1, 448, 124}";
}
);
layerId = "1691882E-B915-4755-A5B2-757873D945FF";
paths = (
{
closed = 1;
nodes = (
"444 -326 LINE",
"490 -326 LINE",
"490 -141 LINE",
"453 -141 LINE"
);
}
);
userData = {
_smart.haa = 1;
_smart.neck = 1;
};
width = 603;
}
);
unicode = 1333;
},
{
glyphname = "tsaa-ethiopic";
lastChange = "2020-12-25 18:30:19 +0000";
layers = (
{
anchors = (
{
name = _haa;
position = "{224.799, -150.442}";
}
);
components = (
{
name = tsa.base;
}
);
layerId = "1691882E-B915-4755-A5B2-757873D945FF";
paths = (
{
closed = 1;
nodes = (
"444 -326 LINE",
"490 -326 LINE",
"490 -141 LINE",
"453 -141 LINE"
);
}
);
userData = {
_smart.haa = 1;
};
width = 603;
}
);
unicode = 133B;
},
{
glyphname = "le-ethiopic.etcp";
lastChange = "2020-12-25 21:02:53 +0000";
layers = (
{
anchors = (
{
name = _top;
position = "{729, -112}";
}
);
components = (
{
name = la.base.cap;
transform = "{1, 0, 0, 1, -13, 0}";
}
);
layerId = "1691882E-B915-4755-A5B2-757873D945FF";
paths = (
{
closed = 1;
nodes = (
"988 27 OFFCURVE",
"990 80 OFFCURVE",
"954 108 CURVE SMOOTH",
"935 125 OFFCURVE",
"894 135 OFFCURVE",
"852 122 CURVE SMOOTH",
"795 104 OFFCURVE",
"779 62 OFFCURVE",
"779 36 CURVE SMOOTH",
"779 -27 OFFCURVE",
"873 -60 OFFCURVE",
"945 -6 CURVE SMOOTH"
);
},
{
closed = 1;
nodes = (
"814 -7 OFFCURVE",
"818 100 OFFCURVE",
"882 105 CURVE SMOOTH",
"908 107 OFFCURVE",
"926 83 OFFCURVE",
"924 51 CURVE SMOOTH",
"920 19 OFFCURVE",
"899 -7 OFFCURVE",
"873 -7 CURVE SMOOTH"
);
}
);
userData = {
_smart.ring = 1;
};
width = 1153;
}
);
leftMetricsKey = la.base;
rightMetricsKey = la.base;
},
{
glyphname = "xe-ethiopic.etcp";
lastChange = "2020-12-26 01:34:06 +0000";
layers = (
{
components = (
{
name = nna.base.cap;
transform = "{1, 0, 0, 1, 86, 0}";
},
{
name = _smart.he;
transform = "{1, 0, 0, 1, 457, 227}";
}
);
layerId = "1691882E-B915-4755-A5B2-757873D945FF";
paths = (
{
closed = 1;
nodes = (
"422 570 LINE",
"453 570 LINE",
"453 760 LINE",
"422 760 LINE"
);
}
);
userData = {
_smart.he.cap = 1;
};
width = 659;
}
);
leftMetricsKey = nna.base;
rightMetricsKey = nna.base;
},
{
glyphname = "ne-ethiopic.etcp";
lastChange = "2020-12-26 01:45:54 +0000";
layers = (
{
components = (
{
name = ga.base.cap;
}
);
layerId = "1691882E-B915-4755-A5B2-757873D945FF";
paths = (
{
closed = 1;
nodes = (
"345 337 OFFCURVE",
"485 337 OFFCURVE",
"485 395 CURVE SMOOTH",
"485 423 OFFCURVE",
"474 437 OFFCURVE",
"452 437 CURVE SMOOTH",
"423 437 OFFCURVE",
"345 418 OFFCURVE",
"345 388 CURVE SMOOTH"
);
},
{
closed = 1;
nodes = (
"431 237 LINE",
"485 267 LINE",
"485 408 LINE",
"431 408 LINE"
);
}
);
userData = {
_smart.he = 1;
};
width = 600;
}
);
},
{
glyphname = "nye-ethiopic.etcp";
lastChange = "2020-12-26 01:46:13 +0000";
layers = (
{
components = (
{
name = ga.base.cap;
transform = "{1, 0, 0, 1, 30, 0}";
},
{
name = _smart.hat;
transform = "{1, 0, 0, 1, 533, 459}";
}
);
layerId = "1691882E-B915-4755-A5B2-757873D945FF";
paths = (
{
closed = 1;
nodes = (
"375 337 OFFCURVE",
"515 337 OFFCURVE",
"515 395 CURVE SMOOTH",
"515 423 OFFCURVE",
"504 437 OFFCURVE",
"482 437 CURVE SMOOTH",
"453 437 OFFCURVE",
"375 418 OFFCURVE",
"375 388 CURVE SMOOTH"
);
},
{
closed = 1;
nodes = (
"461 237 LINE",
"515 267 LINE",
"515 408 LINE",
"461 408 LINE"
);
}
);
userData = {
_smart.hat = 1;
_smart.he = 1;
};
width = 603;
}
);
leftMetricsKey = ga.base;
rightMetricsKey = ga.base;
},
{
glyphname = "waGlottal-ethiopic.etcp";
lastChange = "2020-12-26 01:48:50 +0000";
layers = (
{
components = (
{
name = ba.base.cap;
},
{
name = _smart.aGl.cap;
transform = "{1, 0, 0, 1, 510, 360}";
}
);
layerId = "1691882E-B915-4755-A5B2-757873D945FF";
paths = (
{
closed = 1;
nodes = (
"793 1096 LINE",
"794 1129 LINE",
"718 1131 LINE",
"480 1131 LINE",
"434 1129 LINE",
"434 1098 LINE",
"480 1096 LINE"
);
}
);
userData = {
_smart.aGl.cap = 1;
_smart.hat.left = 1;
_smart.ka.cap.cap = 1;
};
width = 1039;
}
);
},
{
glyphname = "ggo-ethiopic.etcp";
lastChange = "2020-12-26 02:36:19 +0000";
layers = (
{
anchors = (
{
name = _top;
position = "{691, 665}";
}
);
components = (
{
name = ga.base.cap;
transform = "{1, 0, 0, 1, 160, 0}";
},
{
name = _smart.hat;
transform = "{1, 0, 0, 1, 663, 459}";
}
);
layerId = "1691882E-B915-4755-A5B2-757873D945FF";
paths = (
{
closed = 1;
nodes = (
"810 804 OFFCURVE",
"812 857 OFFCURVE",
"776 885 CURVE SMOOTH",
"757 902 OFFCURVE",
"716 912 OFFCURVE",
"674 899 CURVE SMOOTH",
"617 881 OFFCURVE",
"601 839 OFFCURVE",
"601 813 CURVE SMOOTH",
"601 750 OFFCURVE",
"695 717 OFFCURVE",
"767 771 CURVE SMOOTH"
);
},
{
closed = 1;
nodes = (
"636 770 OFFCURVE",
"640 877 OFFCURVE",
"704 882 CURVE SMOOTH",
"730 884 OFFCURVE",
"748 860 OFFCURVE",
"746 828 CURVE SMOOTH",
"742 796 OFFCURVE",
"721 770 OFFCURVE",
"695 770 CURVE SMOOTH"
);
}
);
userData = {
_smart.hat = 1;
_smart.neck = 1;
};
width = 733;
}
);
leftMetricsKey = ga.base;
rightMetricsKey = ga.base;
},
{
glyphname = "xe-ethiopic.001";
lastChange = "2020-12-26 02:56:52 +0000";
layers = (
{
components = (
{
name = nna.base.001;
transform = "{1, 0, 0, 1, 89, 0}";
},
{
name = _smart.he;
transform = "{1, 0, 0, 1, 126, -97}";
}
);
layerId = "1691882E-B915-4755-A5B2-757873D945FF";
paths = (
{
closed = 1;
nodes = (
"105 325 LINE",
"141 325 LINE",
"141 459 LINE",
"105 459 LINE"
);
}
);
userData = {
_smart.he = 1;
};
width = 334;
}
);
leftMetricsKey = nna.base;
rightMetricsKey = nna.base;
},
{
glyphname = "two-ethiopic";
lastChange = "2020-12-26 01:22:42 +0000";
layers = (
{
components = (
{
alignment = -1;
name = _number.bars;
transform = "{1, 0, 0, 1, 157, 0}";
},
{
name = three;
transform = "{1, 0, 0, 1, 237, 0}";
}
);
layerId = "1691882E-B915-4755-A5B2-757873D945FF";
paths = (
{
closed = 1;
nodes = (
"202 23 LINE",
"210 36 OFFCURVE",
"219 51 OFFCURVE",
"228 66 CURVE SMOOTH",
"312 208 OFFCURVE",
"375 359 OFFCURVE",
"476 545 CURVE SMOOTH",
"484 559 OFFCURVE",
"499 576 OFFCURVE",
"506 590 CURVE",
"461 571 LINE",
"451 553 OFFCURVE",
"438 535 OFFCURVE",
"428 516 CURVE SMOOTH",
"327 330 LINE SMOOTH",
"260 206 OFFCURVE",
"214 127 OFFCURVE",
"168 47 CURVE"
);
}
);
width = 826;
}
);
leftMetricsKey = four;
rightMetricsKey = four;
unicode = 136A;
},
{
glyphname = "three-ethiopic";
lastChange = "2020-12-26 00:43:13 +0000";
layers = (
{
components = (
{
name = _number.bars;
transform = "{1, 0, 0, 1, 157, 0}";
}
);
layerId = "1691882E-B915-4755-A5B2-757873D945FF";
paths = (
{
closed = 1;
nodes = (
"432 382 LINE",
"569 639 LINE",
"682 632 LINE SMOOTH",
"750 628 OFFCURVE",
"830 638 OFFCURVE",
"857 710 CURVE",
"852 713 LINE",
"802 674 OFFCURVE",
"725 684 OFFCURVE",
"677 691 CURVE SMOOTH",
"641 696 OFFCURVE",
"603 709 OFFCURVE",
"563 696 CURVE",
"558 677 OFFCURVE",
"395 382 OFFCURVE",
"384 350 CURVE",
"384 343 LINE",
"391 341 LINE",
"400 346 OFFCURVE",
"408 350 OFFCURVE",
"418 355 CURVE"
);
},
{
closed = 1;
nodes = (
"230 3 OFFCURVE",
"253 6 OFFCURVE",
"257 8 CURVE",
"622 694 LINE",
"563 696 LINE",
"522 621 LINE",
"197 9 LINE",
"192 0 LINE"
);
}
);
width = 826;
}
);
leftMetricsKey = four;
rightMetricsKey = four;
unicode = 136B;
},
{
glyphname = "five-ethiopic";
lastChange = "2020-12-26 00:43:01 +0000";
layers = (
{
components = (
{
name = _number.bars;
transform = "{1, 0, 0, 1, 157, 0}";
},
{
name = macron;
transform = "{1, 0, 0, 1, 250, 0}";
}
);
layerId = "1691882E-B915-4755-A5B2-757873D945FF";
paths = (
{
closed = 1;
nodes = (
"617 29 LINE",
"616 28 OFFCURVE",
"342 26 OFFCURVE",
"286 26 CURVE SMOOTH",
"232 26 OFFCURVE",
"212 84 OFFCURVE",
"214 127 CURVE SMOOTH",
"217 209 OFFCURVE",
"282 326 OFFCURVE",
"384 447 CURVE SMOOTH",
"434 506 OFFCURVE",
"486 560 OFFCURVE",
"618 679 CURVE SMOOTH",
"625 687 OFFCURVE",
"628 693 OFFCURVE",
"630 695 CURVE",
"622 708 LINE",
"614 707 LINE",
"514 636 OFFCURVE",
"416 552 OFFCURVE",
"324 454 CURVE SMOOTH",
"223 347 OFFCURVE",
"154 217 OFFCURVE",
"154 126 CURVE SMOOTH",
"154 34 OFFCURVE",
"202 -9 OFFCURVE",
"288 -11 CURVE SMOOTH",
"370 -13 OFFCURVE",
"470 -13 OFFCURVE",
"617 -13 CURVE"
);
}
);
width = 826;
}
);
leftMetricsKey = four;
rightMetricsKey = four;
unicode = 136D;
},
{
glyphname = "twenty-ethiopic";
lastChange = "2020-12-26 00:51:53 +0000";
layers = (
{
components = (
{
name = _number.bars;
transform = "{1, 0, 0, 1, 157, 0}";
},
{
name = macron;
transform = "{1, 0, 0, 0, 157, 0}";
},
{
name = macron;
transform = "{1, 0, 0, 1, 307, 197}";
}
);
layerId = "1691882E-B915-4755-A5B2-757873D945FF";
paths = (
{
closed = 1;
nodes = (
"272 27 LINE",
"229 37 OFFCURVE",
"212 88 OFFCURVE",
"214 127 CURVE SMOOTH",
"217 209 OFFCURVE",
"282 326 OFFCURVE",
"384 447 CURVE SMOOTH",
"434 506 OFFCURVE",
"486 560 OFFCURVE",
"618 679 CURVE SMOOTH",
"625 687 OFFCURVE",
"628 693 OFFCURVE",
"630 695 CURVE",
"622 708 LINE",
"614 707 LINE",
"514 636 OFFCURVE",
"416 552 OFFCURVE",
"324 454 CURVE SMOOTH",
"223 347 OFFCURVE",
"154 217 OFFCURVE",
"154 126 CURVE SMOOTH",
"154 43 OFFCURVE",
"193 -2 OFFCURVE",
"264 -10 CURVE"
);
},
{
closed = 1;
nodes = (
"609 154 OFFCURVE",
"525 461 OFFCURVE",
"422 503 CURVE",
"415 498 LINE",
"412 487 LINE",
"413 482 LINE",
"430 470 OFFCURVE",
"447 452 OFFCURVE",
"464 427 CURVE SMOOTH",
"533 329 OFFCURVE",
"517 113 OFFCURVE",
"435 14 CURVE",
"491 -11 LINE"
);
}
);
width = 826;
}
);
leftMetricsKey = four;
rightMetricsKey = four;
unicode = 1373;
},
{
glyphname = "thirty-ethiopic";
lastChange = "2020-12-26 00:59:47 +0000";
layers = (
{
components = (
{
name = _number.bars;
transform = "{1, 0, 0, 1, 157, 0}";
}
);
layerId = "1691882E-B915-4755-A5B2-757873D945FF";
paths = (
{
closed = 1;
nodes = (
"480 3 OFFCURVE",
"500 0 OFFCURVE",
"507 8 CURVE",
"872 694 LINE",
"805 697 LINE",
"772 621 LINE",
"447 9 LINE",
"442 0 LINE"
);
},
{
closed = 1;
nodes = (
"120 3 OFFCURVE",
"143 6 OFFCURVE",
"147 8 CURVE",
"512 694 LINE",
"445 697 LINE",
"412 621 LINE",
"87 9 LINE",
"82 0 LINE"
);
},
{
closed = 1;
nodes = (
"300 3 OFFCURVE",
"323 6 OFFCURVE",
"327 8 CURVE",
"692 694 LINE",
"625 697 LINE",
"445 697 LINE",
"428 656 LINE",
"622 661 LINE",
"297 49 LINE",
"262 0 LINE"
);
},
{
closed = 1;
nodes = (
"445 0 LINE",
"522 43 LINE",
"301 43 LINE",
"262 1 LINE"
);
}
);
width = 826;
}
);
leftMetricsKey = four;
rightMetricsKey = four;
unicode = 1374;
},
{
glyphname = "forty-ethiopic";
lastChange = "2020-12-26 00:59:33 +0000";
layers = (
{
components = (
{
name = _number.bars;
transform = "{1, 0, 0, 1, 157, 0}";
},
{
name = _number.bars;
transform = "{1, 0, 0, 1, 157, 0}";
}
);
layerId = "1691882E-B915-4755-A5B2-757873D945FF";
paths = (
{
closed = 1;
nodes = (
"480 3 OFFCURVE",
"500 0 OFFCURVE",
"507 8 CURVE",
"872 694 LINE",
"805 697 LINE",
"772 621 LINE",
"447 9 LINE",
"442 0 LINE"
);
},
{
closed = 1;
nodes = (
"328 347 LINE",
"512 694 LINE",
"445 697 LINE",
"412 621 LINE",
"271 353 LINE"
);
},
{
closed = 1;
nodes = (
"613 661 LINE",
"622 661 LINE",
"447 331 LINE",
"496 326 LINE",
"692 694 LINE",
"634 697 LINE"
);
},
{
closed = 1;
nodes = (
"640 324 LINE",
"658 369 LINE",
"280 369 LINE",
"257 324 LINE"
);
}
);
width = 826;
}
);
leftMetricsKey = four;
rightMetricsKey = four;
unicode = 1375;
},
{
glyphname = "fifty-ethiopic";
lastChange = "2020-12-26 01:00:29 +0000";
layers = (
{
components = (
{
name = _number.bars;
transform = "{1, 0, 0, 1, 157, 0}";
}
);
layerId = "1691882E-B915-4755-A5B2-757873D945FF";
paths = (
{
closed = 1;
nodes = (
"417 3 OFFCURVE",
"437 0 OFFCURVE",
"444 8 CURVE",
"809 694 LINE",
"742 697 LINE",
"709 621 LINE",
"384 9 LINE",
"379 0 LINE"
);
},
{
closed = 1;
nodes = (
"265 347 LINE",
"449 694 LINE",
"382 697 LINE",
"349 621 LINE",
"208 353 LINE"
);
},
{
closed = 1;
nodes = (
"577 324 LINE",
"595 369 LINE",
"217 369 LINE",
"194 324 LINE"
);
}
);
width = 826;
}
);
leftMetricsKey = four;
rightMetricsKey = four;
unicode = 1376;
},
{
glyphname = "sixty-ethiopic";
lastChange = "2020-12-26 01:02:02 +0000";
layers = (
{
components = (
{
name = _number.bars;
transform = "{1, 0, 0, 1, 157, 0}";
},
{
name = one;
transform = "{1, 0, 0, 1, 157, 0}";
},
{
name = grave;
transform = "{0.83867, 0.54464, -0.54464, 0.83867, 643, -598}";
}
);
layerId = "1691882E-B915-4755-A5B2-757873D945FF";
paths = (
{
closed = 1;
nodes = (
"515 344 LINE",
"533 389 LINE",
"333 389 LINE",
"314 344 LINE"
);
}
);
width = 826;
}
);
leftMetricsKey = four;
rightMetricsKey = four;
unicode = 1377;
},
{
glyphname = "seventy-ethiopic";
lastChange = "2020-12-26 01:09:21 +0000";
layers = (
{
components = (
{
name = _number.bars;
transform = "{1, 0, 0, 1, 157, 0}";
}
);
layerId = "1691882E-B915-4755-A5B2-757873D945FF";
paths = (
{
closed = 1;
nodes = (
"319 -63 OFFCURVE",
"422 -42 CURVE SMOOTH",
"481 -30 OFFCURVE",
"539 5 OFFCURVE",
"578 51 CURVE SMOOTH",
"597 74 OFFCURVE",
"579 82 OFFCURVE",
"570 68 CURVE SMOOTH",
"539 19 OFFCURVE",
"480 -10 OFFCURVE",
"422 -17 CURVE SMOOTH",
"342 -27 OFFCURVE",
"257 3 OFFCURVE",
"250 78 CURVE SMOOTH",
"244 138 OFFCURVE",
"289 264 OFFCURVE",
"314 318 CURVE SMOOTH",
"378 455 OFFCURVE",
"469 568 OFFCURVE",
"571 633 CURVE SMOOTH",
"609 657 OFFCURVE",
"686 679 OFFCURVE",
"716 612 CURVE SMOOTH",
"744 547 OFFCURVE",
"683 338 OFFCURVE",
"538 271 CURVE SMOOTH",
"497 253 OFFCURVE",
"458 268 OFFCURVE",
"445 306 CURVE SMOOTH",
"424 365 OFFCURVE",
"470 446 OFFCURVE",
"553 533 CURVE",
"553 539 LINE",
"547 550 LINE",
"541 549 LINE",
"456 464 OFFCURVE",
"382 333 OFFCURVE",
"420 248 CURVE SMOOTH",
"442 199 OFFCURVE",
"509 193 OFFCURVE",
"559 215 CURVE SMOOTH",
"686 272 OFFCURVE",
"785 518 OFFCURVE",
"730 641 CURVE SMOOTH",
"699 710 OFFCURVE",
"627 738 OFFCURVE",
"544 686 CURVE SMOOTH",
"423 610 OFFCURVE",
"330 503 OFFCURVE",
"259 341 CURVE SMOOTH",
"205 217 OFFCURVE",
"193 123 OFFCURVE",
"201 65 CURVE SMOOTH",
"214 -26 OFFCURVE"
);
}
);
width = 826;
}
);
leftMetricsKey = four;
rightMetricsKey = four;
unicode = 1378;
},
{
glyphname = "ninety-ethiopic";
lastChange = "2020-12-26 01:12:08 +0000";
layers = (
{
components = (
{
alignment = -1;
name = _number.bars;
transform = "{1, 0, 0, 1, 157, 0}";
},
{
name = seven;
transform = "{1, 0, 0, 1, 157, 0}";
}
);
layerId = "1691882E-B915-4755-A5B2-757873D945FF";
paths = (
{
closed = 1;
nodes = (
"435 236 LINE",
"479 217 LINE",
"491 447 LINE",
"446 467 LINE"
);
}
);
width = 826;
}
);
leftMetricsKey = four;
rightMetricsKey = four;
unicode = 137A;
},
{
glyphname = "hundred-ethiopic";
lastChange = "2020-12-26 01:19:41 +0000";
layers = (
{
components = (
{
name = _number.bars;
transform = "{1, 0, 0, 1, 157, 0}";
}
);
layerId = "1691882E-B915-4755-A5B2-757873D945FF";
paths = (
{
closed = 1;
nodes = (
"186 4 OFFCURVE",
"208 -9 OFFCURVE",
"214 4 CURVE SMOOTH",
"232 44 OFFCURVE",
"213 92 OFFCURVE",
"215 114 CURVE SMOOTH",
"221 171 OFFCURVE",
"245 220 OFFCURVE",
"264 271 CURVE SMOOTH",
"324 425 OFFCURVE",
"415 560 OFFCURVE",
"539 629 CURVE SMOOTH",
"578 650 OFFCURVE",
"655 668 OFFCURVE",
"682 600 CURVE SMOOTH",
"707 534 OFFCURVE",
"635 328 OFFCURVE",
"486 269 CURVE SMOOTH",
"444 253 OFFCURVE",
"407 270 OFFCURVE",
"395 308 CURVE SMOOTH",
"377 369 OFFCURVE",
"428 447 OFFCURVE",
"515 529 CURVE",
"516 535 LINE",
"510 547 LINE",
"504 546 LINE",
"415 466 OFFCURVE",
"334 339 OFFCURVE",
"368 251 CURVE SMOOTH",
"387 202 OFFCURVE",
"454 192 OFFCURVE",
"505 212 CURVE SMOOTH",
"635 262 OFFCURVE",
"746 502 OFFCURVE",
"698 628 CURVE SMOOTH",
"670 699 OFFCURVE",
"597 717 OFFCURVE",
"511 682 CURVE SMOOTH",
"425 647 OFFCURVE",
"330 544 OFFCURVE",
"270 420 CURVE SMOOTH",
"218 315 OFFCURVE",
"171 215 OFFCURVE",
"154 115 CURVE SMOOTH",
"146 68 OFFCURVE",
"158 35 OFFCURVE",
"145 -8 CURVE"
);
}
);
width = 826;
}
);
leftMetricsKey = four;
rightMetricsKey = four;
unicode = 137B;
},
{
glyphname = "tenthousand-ethiopic";
lastChange = "2020-12-26 01:20:58 +0000";
layers = (
{
components = (
{
name = "hundred-ethiopic";
},
{
name = _number.bars;
transform = "{1, 0, 0, 1, 537, 0}";
},
{
name = "hundred-ethiopic";
transform = "{1, 0, 0, 1, 455, 0}";
}
);
layerId = "1691882E-B915-4755-A5B2-757873D945FF";
paths = (
{
closed = 1;
nodes = (
"628 84 LINE",
"646 129 LINE",
"196 129 LINE",
"177 84 LINE"
);
}
);
width = 1281;
}
);
leftMetricsKey = four;
rightMetricsKey = four;
unicode = 137C;
},
{
glyphname = zero;
lastChange = "2020-12-25 22:38:55 +0000";
layers = (
{
layerId = "1691882E-B915-4755-A5B2-757873D945FF";
paths = (
{
closed = 1;
nodes = (
"306 -3 OFFCURVE",
"451 226 OFFCURVE",
"506 382 CURVE SMOOTH",
"529 447 OFFCURVE",
"550 524 OFFCURVE",
"550 572 CURVE SMOOTH",
"550 661 OFFCURVE",
"513 705 OFFCURVE",
"439 705 CURVE SMOOTH",
"313 705 OFFCURVE",
"158 548 OFFCURVE",
"72 375 CURVE SMOOTH",
"28 289 OFFCURVE",
"7 214 OFFCURVE",
"7 153 CURVE SMOOTH",
"7 65 OFFCURVE",
"50 -3 OFFCURVE",
"145 -3 CURVE SMOOTH"
);
},
{
closed = 1;
nodes = (
"103 21 OFFCURVE",
"67 85 OFFCURVE",
"67 145 CURVE SMOOTH",
"67 195 OFFCURVE",
"89 274 OFFCURVE",
"132 355 CURVE SMOOTH",
"214 513 OFFCURVE",
"356 682 OFFCURVE",
"440 682 CURVE SMOOTH",
"523 682 OFFCURVE",
"536 585 OFFCURVE",
"462 384 CURVE SMOOTH",
"391 204 OFFCURVE",
"252 21 OFFCURVE",
"152 21 CURVE SMOOTH"
);
}
);
width = 502;
}
);
note = zero;
unicode = 0030;
},
{
glyphname = one;
lastChange = "2020-12-25 23:28:07 +0000";
layers = (
{
layerId = "1691882E-B915-4755-A5B2-757873D945FF";
paths = (
{
closed = 1;
nodes = (
"73 3 OFFCURVE",
"96 6 OFFCURVE",
"100 8 CURVE",
"465 694 LINE",
"398 697 LINE SMOOTH",
"369 697 OFFCURVE",
"342 672 OFFCURVE",
"175 559 CURVE SMOOTH",
"143 537 OFFCURVE",
"161 536 OFFCURVE",
"166 537 CURVE",
"180.159 537 OFFCURVE",
"287.522 582.566 OFFCURVE",
"364.915 621.443 CURVE",
"40 9 LINE",
"35 0 LINE"
);
}
);
width = 378;
}
);
note = one;
unicode = 0031;
},
{
glyphname = two;
lastChange = "2020-12-25 23:43:45 +0000";
layers = (
{
layerId = "1691882E-B915-4755-A5B2-757873D945FF";
paths = (
{
closed = 1;
nodes = (
"286 -5 OFFCURVE",
"349 43 OFFCURVE",
"427 138 CURVE",
"427 143 LINE",
"418 150 LINE",
"404 146 OFFCURVE",
"378 113 OFFCURVE",
"343 83 CURVE SMOOTH",
"328 70 OFFCURVE",
"285 32 OFFCURVE",
"266 32 CURVE SMOOTH",
"247 32 OFFCURVE",
"206 49 OFFCURVE",
"114 94 CURVE",
"118 97 OFFCURVE",
"379 346 OFFCURVE",
"478 461 CURVE SMOOTH",
"533 524 OFFCURVE",
"553 574 OFFCURVE",
"553 612 CURVE SMOOTH",
"553 638 OFFCURVE",
"540 658 OFFCURVE",
"522 674 CURVE SMOOTH",
"502 692 OFFCURVE",
"476 701 OFFCURVE",
"444 701 CURVE SMOOTH",
"332 701 OFFCURVE",
"234 597 OFFCURVE",
"192 480 CURVE",
"194 473 LINE",
"209 473 LINE",
"214 478 LINE",
"249 570 OFFCURVE",
"329 664 OFFCURVE",
"409 665 CURVE SMOOTH",
"463 666 OFFCURVE",
"493 646 OFFCURVE",
"493 611 CURVE SMOOTH",
"493 576 OFFCURVE",
"484 526 OFFCURVE",
"438 471 CURVE SMOOTH",
"356 373 OFFCURVE",
"227 247 OFFCURVE",
"76 108 CURVE",
"71 111 OFFCURVE",
"62 112 OFFCURVE",
"50 109 CURVE SMOOTH",
"42 107 OFFCURVE",
"-48 18 OFFCURVE",
"-50 10 CURVE",
"-34 0 LINE",
"50 66 LINE",
"82 55 OFFCURVE",
"160 -5 OFFCURVE",
"238 -5 CURVE SMOOTH"
);
}
);
width = 488;
}
);
note = two;
unicode = 0032;
},
{
glyphname = three;
lastChange = "2020-12-25 23:04:42 +0000";
layers = (
{
layerId = "1691882E-B915-4755-A5B2-757873D945FF";
paths = (
{
closed = 1;
nodes = (
"30 23 OFFCURVE",
"2 28 OFFCURVE",
"-23 40 CURVE",
"-30 38 LINE",
"-38 31 LINE",
"-38 25 LINE",
"20 -17 OFFCURVE",
"120 -15 OFFCURVE",
"226 38 CURVE SMOOTH",
"281 66 OFFCURVE",
"328 103 OFFCURVE",
"369 151 CURVE SMOOTH",
"410 198 OFFCURVE",
"430 247 OFFCURVE",
"430 289 CURVE SMOOTH",
"430 375 OFFCURVE",
"346 402 OFFCURVE",
"267 402 CURVE",
"340 428 OFFCURVE",
"398 456 OFFCURVE",
"441 486 CURVE SMOOTH",
"503 529 OFFCURVE",
"534 577 OFFCURVE",
"534 628 CURVE SMOOTH",
"534 679 OFFCURVE",
"495 703 OFFCURVE",
"442 703 CURVE SMOOTH",
"369 703 OFFCURVE",
"296 659 OFFCURVE",
"224 571 CURVE",
"224 565 LINE",
"233 558 LINE",
"238 558 LINE",
"314 643 OFFCURVE",
"391 667 OFFCURVE",
"439 665 CURVE SMOOTH",
"466 664 OFFCURVE",
"474 648 OFFCURVE",
"474 627 CURVE SMOOTH",
"474 581 OFFCURVE",
"448 541 OFFCURVE",
"409 507 CURVE SMOOTH",
"344 448 OFFCURVE",
"243 407 OFFCURVE",
"175 379 CURVE",
"170 373 LINE",
"171 362 LINE",
"180 359 LINE",
"345 379 OFFCURVE",
"370 322 OFFCURVE",
"370 292 CURVE SMOOTH",
"370 261 OFFCURVE",
"357 212 OFFCURVE",
"309 165 CURVE SMOOTH",
"267 124 OFFCURVE",
"219 83 OFFCURVE",
"166 56 CURVE SMOOTH",
"124 35 OFFCURVE",
"86 23 OFFCURVE",
"61 23 CURVE SMOOTH"
);
}
);
width = 458;
}
);
note = three;
unicode = 0033;
},
{
glyphname = four;
lastChange = "2020-12-25 23:08:44 +0000";
layers = (
{
layerId = "1691882E-B915-4755-A5B2-757873D945FF";
paths = (
{
closed = 1;
nodes = (
"290 0 LINE",
"292 4 OFFCURVE",
"311 43 OFFCURVE",
"338 97 CURVE SMOOTH",
"356 132 OFFCURVE",
"378 176 OFFCURVE",
"406 232 CURVE",
"440 233 LINE",
"449 239 LINE",
"455 252 LINE",
"448 257 LINE",
"419 257 LINE",
"430 276 OFFCURVE",
"501 412 OFFCURVE",
"500 416 CURVE SMOOTH",
"498 424 LINE",
"491 428 LINE",
"478 425 OFFCURVE",
"473 423 OFFCURVE",
"460 420 CURVE SMOOTH",
"452 418 OFFCURVE",
"447 412 OFFCURVE",
"443 404 CURVE SMOOTH",
"364 253 LINE",
"84 248 LINE",
"92 256 OFFCURVE",
"187 340 OFFCURVE",
"366 504 CURVE SMOOTH",
"418 553 OFFCURVE",
"458 591 OFFCURVE",
"485 620 CURVE SMOOTH",
"514 650 OFFCURVE",
"528 669 OFFCURVE",
"526 677 CURVE SMOOTH",
"524 685 LINE",
"516 689 LINE",
"487 684 OFFCURVE",
"472 692 OFFCURVE",
"425 634 CURVE SMOOTH",
"353 536 OFFCURVE",
"232 436 OFFCURVE",
"128 332 CURVE SMOOTH",
"76 279 OFFCURVE",
"45 245 OFFCURVE",
"38 231 CURVE",
"38 221 LINE",
"349 228 LINE",
"321 178 OFFCURVE",
"295 135 OFFCURVE",
"278 100 CURVE SMOOTH",
"246 37 OFFCURVE",
"240 17 OFFCURVE",
"240 0 CURVE"
);
}
);
width = 464;
}
);
note = four;
unicode = 0034;
},
{
glyphname = five;
lastChange = "2020-12-25 23:44:29 +0000";
layers = (
{
layerId = "1691882E-B915-4755-A5B2-757873D945FF";
paths = (
{
closed = 1;
nodes = (
"42 -46 OFFCURVE",
"410 101 OFFCURVE",
"410 339 CURVE SMOOTH",
"410 408 OFFCURVE",
"361 444 OFFCURVE",
"290 444 CURVE SMOOTH",
"237 444 OFFCURVE",
"193 426 OFFCURVE",
"140 390 CURVE",
"302 659 LINE",
"414 655 LINE SMOOTH",
"483 653 OFFCURVE",
"511 650 OFFCURVE",
"559 715 CURVE",
"554 718 LINE",
"503 679 OFFCURVE",
"427 689 OFFCURVE",
"378 696 CURVE SMOOTH",
"343 701 OFFCURVE",
"318 702 OFFCURVE",
"278 689 CURVE",
"275 687 OFFCURVE",
"269 678 OFFCURVE",
"261 665 CURVE SMOOTH",
"225 609 OFFCURVE",
"147 472 OFFCURVE",
"108 399 CURVE SMOOTH",
"96 377 OFFCURVE",
"88 361 OFFCURVE",
"86 355 CURVE",
"86 348 LINE",
"94 346 LINE",
"152 379 OFFCURVE",
"219 413 OFFCURVE",
"270 416 CURVE SMOOTH",
"317 419 OFFCURVE",
"350 395 OFFCURVE",
"350 336 CURVE SMOOTH",
"350 202 OFFCURVE",
"157 31 OFFCURVE",
"22 31 CURVE SMOOTH",
"-8 31 OFFCURVE",
"-33 34 OFFCURVE",
"-52 42 CURVE",
"-57 39 LINE",
"-64 31 LINE",
"-64 22 LINE"
);
}
);
width = 445;
}
);
note = five;
unicode = 0035;
},
{
glyphname = six;
lastChange = "2020-12-26 00:35:37 +0000";
layers = (
{
layerId = "1691882E-B915-4755-A5B2-757873D945FF";
paths = (
{
closed = 1;
nodes = (
"216 -11 OFFCURVE",
"318 79 OFFCURVE",
"386 181 CURVE SMOOTH",
"419 231 OFFCURVE",
"433 266 OFFCURVE",
"433 312 CURVE SMOOTH",
"433 368 OFFCURVE",
"402 407 OFFCURVE",
"348 407 CURVE SMOOTH",
"249 407 OFFCURVE",
"151 286 OFFCURVE",
"126 179 CURVE",
"129 171 LINE",
"141 173 LINE",
"145 179 LINE",
"172 245 OFFCURVE",
"204 297 OFFCURVE",
"244 334 CURVE SMOOTH",
"269 358 OFFCURVE",
"294 373 OFFCURVE",
"319 373 CURVE SMOOTH",
"348 373 OFFCURVE",
"377 351 OFFCURVE",
"379 315 CURVE SMOOTH",
"381 276 OFFCURVE",
"378 247 OFFCURVE",
"344 199 CURVE SMOOTH",
"280 110 OFFCURVE",
"185 26 OFFCURVE",
"129 26 CURVE SMOOTH",
"75 26 OFFCURVE",
"55 84 OFFCURVE",
"57 127 CURVE SMOOTH",
"60 209 OFFCURVE",
"125 326 OFFCURVE",
"227 447 CURVE SMOOTH",
"277 506 OFFCURVE",
"329 560 OFFCURVE",
"461 679 CURVE SMOOTH",
"468 687 OFFCURVE",
"471 693 OFFCURVE",
"473 695 CURVE",
"465 708 LINE",
"457 707 LINE",
"357 636 OFFCURVE",
"259 552 OFFCURVE",
"167 454 CURVE SMOOTH",
"66 347 OFFCURVE",
"-3 217 OFFCURVE",
"-3 126 CURVE SMOOTH",
"-3 34 OFFCURVE",
"45 -11 OFFCURVE",
"131 -11 CURVE SMOOTH"
);
}
);
width = 421;
}
);
note = six;
unicode = 0036;
},
{
glyphname = seven;
lastChange = "2020-12-25 23:17:06 +0000";
layers = (
{
layerId = "1691882E-B915-4755-A5B2-757873D945FF";
paths = (
{
closed = 1;
nodes = (
"95 10 OFFCURVE",
"51 7 OFFCURVE",
"107 82 CURVE SMOOTH",
"212 223 OFFCURVE",
"322 344 OFFCURVE",
"433 460 CURVE SMOOTH",
"541 574 OFFCURVE",
"608 644 OFFCURVE",
"632 672 CURVE",
"635 681 LINE",
"630 688 LINE",
"624 688 OFFCURVE",
"616 684 OFFCURVE",
"606 676 CURVE",
"541 684 OFFCURVE",
"467 694 OFFCURVE",
"403 689 CURVE SMOOTH",
"360 686 OFFCURVE",
"321 676 OFFCURVE",
"293 656 CURVE SMOOTH",
"267 637 OFFCURVE",
"236 595 OFFCURVE",
"203 528 CURVE",
"203 521 LINE",
"207 519 LINE",
"217 520 OFFCURVE",
"232 535 OFFCURVE",
"251 563 CURVE SMOOTH",
"265 584 OFFCURVE",
"301 643 OFFCURVE",
"349 642 CURVE SMOOTH",
"540 637 LINE",
"373 461 LINE SMOOTH",
"204 282 OFFCURVE",
"131 195 OFFCURVE",
"47 95 CURVE SMOOTH",
"-3 36 OFFCURVE",
"-14 19 OFFCURVE",
"-16 9 CURVE",
"-15 4 LINE",
"-8 0 LINE"
);
}
);
width = 488;
}
);
note = seven;
unicode = 0037;
},
{
glyphname = eight;
lastChange = "2020-12-25 23:21:45 +0000";
layers = (
{
layerId = "1691882E-B915-4755-A5B2-757873D945FF";
paths = (
{
closed = 1;
nodes = (
"224 -6 OFFCURVE",
"346 77 OFFCURVE",
"348 192 CURVE SMOOTH",
"349 249 OFFCURVE",
"322 315 OFFCURVE",
"306 349 CURVE",
"349 385 OFFCURVE",
"405 423 OFFCURVE",
"440 461 CURVE SMOOTH",
"483 510 OFFCURVE",
"506 541 OFFCURVE",
"507 613 CURVE SMOOTH",
"508 666 OFFCURVE",
"460 700 OFFCURVE",
"396 700 CURVE SMOOTH",
"292 700 OFFCURVE",
"197 609 OFFCURVE",
"194 505 CURVE SMOOTH",
"193 471 OFFCURVE",
"209 430 OFFCURVE",
"223 399 CURVE",
"174 363 OFFCURVE",
"115 330 OFFCURVE",
"63 281 CURVE SMOOTH",
"2 224 OFFCURVE",
"-31 166 OFFCURVE",
"-31 103 CURVE SMOOTH",
"-31 40 OFFCURVE",
"31 -6 OFFCURVE",
"106 -6 CURVE SMOOTH"
);
},
{
closed = 1;
nodes = (
"54 19 OFFCURVE",
"18 53 OFFCURVE",
"18 107 CURVE SMOOTH",
"18 196 OFFCURVE",
"111 264 OFFCURVE",
"241 360 CURVE",
"275 279 OFFCURVE",
"290 241 OFFCURVE",
"288 196 CURVE SMOOTH",
"284 106 OFFCURVE",
"196 19 OFFCURVE",
"108 19 CURVE SMOOTH"
);
},
{
closed = 1;
nodes = (
"250 468 OFFCURVE",
"252 471 OFFCURVE",
"254 505 CURVE SMOOTH",
"258 573 OFFCURVE",
"326 675 OFFCURVE",
"396 676 CURVE SMOOTH",
"438 677 OFFCURVE",
"463 650 OFFCURVE",
"463 609 CURVE SMOOTH",
"463 529 OFFCURVE",
"367 452 OFFCURVE",
"290 388 CURVE"
);
}
);
width = 420;
}
);
note = eight;
unicode = 0038;
},
{
glyphname = nine;
lastChange = "2020-12-25 23:24:03 +0000";
layers = (
{
layerId = "1691882E-B915-4755-A5B2-757873D945FF";
paths = (
{
closed = 1;
nodes = (
"33 -12 LINE",
"130 51 OFFCURVE",
"225 133 OFFCURVE",
"318 233 CURVE SMOOTH",
"412 334 OFFCURVE",
"474 459 OFFCURVE",
"476 552 CURVE SMOOTH",
"478 645 OFFCURVE",
"435 707 OFFCURVE",
"358 707 CURVE SMOOTH",
"224 707 OFFCURVE",
"39 517 OFFCURVE",
"39 378 CURVE SMOOTH",
"39 323 OFFCURVE",
"72 264 OFFCURVE",
"125 264 CURVE SMOOTH",
"219 264 OFFCURVE",
"308 385 OFFCURVE",
"351 497 CURVE",
"350 503 LINE",
"337 504 LINE",
"332 501 LINE",
"286 390 OFFCURVE",
"231 315 OFFCURVE",
"168 310 CURVE SMOOTH",
"128 307 OFFCURVE",
"99 336 OFFCURVE",
"99 381 CURVE SMOOTH",
"101 541 OFFCURVE",
"267 682 OFFCURVE",
"338 682 CURVE SMOOTH",
"411 682 OFFCURVE",
"422 603 OFFCURVE",
"416 559 CURVE SMOOTH",
"389 358 OFFCURVE",
"217 141 OFFCURVE",
"25 6 CURVE",
"20 -1 LINE",
"26 -12 LINE"
);
}
);
width = 435;
}
);
note = nine;
unicode = 0039;
},
{
glyphname = zero.inferior;
lastChange = "2020-12-25 23:27:12 +0000";
layers = (
{
layerId = "1691882E-B915-4755-A5B2-757873D945FF";
paths = (
{
closed = 1;
nodes = (
"341 -22 OFFCURVE",
"456 161 OFFCURVE",
"501 286 CURVE SMOOTH",
"519 338 OFFCURVE",
"536 399 OFFCURVE",
"536 438 CURVE SMOOTH",
"536 509 OFFCURVE",
"506 544 OFFCURVE",
"447 544 CURVE SMOOTH",
"346 544 OFFCURVE",
"222 419 OFFCURVE",
"153 280 CURVE SMOOTH",
"118 211 OFFCURVE",
"101 151 OFFCURVE",
"101 103 CURVE SMOOTH",
"101 32 OFFCURVE",
"136 -22 OFFCURVE",
"212 -22 CURVE SMOOTH"
);
},
{
closed = 1;
nodes = (
"178 -3 OFFCURVE",
"149 48 OFFCURVE",
"149 96 CURVE SMOOTH",
"149 137 OFFCURVE",
"167 199 OFFCURVE",
"201 264 CURVE SMOOTH",
"267 391 OFFCURVE",
"380 526 OFFCURVE",
"448 526 CURVE SMOOTH",
"514 526 OFFCURVE",
"525 448 OFFCURVE",
"465 287 CURVE SMOOTH",
"409 143 OFFCURVE",
"297 -3 OFFCURVE",
"217 -3 CURVE SMOOTH"
);
}
);
width = 474;
}
);
note = zero.inferior;
unicode = 2080;
},
{
glyphname = one.inferior;
lastChange = "2020-12-25 23:42:24 +0000";
layers = (
{
layerId = "1691882E-B915-4755-A5B2-757873D945FF";
paths = (
{
closed = 1;
nodes = (
"108 2 OFFCURVE",
"127 4 OFFCURVE",
"130 6 CURVE",
"389 492 LINE",
"422 555 LINE",
"368 557 LINE SMOOTH",
"345 557 OFFCURVE",
"324 537 OFFCURVE",
"190 447 CURVE SMOOTH",
"164 429 OFFCURVE",
"179 429 OFFCURVE",
"183 429 CURVE",
"194 429 OFFCURVE",
"280 466 OFFCURVE",
"342 497 CURVE",
"82 7 LINE",
"78 0 LINE"
);
}
);
width = 378;
}
);
note = one.inferior;
unicode = 2081;
},
{
glyphname = fraction;
lastChange = "2020-12-25 23:38:26 +0000";
layers = (
{
layerId = "1691882E-B915-4755-A5B2-757873D945FF";
paths = (
{
closed = 1;
nodes = (
"137 -82 OFFCURVE",
"253 32 OFFCURVE",
"440 260 CURVE SMOOTH",
"524 360 OFFCURVE",
"630 506 OFFCURVE",
"697 590 CURVE SMOOTH",
"883 823 LINE SMOOTH",
"889 831 OFFCURVE",
"892 836 OFFCURVE",
"892 841 CURVE SMOOTH",
"892 850 OFFCURVE",
"882 854 OFFCURVE",
"873 854 CURVE SMOOTH",
"854 854 OFFCURVE",
"840 848 OFFCURVE",
"830 836 CURVE SMOOTH",
"800 796 OFFCURVE",
"730 703 OFFCURVE",
"641 591 CURVE SMOOTH",
"563 492 OFFCURVE",
"471 378 OFFCURVE",
"384 271 CURVE SMOOTH",
"273 134 OFFCURVE",
"170 8 OFFCURVE",
"109 -60 CURVE SMOOTH",
"103 -67 OFFCURVE",
"100 -72 OFFCURVE",
"100 -76 CURVE SMOOTH",
"100 -80 OFFCURVE",
"103 -82 OFFCURVE",
"107 -82 CURVE SMOOTH"
);
}
);
width = 723;
}
);
note = fraction;
unicode = 2044;
},
{
glyphname = period;
lastChange = "2020-12-26 00:18:11 +0000";
layers = (
{
layerId = "1691882E-B915-4755-A5B2-757873D945FF";
paths = (
{
closed = 1;
nodes = (
"162 49 OFFCURVE",
"204 69 OFFCURVE",
"204 124 CURVE SMOOTH",
"204 139 OFFCURVE",
"187 166 OFFCURVE",
"154 166 CURVE SMOOTH",
"121 166 OFFCURVE",
"84 141 OFFCURVE",
"84 90 CURVE SMOOTH",
"84 75 OFFCURVE",
"101 49 OFFCURVE",
"134 49 CURVE SMOOTH"
);
}
);
width = 208;
}
);
note = period;
unicode = 002E;
},
{
glyphname = comma;
lastChange = "2020-12-26 00:18:20 +0000";
layers = (
{
layerId = "1691882E-B915-4755-A5B2-757873D945FF";
paths = (
{
closed = 1;
nodes = (
"194 -33 OFFCURVE",
"268 31 OFFCURVE",
"268 116 CURVE SMOOTH",
"268 205 OFFCURVE",
"146 210 OFFCURVE",
"136 126 CURVE SMOOTH",
"128 78 OFFCURVE",
"178 48 OFFCURVE",
"225 82 CURVE",
"217 21 OFFCURVE",
"174 -24 OFFCURVE",
"116 -43 CURVE SMOOTH",
"98 -49 OFFCURVE",
"100 -66 OFFCURVE",
"119 -58 CURVE SMOOTH"
);
}
);
width = 281;
}
);
note = comma;
unicode = 002C;
},
{
glyphname = colon;
lastChange = "2020-12-26 00:18:31 +0000";
layers = (
{
layerId = "1691882E-B915-4755-A5B2-757873D945FF";
paths = (
{
closed = 1;
nodes = (
"102 0 OFFCURVE",
"140 25 OFFCURVE",
"140 76 CURVE SMOOTH",
"140 91 OFFCURVE",
"122 118 OFFCURVE",
"89 118 CURVE SMOOTH",
"62 118 OFFCURVE",
"20 97 OFFCURVE",
"20 42 CURVE SMOOTH",
"20 27 OFFCURVE",
"37 0 OFFCURVE",
"69 0 CURVE SMOOTH"
);
},
{
closed = 1;
nodes = (
"254 321 OFFCURVE",
"297 341 OFFCURVE",
"297 396 CURVE SMOOTH",
"297 411 OFFCURVE",
"279 438 OFFCURVE",
"247 438 CURVE SMOOTH",
"214 438 OFFCURVE",
"182 411 OFFCURVE",
"178 379 CURVE SMOOTH",
"172 347 OFFCURVE",
"194 321 OFFCURVE",
"227 321 CURVE SMOOTH"
);
}
);
width = 256;
}
);
note = colon;
unicode = 003A;
},
{
glyphname = semicolon;
lastChange = "2020-12-26 00:18:31 +0000";
layers = (
{
layerId = "1691882E-B915-4755-A5B2-757873D945FF";
paths = (
{
closed = 1;
nodes = (
"198 -81 OFFCURVE",
"267 -26 OFFCURVE",
"267 60 CURVE SMOOTH",
"267 102 OFFCURVE",
"246 137 OFFCURVE",
"211 137 CURVE SMOOTH",
"128 137 OFFCURVE",
"114 20 OFFCURVE",
"186 20 CURVE SMOOTH",
"201 20 OFFCURVE",
"215 24 OFFCURVE",
"230 34 CURVE",
"222 -27 OFFCURVE",
"176 -72 OFFCURVE",
"119 -91 CURVE SMOOTH",
"107 -96 OFFCURVE",
"99 -116 OFFCURVE",
"124 -106 CURVE SMOOTH"
);
},
{
closed = 1;
nodes = (
"373 340 OFFCURVE",
"415 361 OFFCURVE",
"415 415 CURVE SMOOTH",
"415 430 OFFCURVE",
"397 457 OFFCURVE",
"365 457 CURVE SMOOTH",
"332 457 OFFCURVE",
"300 430 OFFCURVE",
"296 398 CURVE SMOOTH",
"291 365 OFFCURVE",
"312 340 OFFCURVE",
"345 340 CURVE SMOOTH"
);
}
);
width = 369;
}
);
note = semicolon;
unicode = 003B;
},
{
glyphname = ellipsis;
lastChange = "2020-12-26 00:18:31 +0000";
layers = (
{
layerId = "1691882E-B915-4755-A5B2-757873D945FF";
paths = (
{
closed = 1;
nodes = (
"195 49 OFFCURVE",
"237 69 OFFCURVE",
"237 124 CURVE SMOOTH",
"237 139 OFFCURVE",
"220 166 OFFCURVE",
"187 166 CURVE SMOOTH",
"154 166 OFFCURVE",
"117 141 OFFCURVE",
"117 90 CURVE SMOOTH",
"117 75 OFFCURVE",
"134 49 OFFCURVE",
"167 49 CURVE SMOOTH"
);
},
{
closed = 1;
nodes = (
"473 49 OFFCURVE",
"514 69 OFFCURVE",
"514 124 CURVE SMOOTH",
"514 139 OFFCURVE",
"497 166 OFFCURVE",
"465 166 CURVE SMOOTH",
"432 166 OFFCURVE",
"400 139 OFFCURVE",
"396 107 CURVE SMOOTH",
"391 75 OFFCURVE",
"412 49 OFFCURVE",
"445 49 CURVE SMOOTH"
);
},
{
closed = 1;
nodes = (
"767 49 OFFCURVE",
"809 69 OFFCURVE",
"809 124 CURVE SMOOTH",
"809 139 OFFCURVE",
"792 166 OFFCURVE",
"759 166 CURVE SMOOTH",
"726 166 OFFCURVE",
"694 139 OFFCURVE",
"691 107 CURVE SMOOTH",
"685 75 OFFCURVE",
"706 49 OFFCURVE",
"739 49 CURVE SMOOTH"
);
}
);
width = 737;
}
);
note = ellipsis;
unicode = 2026;
},
{
glyphname = exclam;
lastChange = "2020-12-26 00:18:41 +0000";
layers = (
{
layerId = "1691882E-B915-4755-A5B2-757873D945FF";
paths = (
{
closed = 1;
nodes = (
"165 122 OFFCURVE",
"613 777 OFFCURVE",
"630 823 CURVE",
"627 832 LINE",
"620 834 LINE",
"576 836 LINE SMOOTH",
"537 836 OFFCURVE",
"512 826 OFFCURVE",
"501 806 CURVE SMOOTH",
"139 114 LINE",
"138 105 LINE",
"152 103 LINE"
);
},
{
closed = 1;
nodes = (
"107 -70 OFFCURVE",
"149 -49 OFFCURVE",
"149 6 CURVE SMOOTH",
"149 21 OFFCURVE",
"131 48 OFFCURVE",
"99 48 CURVE SMOOTH",
"66 48 OFFCURVE",
"29 23 OFFCURVE",
"29 -28 CURVE SMOOTH",
"29 -44 OFFCURVE",
"46 -70 OFFCURVE",
"79 -70 CURVE SMOOTH"
);
}
);
width = 350;
}
);
note = exclam;
unicode = 0021;
},
{
glyphname = exclamdown;
lastChange = "2020-12-26 00:18:51 +0000";
layers = (
{
layerId = "1691882E-B915-4755-A5B2-757873D945FF";
paths = (
{
closed = 1;
nodes = (
"208 -354 OFFCURVE",
"233 -344 OFFCURVE",
"244 -324 CURVE SMOOTH",
"606 368 LINE",
"607 378 LINE",
"593 379 LINE",
"580 360 OFFCURVE",
"132 -295 OFFCURVE",
"115 -341 CURVE",
"118 -350 LINE",
"125 -352 LINE",
"169 -354 LINE SMOOTH"
);
},
{
closed = 1;
nodes = (
"679 435 OFFCURVE",
"716 459 OFFCURVE",
"716 510 CURVE SMOOTH",
"716 526 OFFCURVE",
"699 552 OFFCURVE",
"666 552 CURVE SMOOTH",
"638 552 OFFCURVE",
"596 531 OFFCURVE",
"596 476 CURVE SMOOTH",
"596 461 OFFCURVE",
"614 435 OFFCURVE",
"646 435 CURVE SMOOTH"
);
}
);
width = 650;
}
);
note = exclamdown;
unicode = 00A1;
},
{
glyphname = question;
lastChange = "2020-12-26 00:20:14 +0000";
layers = (
{
layerId = "1691882E-B915-4755-A5B2-757873D945FF";
paths = (
{
closed = 1;
nodes = (
"255 294 OFFCURVE",
"309 361 OFFCURVE",
"410 461 CURVE SMOOTH",
"461 510 OFFCURVE",
"497 546 OFFCURVE",
"518 569 CURVE SMOOTH",
"578 637 OFFCURVE",
"608 697 OFFCURVE",
"608 748 CURVE SMOOTH",
"608 763 OFFCURVE",
"604 775 OFFCURVE",
"598 787 CURVE SMOOTH",
"575 828 OFFCURVE",
"536 849 OFFCURVE",
"480 849 CURVE SMOOTH",
"432 849 OFFCURVE",
"379 832 OFFCURVE",
"320 797 CURVE SMOOTH",
"274 771 OFFCURVE",
"245 744 OFFCURVE",
"233 715 CURVE SMOOTH",
"226 697 OFFCURVE",
"223 682 OFFCURVE",
"223 669 CURVE SMOOTH",
"223 656 OFFCURVE",
"225 646 OFFCURVE",
"230 637 CURVE SMOOTH",
"240 611 OFFCURVE",
"260 598 OFFCURVE",
"291 598 CURVE SMOOTH",
"331 598 OFFCURVE",
"380 633 OFFCURVE",
"380 678 CURVE SMOOTH",
"380 701 OFFCURVE",
"373 716 OFFCURVE",
"358 724 CURVE SMOOTH",
"351 728 OFFCURVE",
"343 730 OFFCURVE",
"333 730 CURVE SMOOTH",
"323 730 OFFCURVE",
"311 726 OFFCURVE",
"295 719 CURVE SMOOTH",
"268 704 OFFCURVE",
"252 687 OFFCURVE",
"247 670 CURVE",
"247 677 LINE SMOOTH",
"247 715 OFFCURVE",
"313 775 OFFCURVE",
"385 785 CURVE SMOOTH",
"400 787 OFFCURVE",
"414 787 OFFCURVE",
"426 787 CURVE SMOOTH",
"438 787 OFFCURVE",
"450 784 OFFCURVE",
"464 779 CURVE SMOOTH",
"495 764 OFFCURVE",
"510 744 OFFCURVE",
"510 716 CURVE SMOOTH",
"510 683 OFFCURVE",
"494 646 OFFCURVE",
"461 604 CURVE SMOOTH",
"449 588 OFFCURVE",
"395 526 OFFCURVE",
"293 396 CURVE SMOOTH",
"261 352 OFFCURVE",
"202 256 OFFCURVE",
"187 193 CURVE SMOOTH",
"184 175 OFFCURVE",
"206 167 OFFCURVE",
"214 183 CURVE SMOOTH"
);
},
{
closed = 1;
nodes = (
"177 -54 OFFCURVE",
"217 -34 OFFCURVE",
"217 19 CURVE SMOOTH",
"217 33 OFFCURVE",
"201 58 OFFCURVE",
"170 58 CURVE SMOOTH",
"139 58 OFFCURVE",
"103 35 OFFCURVE",
"103 -14 CURVE SMOOTH",
"103 -28 OFFCURVE",
"120 -54 OFFCURVE",
"151 -54 CURVE SMOOTH"
);
}
);
width = 432;
}
);
note = question;
unicode = 003F;
},
{
glyphname = questiondown;
lastChange = "2020-12-26 00:19:52 +0000";
layers = (
{
layerId = "1691882E-B915-4755-A5B2-757873D945FF";
paths = (
{
closed = 1;
nodes = (
"298 -389 OFFCURVE",
"354 -371 OFFCURVE",
"416 -335 CURVE SMOOTH",
"464 -307 OFFCURVE",
"494 -279 OFFCURVE",
"508 -249 CURVE SMOOTH",
"514 -230 OFFCURVE",
"518 -214 OFFCURVE",
"518 -201 CURVE SMOOTH",
"518 -187 OFFCURVE",
"515 -176 OFFCURVE",
"510 -166 CURVE SMOOTH",
"500 -140 OFFCURVE",
"479 -126 OFFCURVE",
"447 -126 CURVE SMOOTH",
"405 -126 OFFCURVE",
"352 -163 OFFCURVE",
"352 -210 CURVE SMOOTH",
"352 -234 OFFCURVE",
"360 -250 OFFCURVE",
"376 -259 CURVE SMOOTH",
"383 -263 OFFCURVE",
"391 -265 OFFCURVE",
"402 -265 CURVE SMOOTH",
"412 -265 OFFCURVE",
"426 -261 OFFCURVE",
"442 -253 CURVE SMOOTH",
"470 -237 OFFCURVE",
"488 -220 OFFCURVE",
"492 -202 CURVE",
"492 -209 LINE SMOOTH",
"492 -249 OFFCURVE",
"423 -312 OFFCURVE",
"348 -323 CURVE SMOOTH",
"331 -325 OFFCURVE",
"317 -325 OFFCURVE",
"305 -325 CURVE SMOOTH",
"292 -325 OFFCURVE",
"279 -322 OFFCURVE",
"265 -316 CURVE SMOOTH",
"232 -301 OFFCURVE",
"216 -279 OFFCURVE",
"216 -250 CURVE SMOOTH",
"216 -215 OFFCURVE",
"233 -176 OFFCURVE",
"268 -132 CURVE SMOOTH",
"280 -116 OFFCURVE",
"337 -50 OFFCURVE",
"444 86 CURVE SMOOTH",
"478 133 OFFCURVE",
"540 233 OFFCURVE",
"555 299 CURVE SMOOTH",
"559 318 OFFCURVE",
"535 327 OFFCURVE",
"528 310 CURVE SMOOTH",
"484 194 OFFCURVE",
"428 123 OFFCURVE",
"321 19 CURVE SMOOTH",
"268 -33 OFFCURVE",
"229 -71 OFFCURVE",
"208 -96 CURVE SMOOTH",
"145 -167 OFFCURVE",
"113 -230 OFFCURVE",
"113 -284 CURVE SMOOTH",
"113 -299 OFFCURVE",
"117 -312 OFFCURVE",
"124 -325 CURVE SMOOTH",
"149 -367 OFFCURVE",
"189 -389 OFFCURVE",
"248 -389 CURVE SMOOTH"
);
},
{
closed = 1;
nodes = (
"606 441 OFFCURVE",
"644 465 OFFCURVE",
"644 516 CURVE SMOOTH",
"644 532 OFFCURVE",
"626 558 OFFCURVE",
"593 558 CURVE SMOOTH",
"566 558 OFFCURVE",
"524 537 OFFCURVE",
"524 482 CURVE SMOOTH",
"524 467 OFFCURVE",
"541 441 OFFCURVE",
"573 441 CURVE SMOOTH"
);
}
);
width = 583;
}
);
note = questiondown;
unicode = 00BF;
},
{
glyphname = periodcentered;
lastChange = "2020-12-26 00:20:00 +0000";
layers = (
{
layerId = "1691882E-B915-4755-A5B2-757873D945FF";
paths = (
{
closed = 1;
nodes = (
"184 254 OFFCURVE",
"226 274 OFFCURVE",
"226 329 CURVE SMOOTH",
"226 344 OFFCURVE",
"209 371 OFFCURVE",
"176 371 CURVE SMOOTH",
"143 371 OFFCURVE",
"106 346 OFFCURVE",
"106 295 CURVE SMOOTH",
"106 280 OFFCURVE",
"123 254 OFFCURVE",
"156 254 CURVE SMOOTH"
);
}
);
width = 261;
}
);
note = periodcentered;
unicode = 00B7;
},
{
glyphname = bullet;
lastChange = "2020-12-26 00:20:30 +0000";
layers = (
{
layerId = "1691882E-B915-4755-A5B2-757873D945FF";
paths = (
{
closed = 1;
nodes = (
"660 17 OFFCURVE",
"757 57 OFFCURVE",
"837 137 CURVE SMOOTH",
"1003 303 OFFCURVE",
"1003 549 OFFCURVE",
"837 715 CURVE SMOOTH",
"757 795 OFFCURVE",
"660 835 OFFCURVE",
"548 835 CURVE SMOOTH",
"322 835 OFFCURVE",
"139 651 OFFCURVE",
"139 426 CURVE SMOOTH",
"139 201 OFFCURVE",
"322 17 OFFCURVE",
"548 17 CURVE SMOOTH"
);
}
);
width = 978;
}
);
note = bullet;
unicode = 2022;
},
{
glyphname = asterisk;
lastChange = "2020-12-26 00:20:43 +0000";
layers = (
{
layerId = "1691882E-B915-4755-A5B2-757873D945FF";
paths = (
{
closed = 1;
nodes = (
"487 231 OFFCURVE",
"495 238 OFFCURVE",
"503 253 CURVE SMOOTH",
"508 264 OFFCURVE",
"509 274 OFFCURVE",
"506 282 CURVE SMOOTH",
"483 325 OFFCURVE",
"459 372 OFFCURVE",
"434 424 CURVE",
"614 431 LINE",
"627 432 LINE",
"650 438 OFFCURVE",
"661 448 OFFCURVE",
"661 461 CURVE SMOOTH",
"661 470 OFFCURVE",
"653 475 OFFCURVE",
"639 475 CURVE SMOOTH",
"454 475 LINE",
"570 600 LINE SMOOTH",
"584 614 OFFCURVE",
"590 625 OFFCURVE",
"590 634 CURVE SMOOTH",
"590 642 OFFCURVE",
"589 648 OFFCURVE",
"587 652 CURVE SMOOTH",
"583 663 OFFCURVE",
"574 663 OFFCURVE",
"560 649 CURVE SMOOTH",
"402 489 LINE",
"322 646 LINE SMOOTH",
"312 666 OFFCURVE",
"301 676 OFFCURVE",
"288 676 CURVE",
"282 674 LINE SMOOTH",
"269 672 OFFCURVE",
"268 662 OFFCURVE",
"276 644 CURVE SMOOTH",
"301 589 OFFCURVE",
"328 533 OFFCURVE",
"353 475 CURVE",
"155 475 LINE SMOOTH",
"136 475 OFFCURVE",
"127 466 OFFCURVE",
"127 448 CURVE SMOOTH",
"127 435 OFFCURVE",
"138 413 OFFCURVE",
"155 413 CURVE SMOOTH",
"334 420 LINE",
"198 283 LINE SMOOTH",
"155 240 OFFCURVE",
"243 219 OFFCURVE",
"238 239 CURVE",
"386 401 LINE",
"454 249 LINE",
"461 237 OFFCURVE",
"469 231 OFFCURVE",
"477 231 CURVE SMOOTH"
);
}
);
width = 613;
}
);
note = asterisk;
unicode = 002A;
},
{
glyphname = numbersign;
lastChange = "2020-12-26 00:20:57 +0000";
layers = (
{
layerId = "1691882E-B915-4755-A5B2-757873D945FF";
paths = (
{
closed = 1;
nodes = (
"218 -115 LINE",
"408 197 LINE",
"596 197 LINE",
"409 -115 LINE",
"481 -115 LINE",
"670 197 LINE",
"889 197 LINE",
"928 260 LINE",
"710 260 LINE",
"822 452 LINE",
"1025 452 LINE",
"1064 518 LINE",
"862 518 LINE",
"1051 831 LINE",
"977 831 LINE",
"789 518 LINE",
"598 518 LINE",
"789 831 LINE",
"713 831 LINE",
"526 518 LINE",
"294 518 LINE",
"255 452 LINE",
"487 452 LINE",
"372 260 LINE",
"159 260 LINE",
"118 197 LINE",
"334 197 LINE",
"146 -115 LINE"
);
},
{
closed = 1;
nodes = (
"560 452 LINE",
"749 452 LINE",
"635 260 LINE",
"444 260 LINE"
);
}
);
width = 995;
}
);
note = numbersign;
unicode = 0023;
},
{
glyphname = slash;
lastChange = "2020-12-26 00:21:31 +0000";
layers = (
{
layerId = "1691882E-B915-4755-A5B2-757873D945FF";
paths = (
{
closed = 1;
nodes = (
"77 -147 OFFCURVE",
"160 -66 OFFCURVE",
"297 94 CURVE SMOOTH",
"404 219 OFFCURVE",
"524 364 OFFCURVE",
"656 529 CURVE SMOOTH",
"788 694 OFFCURVE",
"875 800 OFFCURVE",
"916 848 CURVE SMOOTH",
"922 854 OFFCURVE",
"924 859 OFFCURVE",
"924 865 CURVE SMOOTH",
"924 876 OFFCURVE",
"916 882 OFFCURVE",
"898 882 CURVE SMOOTH",
"880 882 OFFCURVE",
"866 875 OFFCURVE",
"856 862 CURVE SMOOTH",
"784 774 OFFCURVE",
"722 690 OFFCURVE",
"572 502 CURVE SMOOTH",
"440 337 LINE SMOOTH",
"336 207 OFFCURVE",
"280 138 OFFCURVE",
"207 51 CURVE SMOOTH",
"172 10 OFFCURVE",
"129 -37 OFFCURVE",
"104 -65 CURVE SMOOTH",
"34 -133 OFFCURVE",
"33 -147 OFFCURVE",
"48 -147 CURVE SMOOTH"
);
}
);
width = 814;
}
);
note = slash;
unicode = 002F;
},
{
glyphname = backslash;
lastChange = "2020-12-26 00:21:56 +0000";
layers = (
{
layerId = "1691882E-B915-4755-A5B2-757873D945FF";
paths = (
{
closed = 1;
nodes = (
"1233 -146 LINE",
"1232 -142 OFFCURVE",
"1228 -136 OFFCURVE",
"1222 -128 CURVE",
"1130 -33 OFFCURVE",
"1044 69 OFFCURVE",
"964 179 CURVE SMOOTH",
"840 351 LINE SMOOTH",
"786 424 OFFCURVE",
"747 478 OFFCURVE",
"722 511 CURVE SMOOTH",
"556 732 OFFCURVE",
"420 843 OFFCURVE",
"312 843 CURVE SMOOTH",
"264 843 OFFCURVE",
"236 829 OFFCURVE",
"226 800 CURVE",
"235 791 LINE",
"238 792 OFFCURVE",
"245 795 OFFCURVE",
"257 800 CURVE SMOOTH",
"269 806 OFFCURVE",
"279 808 OFFCURVE",
"285 808 CURVE SMOOTH",
"365 808 OFFCURVE",
"505 669 OFFCURVE",
"648 488 CURVE SMOOTH",
"719 398 OFFCURVE",
"789 307 OFFCURVE",
"860 215 CURVE SMOOTH",
"1032 -9 OFFCURVE",
"1153 -132 OFFCURVE",
"1224 -153 CURVE"
);
}
);
width = 1157;
}
);
note = backslash;
unicode = 005C;
},
{
glyphname = hyphen;
lastChange = "2020-12-26 00:22:14 +0000";
layers = (
{
layerId = "1691882E-B915-4755-A5B2-757873D945FF";
paths = (
{
closed = 1;
nodes = (
"220 276 LINE SMOOTH",
"289 284 OFFCURVE",
"362 288 OFFCURVE",
"436 288 CURVE",
"450 289 OFFCURVE",
"459 297 OFFCURVE",
"461 308 CURVE",
"456 320 OFFCURVE",
"447 326 OFFCURVE",
"430 327 CURVE SMOOTH",
"283 330 OFFCURVE",
"178 332 OFFCURVE",
"116 332 CURVE SMOOTH",
"100 332 OFFCURVE",
"92 323 OFFCURVE",
"92 303 CURVE SMOOTH",
"92 287 OFFCURVE",
"104 264 OFFCURVE",
"115 264 CURVE"
);
}
);
width = 406;
}
);
note = hyphen;
unicode = 002D;
},
{
glyphname = uni00AD;
lastChange = "2020-12-26 00:22:14 +0000";
layers = (
{
layerId = "1691882E-B915-4755-A5B2-757873D945FF";
paths = (
{
closed = 1;
nodes = (
"220 276 LINE SMOOTH",
"289 284 OFFCURVE",
"362 288 OFFCURVE",
"436 288 CURVE",
"450 289 OFFCURVE",
"459 297 OFFCURVE",
"461 308 CURVE",
"456 320 OFFCURVE",
"447 326 OFFCURVE",
"430 327 CURVE SMOOTH",
"283 330 OFFCURVE",
"178 332 OFFCURVE",
"116 332 CURVE SMOOTH",
"100 332 OFFCURVE",
"92 323 OFFCURVE",
"92 303 CURVE SMOOTH",
"92 287 OFFCURVE",
"104 264 OFFCURVE",
"115 264 CURVE"
);
}
);
width = 406;
}
);
note = uni00AD;
unicode = 00AD;
},
{
glyphname = endash;
lastChange = "2020-12-26 00:22:14 +0000";
layers = (
{
layerId = "1691882E-B915-4755-A5B2-757873D945FF";
paths = (
{
closed = 1;
nodes = (
"89 264 OFFCURVE",
"341 287 OFFCURVE",
"587 288 CURVE",
"601 289 OFFCURVE",
"609 297 OFFCURVE",
"611 308 CURVE",
"607 320 OFFCURVE",
"597 326 OFFCURVE",
"581 327 CURVE SMOOTH",
"433 330 OFFCURVE",
"269 332 OFFCURVE",
"89 332 CURVE SMOOTH",
"73 332 OFFCURVE",
"66 323 OFFCURVE",
"66 303 CURVE SMOOTH",
"66 287 OFFCURVE",
"77 264 OFFCURVE",
"89 264 CURVE"
);
}
);
width = 534;
}
);
note = endash;
unicode = 2013;
},
{
glyphname = emdash;
lastChange = "2020-12-26 00:22:14 +0000";
layers = (
{
layerId = "1691882E-B915-4755-A5B2-757873D945FF";
paths = (
{
closed = 1;
nodes = (
"147 264 OFFCURVE",
"301 273 OFFCURVE",
"569 280 CURVE SMOOTH",
"811 286 OFFCURVE",
"972 288 OFFCURVE",
"1054 288 CURVE",
"1069 289 OFFCURVE",
"1076 297 OFFCURVE",
"1078 308 CURVE",
"1074 320 OFFCURVE",
"1064 326 OFFCURVE",
"1049 327 CURVE SMOOTH",
"901 330 OFFCURVE",
"601 332 OFFCURVE",
"149 332 CURVE SMOOTH",
"132 332 OFFCURVE",
"124 323 OFFCURVE",
"124 303 CURVE SMOOTH",
"124 287 OFFCURVE",
"135 264 OFFCURVE",
"147 264 CURVE"
);
}
);
width = 939;
}
);
note = emdash;
unicode = 2014;
},
{
glyphname = afii00208;
lastChange = "2020-12-26 00:22:14 +0000";
layers = (
{
layerId = "1691882E-B915-4755-A5B2-757873D945FF";
paths = (
{
closed = 1;
nodes = (
"147 264 OFFCURVE",
"301 273 OFFCURVE",
"569 280 CURVE SMOOTH",
"811 286 OFFCURVE",
"972 288 OFFCURVE",
"1054 288 CURVE",
"1069 289 OFFCURVE",
"1076 297 OFFCURVE",
"1078 308 CURVE",
"1074 320 OFFCURVE",
"1064 326 OFFCURVE",
"1049 327 CURVE SMOOTH",
"901 330 OFFCURVE",
"601 332 OFFCURVE",
"149 332 CURVE SMOOTH",
"132 332 OFFCURVE",
"124 323 OFFCURVE",
"124 303 CURVE SMOOTH",
"124 287 OFFCURVE",
"135 264 OFFCURVE",
"147 264 CURVE"
);
}
);
width = 939;
}
);
note = afii00208;
unicode = 2015;
},
{
glyphname = underscore;
lastChange = "2020-12-26 00:22:14 +0000";
layers = (
{
layerId = "1691882E-B915-4755-A5B2-757873D945FF";
paths = (
{
closed = 1;
nodes = (
"429 5 LINE SMOOTH",
"744 12 OFFCURVE",
"1015 16 OFFCURVE",
"1239 16 CURVE",
"1249 25 LINE",
"1247 46 OFFCURVE",
"1230 65 OFFCURVE",
"1209 65 CURVE SMOOTH",
"152 65 LINE SMOOTH",
"136 65 OFFCURVE",
"128 57 OFFCURVE",
"128 39 CURVE SMOOTH",
"128 21 OFFCURVE",
"137 -3 OFFCURVE",
"152 -3 CURVE SMOOTH"
);
}
);
width = 1094;
}
);
note = underscore;
unicode = 005F;
},
{
glyphname = parenleft;
lastChange = "2020-12-26 00:22:42 +0000";
layers = (
{
layerId = "1691882E-B915-4755-A5B2-757873D945FF";
paths = (
{
closed = 1;
nodes = (
"392 -82 OFFCURVE",
"413 -75 OFFCURVE",
"412 -62 CURVE SMOOTH",
"411 -55 OFFCURVE",
"405 -53 OFFCURVE",
"394 -54 CURVE SMOOTH",
"383 -55 OFFCURVE",
"373 -55 OFFCURVE",
"366 -55 CURVE SMOOTH",
"333 -55 OFFCURVE",
"304 -46 OFFCURVE",
"280 -26 CURVE SMOOTH",
"229 17 OFFCURVE",
"204 90 OFFCURVE",
"204 193 CURVE SMOOTH",
"204 330 OFFCURVE",
"249 465 OFFCURVE",
"340 599 CURVE SMOOTH",
"465 779 OFFCURVE",
"631 866 OFFCURVE",
"700 871 CURVE",
"717 877 OFFCURVE",
"726 883 OFFCURVE",
"728 891 CURVE SMOOTH",
"728 896 OFFCURVE",
"725 899 OFFCURVE",
"719 899 CURVE SMOOTH",
"713 899 OFFCURVE",
"707 898 OFFCURVE",
"700 896 CURVE SMOOTH",
"569 863 OFFCURVE",
"434 776 OFFCURVE",
"341 678 CURVE SMOOTH",
"247 579 OFFCURVE",
"177 469 OFFCURVE",
"153 379 CURVE SMOOTH",
"141 323 OFFCURVE",
"134 275 OFFCURVE",
"134 235 CURVE SMOOTH",
"134 195 OFFCURVE",
"137 161 OFFCURVE",
"143 133 CURVE SMOOTH",
"172 -8 OFFCURVE",
"265 -82 OFFCURVE",
"349 -82 CURVE SMOOTH"
);
}
);
width = 549;
}
);
note = parenleft;
unicode = 0028;
},
{
glyphname = parenright;
lastChange = "2020-12-26 00:22:53 +0000";
layers = (
{
layerId = "1691882E-B915-4755-A5B2-757873D945FF";
paths = (
{
closed = 1;
nodes = (
"199 -95 OFFCURVE",
"205 -94 OFFCURVE",
"212 -92 CURVE SMOOTH",
"387 -47 OFFCURVE",
"560 90 OFFCURVE",
"660 230 CURVE SMOOTH",
"709 299 OFFCURVE",
"743 364 OFFCURVE",
"759 425 CURVE SMOOTH",
"771 481 OFFCURVE",
"778 529 OFFCURVE",
"778 569 CURVE SMOOTH",
"778 609 OFFCURVE",
"775 643 OFFCURVE",
"769 671 CURVE SMOOTH",
"740 812 OFFCURVE",
"647 886 OFFCURVE",
"563 886 CURVE SMOOTH",
"520 886 OFFCURVE",
"499 879 OFFCURVE",
"500 866 CURVE SMOOTH",
"502 859 OFFCURVE",
"508 857 OFFCURVE",
"519 858 CURVE SMOOTH",
"530 859 OFFCURVE",
"539 859 OFFCURVE",
"545 859 CURVE SMOOTH",
"579 859 OFFCURVE",
"607 849 OFFCURVE",
"632 828 CURVE SMOOTH",
"683 786 OFFCURVE",
"708 714 OFFCURVE",
"708 611 CURVE SMOOTH",
"708 459 OFFCURVE",
"649 306 OFFCURVE",
"533 150 CURVE SMOOTH",
"459 53 OFFCURVE",
"342 -34 OFFCURVE",
"213 -67 CURVE SMOOTH",
"194 -72 OFFCURVE",
"184 -79 OFFCURVE",
"184 -87 CURVE SMOOTH",
"184 -92 OFFCURVE",
"187 -95 OFFCURVE",
"193 -95 CURVE SMOOTH"
);
}
);
width = 728;
}
);
note = parenright;
unicode = 0029;
},
{
glyphname = braceleft;
lastChange = "2020-12-26 00:23:13 +0000";
layers = (
{
layerId = "1691882E-B915-4755-A5B2-757873D945FF";
paths = (
{
closed = 1;
nodes = (
"443 -136 LINE SMOOTH",
"454 -136 OFFCURVE",
"463 -108 OFFCURVE",
"447 -110 CURVE",
"392 -110 OFFCURVE",
"356 -100 OFFCURVE",
"339 -79 CURVE SMOOTH",
"328 -67 OFFCURVE",
"323 -50 OFFCURVE",
"323 -28 CURVE SMOOTH",
"323 -6 OFFCURVE",
"325 17 OFFCURVE",
"330 42 CURVE SMOOTH",
"341 88 OFFCURVE",
"350 124 OFFCURVE",
"356 150 CURVE SMOOTH",
"368 224 OFFCURVE",
"378 294 OFFCURVE",
"358 320 CURVE SMOOTH",
"337 347 OFFCURVE",
"298 373 OFFCURVE",
"234 385 CURVE",
"310 399 OFFCURVE",
"364 424 OFFCURVE",
"394 462 CURVE SMOOTH",
"443 522 OFFCURVE",
"455 628 OFFCURVE",
"480 731 CURVE SMOOTH",
"503 827 OFFCURVE",
"536 864 OFFCURVE",
"653 864 CURVE",
"680 876 OFFCURVE",
"676 896 OFFCURVE",
"659 892 CURVE",
"654 892 LINE SMOOTH",
"575 892 OFFCURVE",
"516 878 OFFCURVE",
"479 850 CURVE SMOOTH",
"451 828 OFFCURVE",
"430 794 OFFCURVE",
"416 747 CURVE SMOOTH",
"400 699 OFFCURVE",
"396 674 OFFCURVE",
"384 618 CURVE SMOOTH",
"373 565 LINE SMOOTH",
"360 504 OFFCURVE",
"343 464 OFFCURVE",
"317 444 CURVE SMOOTH",
"293 424 OFFCURVE",
"247 409 OFFCURVE",
"179 402 CURVE",
"168 389 OFFCURVE",
"164 380 OFFCURVE",
"164 376 CURVE SMOOTH",
"164 372 OFFCURVE",
"166 370 OFFCURVE",
"172 370 CURVE SMOOTH",
"206 370 OFFCURVE",
"232 366 OFFCURVE",
"250 359 CURVE SMOOTH",
"288 342 OFFCURVE",
"308 314 OFFCURVE",
"308 275 CURVE SMOOTH",
"308 232 OFFCURVE",
"304 219 OFFCURVE",
"286 147 CURVE SMOOTH",
"277 111 OFFCURVE",
"271 81 OFFCURVE",
"266 58 CURVE SMOOTH",
"262 36 OFFCURVE",
"260 8 OFFCURVE",
"260 -24 CURVE SMOOTH",
"260 -56 OFFCURVE",
"266 -80 OFFCURVE",
"280 -95 CURVE SMOOTH",
"306 -123 OFFCURVE",
"359 -136 OFFCURVE",
"437 -136 CURVE SMOOTH"
);
}
);
width = 567;
}
);
note = braceleft;
unicode = 007B;
},
{
glyphname = braceright;
lastChange = "2020-12-26 00:23:22 +0000";
layers = (
{
layerId = "1691882E-B915-4755-A5B2-757873D945FF";
paths = (
{
closed = 1;
nodes = (
"184 -136 LINE SMOOTH",
"263 -136 OFFCURVE",
"321 -123 OFFCURVE",
"360 -95 CURVE SMOOTH",
"418 -55 OFFCURVE",
"455 37 OFFCURVE",
"473 112 CURVE SMOOTH",
"495 215 OFFCURVE",
"527 282 OFFCURVE",
"566 311 CURVE SMOOTH",
"602 339 OFFCURVE",
"649 354 OFFCURVE",
"708 354 CURVE",
"721 366 OFFCURVE",
"727 375 OFFCURVE",
"727 380 CURVE SMOOTH",
"727 384 OFFCURVE",
"725 386 OFFCURVE",
"719 386 CURVE SMOOTH",
"658 392 OFFCURVE",
"619 406 OFFCURVE",
"604 426 CURVE SMOOTH",
"596 436 OFFCURVE",
"592 451 OFFCURVE",
"592 471 CURVE SMOOTH",
"592 511 OFFCURVE",
"605 564 OFFCURVE",
"631 630 CURVE SMOOTH",
"668 727 OFFCURVE",
"679 809 OFFCURVE",
"651 846 CURVE SMOOTH",
"630 874 OFFCURVE",
"579 887 OFFCURVE",
"496 887 CURVE SMOOTH",
"490 887 LINE",
"479 877 OFFCURVE",
"473 870 OFFCURVE",
"473 866 CURVE SMOOTH",
"473 862 OFFCURVE",
"476 860 OFFCURVE",
"483 860 CURVE SMOOTH",
"540 860 OFFCURVE",
"576 849 OFFCURVE",
"591 827 CURVE SMOOTH",
"603 811 OFFCURVE",
"606 776 OFFCURVE",
"591 726 CURVE SMOOTH",
"559 623 LINE SMOOTH",
"550 596 OFFCURVE",
"539 549 OFFCURVE",
"535 520 CURVE SMOOTH",
"532 505 OFFCURVE",
"527 484 OFFCURVE",
"532 470 CURVE SMOOTH",
"551 411 OFFCURVE",
"595 379 OFFCURVE",
"655 369 CURVE",
"585 355 OFFCURVE",
"533 334 OFFCURVE",
"499 303 CURVE SMOOTH",
"454 262 OFFCURVE",
"419 174 OFFCURVE",
"401 104 CURVE SMOOTH",
"378 10 OFFCURVE",
"349 -51 OFFCURVE",
"315 -78 CURVE SMOOTH",
"288 -99 OFFCURVE",
"246 -110 OFFCURVE",
"187 -110 CURVE SMOOTH",
"175 -110 OFFCURVE",
"170 -117 OFFCURVE",
"170 -131 CURVE SMOOTH",
"170 -134 OFFCURVE",
"172 -135 OFFCURVE",
"178 -136 CURVE SMOOTH"
);
}
);
width = 682;
}
);
note = braceright;
unicode = 007D;
},
{
glyphname = bracketleft;
lastChange = "2020-12-26 00:23:29 +0000";
layers = (
{
layerId = "1691882E-B915-4755-A5B2-757873D945FF";
paths = (
{
closed = 1;
nodes = (
"470 34 OFFCURVE",
"453 44 OFFCURVE",
"419 44 CURVE SMOOTH",
"333 39 LINE SMOOTH",
"279 39 OFFCURVE",
"252 56 OFFCURVE",
"252 92 CURVE SMOOTH",
"252 181 OFFCURVE",
"372 433 OFFCURVE",
"504 629 CURVE SMOOTH",
"570 728 OFFCURVE",
"622 786 OFFCURVE",
"660 805 CURVE SMOOTH",
"667 809 OFFCURVE",
"687 812 OFFCURVE",
"717 812 CURVE SMOOTH",
"806 807 LINE",
"818 807 LINE SMOOTH",
"830 807 OFFCURVE",
"835 814 OFFCURVE",
"835 829 CURVE SMOOTH",
"835 857 OFFCURVE",
"799 872 OFFCURVE",
"727 872 CURVE SMOOTH",
"703 872 LINE SMOOTH",
"657 872 OFFCURVE",
"619 858 OFFCURVE",
"590 831 CURVE SMOOTH",
"578 820 OFFCURVE",
"562 803 OFFCURVE",
"543 781 CURVE SMOOTH",
"387 600 OFFCURVE",
"182 228 OFFCURVE",
"182 44 CURVE SMOOTH",
"182 8 OFFCURVE",
"230 -11 OFFCURVE",
"326 -11 CURVE"
);
}
);
width = 783;
}
);
note = bracketleft;
unicode = 005B;
},
{
glyphname = bracketright;
lastChange = "2020-12-26 00:23:38 +0000";
layers = (
{
layerId = "1691882E-B915-4755-A5B2-757873D945FF";
paths = (
{
closed = 1;
nodes = (
"391 -6 OFFCURVE",
"456 11 OFFCURVE",
"489 45 CURVE SMOOTH",
"654 211 OFFCURVE",
"817 585 OFFCURVE",
"817 814 CURVE SMOOTH",
"817 859 OFFCURVE",
"793 869 OFFCURVE",
"741 869 CURVE SMOOTH",
"635 869 OFFCURVE",
"577 850 OFFCURVE",
"566 811 CURVE",
"570 808 LINE",
"703 813 LINE SMOOTH",
"721 813 OFFCURVE",
"734 811 OFFCURVE",
"743 808 CURVE",
"745 796 OFFCURVE",
"746 784 OFFCURVE",
"746 772 CURVE SMOOTH",
"746 604 OFFCURVE",
"584 240 OFFCURVE",
"461 103 CURVE SMOOTH",
"419 55 OFFCURVE",
"348 41 OFFCURVE",
"300 41 CURVE SMOOTH",
"278 43 LINE SMOOTH",
"219 43 OFFCURVE",
"186 27 OFFCURVE",
"180 -5 CURVE",
"194 -11 OFFCURVE",
"250 -12 OFFCURVE",
"350 -9 CURVE SMOOTH"
);
}
);
width = 772;
}
);
note = bracketright;
unicode = 005D;
},
{
glyphname = quotesinglbase;
lastChange = "2020-12-26 00:23:51 +0000";
layers = (
{
layerId = "1691882E-B915-4755-A5B2-757873D945FF";
paths = (
{
closed = 1;
nodes = (
"62 41 OFFCURVE",
"65 42 OFFCURVE",
"69 44 CURVE SMOOTH",
"143 69 OFFCURVE",
"212 124 OFFCURVE",
"212 210 CURVE SMOOTH",
"212 252 OFFCURVE",
"191 288 OFFCURVE",
"156 288 CURVE SMOOTH",
"70 288 OFFCURVE",
"62 170 OFFCURVE",
"131 170 CURVE SMOOTH",
"145 170 OFFCURVE",
"161 175 OFFCURVE",
"175 184 CURVE",
"167 123 OFFCURVE",
"117 78 OFFCURVE",
"81 65 CURVE SMOOTH",
"63 58 OFFCURVE",
"53 53 OFFCURVE",
"53 48 CURVE SMOOTH",
"53 43 OFFCURVE",
"55 41 OFFCURVE",
"59 41 CURVE SMOOTH"
);
}
);
width = 154;
}
);
note = quotesinglbase;
unicode = 201A;
},
{
glyphname = quotedblbase;
lastChange = "2020-12-26 00:24:00 +0000";
layers = (
{
layerId = "1691882E-B915-4755-A5B2-757873D945FF";
paths = (
{
closed = 1;
nodes = (
"214 66 LINE",
"216 72 OFFCURVE",
"264 248 OFFCURVE",
"264 307 CURVE SMOOTH",
"264 335 OFFCURVE",
"253 349 OFFCURVE",
"230 349 CURVE SMOOTH",
"203 349 OFFCURVE",
"186 330 OFFCURVE",
"188 303 CURVE SMOOTH",
"199 66 LINE"
);
},
{
closed = 1;
nodes = (
"59 66 LINE",
"92 190 OFFCURVE",
"108 267 OFFCURVE",
"108 300 CURVE SMOOTH",
"108 333 OFFCURVE",
"98 349 OFFCURVE",
"76 349 CURVE SMOOTH",
"51 349 OFFCURVE",
"31 326 OFFCURVE",
"33 301 CURVE SMOOTH",
"45 66 LINE"
);
}
);
width = 245;
}
);
note = quotedblbase;
unicode = 201E;
},
{
glyphname = quotedblleft;
lastChange = "2020-12-26 00:24:00 +0000";
layers = (
{
layerId = "1691882E-B915-4755-A5B2-757873D945FF";
paths = (
{
closed = 1;
nodes = (
"405 606 OFFCURVE",
"425 702 OFFCURVE",
"401 701 CURVE",
"393 713 OFFCURVE",
"381 718 OFFCURVE",
"365 718 CURVE SMOOTH",
"350 718 OFFCURVE",
"336 714 OFFCURVE",
"323 706 CURVE",
"340 764 OFFCURVE",
"397 811 OFFCURVE",
"436 824 CURVE SMOOTH",
"455 831 OFFCURVE",
"464 836 OFFCURVE",
"464 840 CURVE SMOOTH",
"464 845 OFFCURVE",
"462 847 OFFCURVE",
"459 847 CURVE SMOOTH",
"457 847 OFFCURVE",
"453 847 OFFCURVE",
"450 846 CURVE SMOOTH",
"372 821 OFFCURVE",
"278 758 OFFCURVE",
"278 661 CURVE SMOOTH",
"278 621 OFFCURVE",
"295 601 OFFCURVE",
"327 601 CURVE SMOOTH"
);
},
{
closed = 1;
nodes = (
"236 606 OFFCURVE",
"256 702 OFFCURVE",
"231 701 CURVE",
"222 713 OFFCURVE",
"211 718 OFFCURVE",
"196 718 CURVE SMOOTH",
"179 718 OFFCURVE",
"165 714 OFFCURVE",
"153 706 CURVE",
"170 764 OFFCURVE",
"226 811 OFFCURVE",
"265 824 CURVE SMOOTH",
"285 831 OFFCURVE",
"295 836 OFFCURVE",
"295 840 CURVE SMOOTH",
"295 845 OFFCURVE",
"293 847 OFFCURVE",
"290 847 CURVE SMOOTH",
"286 847 OFFCURVE",
"283 847 OFFCURVE",
"280 846 CURVE SMOOTH",
"202 821 OFFCURVE",
"109 758 OFFCURVE",
"109 661 CURVE SMOOTH",
"109 621 OFFCURVE",
"125 601 OFFCURVE",
"157 601 CURVE SMOOTH"
);
}
);
width = 421;
}
);
note = quotedblleft;
unicode = 201C;
},
{
glyphname = quotedblright;
lastChange = "2020-12-26 00:24:00 +0000";
layers = (
{
layerId = "1691882E-B915-4755-A5B2-757873D945FF";
paths = (
{
closed = 1;
nodes = (
"368 613 OFFCURVE",
"437 670 OFFCURVE",
"437 754 CURVE SMOOTH",
"437 846 OFFCURVE",
"320 861 OFFCURVE",
"309 772 CURVE SMOOTH",
"301 724 OFFCURVE",
"352 694 OFFCURVE",
"398 728 CURVE",
"390 667 OFFCURVE",
"346 622 OFFCURVE",
"289 603 CURVE SMOOTH",
"271 598 OFFCURVE",
"273 580 OFFCURVE",
"292 588 CURVE SMOOTH"
);
},
{
closed = 1;
nodes = (
"199 613 OFFCURVE",
"266 670 OFFCURVE",
"266 754 CURVE SMOOTH",
"266 846 OFFCURVE",
"150 861 OFFCURVE",
"140 772 CURVE SMOOTH",
"131 724 OFFCURVE",
"182 694 OFFCURVE",
"228 728 CURVE",
"221 667 OFFCURVE",
"177 622 OFFCURVE",
"120 603 CURVE SMOOTH",
"102 597 OFFCURVE",
"103 580 OFFCURVE",
"122 588 CURVE SMOOTH"
);
}
);
width = 393;
}
);
note = quotedblright;
unicode = 201D;
},
{
glyphname = quoteleft;
lastChange = "2020-12-26 00:24:00 +0000";
layers = (
{
layerId = "1691882E-B915-4755-A5B2-757873D945FF";
paths = (
{
closed = 1;
nodes = (
"133 606 OFFCURVE",
"176 703 OFFCURVE",
"140 701 CURVE",
"132 713 OFFCURVE",
"120 718 OFFCURVE",
"103 718 CURVE SMOOTH",
"87 718 OFFCURVE",
"73 714 OFFCURVE",
"61 706 CURVE",
"78 765 OFFCURVE",
"130 810 OFFCURVE",
"189 829 CURVE SMOOTH",
"203 834 OFFCURVE",
"215 852 OFFCURVE",
"189 846 CURVE SMOOTH",
"109 821 OFFCURVE",
"18 756 OFFCURVE",
"18 661 CURVE SMOOTH",
"18 621 OFFCURVE",
"34 601 OFFCURVE",
"66 601 CURVE SMOOTH"
);
}
);
width = 185;
}
);
note = quoteleft;
unicode = 2018;
},
{
glyphname = quoteright;
lastChange = "2020-12-26 00:24:00 +0000";
layers = (
{
layerId = "1691882E-B915-4755-A5B2-757873D945FF";
paths = (
{
closed = 1;
nodes = (
"223 613 OFFCURVE",
"292 670 OFFCURVE",
"292 754 CURVE SMOOTH",
"292 846 OFFCURVE",
"175 861 OFFCURVE",
"164 772 CURVE SMOOTH",
"157 724 OFFCURVE",
"207 694 OFFCURVE",
"253 728 CURVE",
"245 667 OFFCURVE",
"202 622 OFFCURVE",
"144 603 CURVE SMOOTH",
"127 597 OFFCURVE",
"129 580 OFFCURVE",
"147 588 CURVE SMOOTH"
);
}
);
width = 158;
}
);
note = quoteright;
unicode = 2019;
},
{
glyphname = guillemotleft;
lastChange = "2020-12-26 00:24:00 +0000";
layers = (
{
layerId = "1691882E-B915-4755-A5B2-757873D945FF";
paths = (
{
closed = 1;
nodes = (
"109 44 LINE",
"117 58 LINE",
"118 253 LINE",
"120 255 OFFCURVE",
"143 270 OFFCURVE",
"185 298 CURVE SMOOTH",
"280 363 OFFCURVE",
"334 409 OFFCURVE",
"349 435 CURVE",
"348 444 LINE",
"338 449 LINE",
"327 449 OFFCURVE",
"254 405 OFFCURVE",
"118 318 CURVE SMOOTH",
"34 266 LINE",
"38 250 OFFCURVE",
"44 218 OFFCURVE",
"54 169 CURVE SMOOTH",
"64 120 OFFCURVE",
"75 78 OFFCURVE",
"88 44 CURVE",
"91 41 OFFCURVE",
"95 40 OFFCURVE",
"100 40 CURVE"
);
},
{
closed = 1;
nodes = (
"317 44 LINE",
"324 58 LINE",
"325 253 LINE",
"331 256 OFFCURVE",
"525 387 OFFCURVE",
"555 435 CURVE",
"554 444 LINE",
"545 449 LINE",
"537 449 OFFCURVE",
"464 405 OFFCURVE",
"325 318 CURVE SMOOTH",
"241 266 LINE",
"262 163 LINE SMOOTH",
"273 103 OFFCURVE",
"285 63 OFFCURVE",
"295 44 CURVE",
"306 40 LINE"
);
}
);
width = 451;
}
);
note = guillemotleft;
unicode = 00AB;
},
